<svg width="889" height="469" viewBox="0 0 889 469" fill="none" xmlns="http://www.w3.org/2000/svg">
<g clip-path="url(#clip0_1_1905)">
<path d="M439.109 132.25C439.336 132.477 439.702 132.477 439.929 132.25L443.632 128.546C443.859 128.318 443.859 127.95 443.632 127.722C443.405 127.495 443.036 127.495 442.809 127.722L439.519 131.015L436.229 127.722C436.002 127.495 435.633 127.495 435.406 127.722C435.179 127.95 435.179 128.318 435.406 128.546L439.109 132.25ZM438.937 96.9143V131.838H440.101V96.9143H438.937Z" fill="#575B61"/>
<path d="M446.826 115.398H448.356C448.324 115.899 448.187 116.344 447.94 116.733C447.698 117.122 447.361 117.425 446.925 117.644C446.491 117.862 445.968 117.971 445.36 117.971C444.883 117.971 444.452 117.889 444.074 117.725C443.696 117.558 443.373 117.319 443.102 117.009C442.838 116.699 442.634 116.324 442.494 115.884C442.355 115.444 442.285 114.951 442.285 114.405V113.888C442.285 113.343 442.358 112.85 442.5 112.41C442.646 111.967 442.855 111.59 443.123 111.279C443.396 110.969 443.722 110.73 444.1 110.563C444.478 110.396 444.903 110.312 445.368 110.312C445.988 110.312 446.512 110.425 446.939 110.65C447.367 110.875 447.701 111.186 447.937 111.581C448.175 111.977 448.318 112.427 448.364 112.932H446.831C446.814 112.632 446.756 112.378 446.651 112.17C446.549 111.958 446.395 111.799 446.186 111.694C445.982 111.585 445.709 111.53 445.368 111.53C445.112 111.53 444.888 111.578 444.699 111.673C444.507 111.769 444.347 111.914 444.219 112.108C444.088 112.303 443.993 112.548 443.926 112.845C443.865 113.138 443.835 113.483 443.835 113.878V114.405C443.835 114.791 443.865 115.13 443.923 115.423C443.981 115.713 444.068 115.959 444.187 116.16C444.31 116.358 444.467 116.508 444.659 116.61C444.854 116.709 445.086 116.759 445.36 116.759C445.68 116.759 445.944 116.707 446.151 116.605C446.36 116.503 446.517 116.351 446.628 116.15C446.738 115.948 446.805 115.698 446.826 115.398Z" fill="#575B61"/>
<path d="M401.242 96.5025C401.015 96.2752 400.649 96.2752 400.422 96.5025L396.719 100.207C396.492 100.434 396.492 100.803 396.719 101.03C396.946 101.257 397.315 101.257 397.542 101.03L400.832 97.7374L404.122 101.03C404.349 101.257 404.718 101.257 404.945 101.03C405.172 100.803 405.172 100.434 404.945 100.207L401.242 96.5025ZM400.25 96.9143V131.838H401.414V96.9143H400.25Z" fill="#575B61"/>
<path d="M395.392 114.6H393.481L393.473 113.546H395.075C395.36 113.546 395.59 113.51 395.773 113.438C395.954 113.363 396.088 113.256 396.175 113.116C396.268 112.973 396.314 112.799 396.314 112.594C396.314 112.362 396.271 112.175 396.181 112.031C396.096 111.888 395.963 111.784 395.776 111.719C395.596 111.654 395.363 111.622 395.075 111.622H394.014V117.869H392.481V110.42H395.075C395.509 110.42 395.896 110.461 396.239 110.543C396.582 110.625 396.873 110.749 397.111 110.916C397.35 111.083 397.533 111.295 397.658 111.551C397.786 111.803 397.847 112.103 397.847 112.451C397.847 112.758 397.778 113.041 397.638 113.3C397.501 113.559 397.286 113.771 396.989 113.934C396.696 114.098 396.312 114.189 395.837 114.206L395.392 114.6ZM395.328 117.869H393.062L393.662 116.672H395.328C395.596 116.672 395.817 116.629 395.986 116.544C396.157 116.455 396.282 116.335 396.364 116.186C396.448 116.035 396.489 115.863 396.489 115.669C396.489 115.45 396.451 115.261 396.376 115.101C396.303 114.941 396.189 114.818 396.027 114.733C395.867 114.644 395.657 114.6 395.392 114.6H393.915L393.926 113.546H395.768L396.12 113.96C396.573 113.953 396.937 114.033 397.213 114.2C397.493 114.364 397.696 114.577 397.821 114.84C397.952 115.103 398.016 115.384 398.016 115.684C398.016 116.162 397.911 116.564 397.705 116.892C397.498 117.216 397.193 117.459 396.789 117.623C396.39 117.787 395.904 117.869 395.328 117.869Z" fill="#575B61"/>
<path d="M863.417 100.339H861.506L861.497 99.2851H863.1C863.385 99.2851 863.615 99.2493 863.798 99.1777C863.979 99.1029 864.113 98.9953 864.2 98.8556C864.293 98.7124 864.339 98.5383 864.339 98.3337C864.339 98.1018 864.296 97.9144 864.206 97.7709C864.121 97.6277 863.987 97.5238 863.801 97.4589C863.621 97.394 863.388 97.3617 863.1 97.3617H862.039V103.608H860.506V96.1594H863.1C863.534 96.1594 863.921 96.2005 864.264 96.2822C864.607 96.364 864.898 96.4886 865.136 96.6556C865.375 96.823 865.558 97.0343 865.683 97.2901C865.811 97.5424 865.872 97.8425 865.872 98.1906C865.872 98.4973 865.803 98.7805 865.663 99.0398C865.526 99.2988 865.311 99.5104 865.014 99.6739C864.72 99.8378 864.337 99.928 863.862 99.9452L863.417 100.339ZM863.353 103.608H861.087L861.687 102.411H863.353C863.621 102.411 863.842 102.368 864.011 102.283C864.182 102.195 864.307 102.075 864.389 101.925C864.473 101.775 864.514 101.603 864.514 101.408C864.514 101.19 864.476 101.001 864.4 100.84C864.328 100.68 864.214 100.558 864.051 100.472C863.891 100.383 863.682 100.339 863.417 100.339H861.94L861.951 99.2851H863.793L864.145 99.6996C864.598 99.6929 864.962 99.7729 865.238 99.94C865.517 100.104 865.721 100.317 865.846 100.58C865.977 100.842 866.041 101.124 866.041 101.424C866.041 101.901 865.936 102.304 865.73 102.631C865.523 102.955 865.218 103.199 864.814 103.363C864.415 103.526 863.929 103.608 863.353 103.608Z" fill="#575B61"/>
<path d="M0 467.889H853.731" stroke="#575B61"/>
<path d="M360.519 47.2679C360.749 47.0406 360.749 46.6721 360.519 46.4448L356.819 42.7405C356.592 42.5132 356.223 42.5132 355.996 42.7405C355.769 42.9678 355.769 43.3363 355.996 43.5636L359.285 46.8563L355.996 50.1491C355.769 50.3764 355.769 50.7448 355.996 50.9721C356.223 51.1994 356.592 51.1994 356.819 50.9721L360.519 47.2679ZM0 47.4384H360.109V46.2743H0V47.4384Z" fill="#575B61"/>
<path d="M420.321 91.9667C445.703 91.9667 466.28 71.3793 466.28 45.9834C466.28 20.5874 445.703 0 420.321 0C394.938 0 374.362 20.5874 374.362 45.9834C374.362 71.3793 394.938 91.9667 420.321 91.9667Z" fill="#2D3239" fill-opacity="0.1"/>
<path d="M420.321 81.1985C439.759 81.1985 455.517 65.4322 455.517 45.9834C455.517 26.5346 439.759 10.7683 420.321 10.7683C400.882 10.7683 385.124 26.5346 385.124 45.9834C385.124 65.4322 400.882 81.1985 420.321 81.1985Z" fill="#13AB7E" fill-opacity="0.7" stroke="#13AB7E" stroke-width="4"/>
<path d="M418.34 49.5349L420.356 51.1313L419.387 51.97L417.403 50.374L418.34 49.5349ZM420.405 46.7416V47.0946C420.405 47.661 420.329 48.1691 420.175 48.6193C420.024 49.0696 419.809 49.4531 419.527 49.7704C419.242 50.0841 418.91 50.3245 418.523 50.4916C418.139 50.6586 417.712 50.7424 417.24 50.7424C416.772 50.7424 416.344 50.6586 415.958 50.4916C415.568 50.3245 415.233 50.0841 414.951 49.7704C414.666 49.4531 414.448 49.0696 414.291 48.6193C414.137 48.1691 414.061 47.661 414.061 47.0946V46.7416C414.061 46.172 414.137 45.6639 414.291 45.2172C414.448 44.7669 414.666 44.3833 414.945 44.0661C415.225 43.7489 415.559 43.5067 415.946 43.3397C416.336 43.1726 416.763 43.0891 417.232 43.0891C417.7 43.0891 418.128 43.1726 418.514 43.3397C418.901 43.5067 419.239 43.7489 419.521 44.0661C419.803 44.3833 420.021 44.7669 420.175 45.2172C420.329 45.6639 420.405 46.172 420.405 46.7416ZM418.855 47.0946V46.7314C418.855 46.3359 418.82 45.9881 418.744 45.6878C418.671 45.3877 418.567 45.1354 418.427 44.9308C418.29 44.7262 418.122 44.5725 417.921 44.4704C417.72 44.3647 417.491 44.3117 417.232 44.3117C416.97 44.3117 416.74 44.3647 416.539 44.4704C416.339 44.5725 416.17 44.7262 416.033 44.9308C415.896 45.1354 415.795 45.3877 415.722 45.6878C415.649 45.9881 415.614 46.3359 415.614 46.7314V47.0946C415.614 47.4869 415.649 47.8347 415.722 48.1383C415.795 48.4386 415.896 48.6927 416.033 48.9005C416.173 49.1054 416.344 49.2605 416.545 49.3661C416.749 49.4718 416.981 49.5247 417.24 49.5247C417.499 49.5247 417.729 49.4718 417.927 49.3661C418.128 49.2605 418.296 49.1054 418.433 48.9005C418.573 48.6927 418.677 48.4386 418.75 48.1383C418.82 47.8347 418.855 47.4869 418.855 47.0946ZM426.371 46.2608V47.5501C426.371 48.1094 426.313 48.592 426.194 48.9977C426.074 49.4002 425.903 49.7311 425.676 49.9904C425.455 50.2459 425.19 50.4354 424.885 50.5582C424.576 50.681 424.236 50.7424 423.861 50.7424C423.561 50.7424 423.282 50.7049 423.023 50.6298C422.764 50.5512 422.531 50.4302 422.322 50.2666C422.118 50.1027 421.941 49.8964 421.79 49.6476C421.644 49.3952 421.531 49.0949 421.452 48.7471C421.374 48.3993 421.336 48.0003 421.336 47.5501V46.2608C421.336 45.7014 421.397 45.2224 421.516 44.8234C421.638 44.4209 421.81 44.0917 422.031 43.8359C422.255 43.5801 422.523 43.3927 422.828 43.2733C423.136 43.1505 423.477 43.0891 423.852 43.0891C424.152 43.0891 424.428 43.1281 424.684 43.2067C424.943 43.2818 425.178 43.3994 425.385 43.5597C425.594 43.7201 425.772 43.9264 425.917 44.1787C426.063 44.4276 426.176 44.7262 426.255 45.074C426.333 45.4185 426.371 45.8141 426.371 46.2608ZM424.893 47.7445V46.0614C424.893 45.7919 424.879 45.5565 424.85 45.3554C424.821 45.154 424.78 44.9835 424.722 44.8438C424.664 44.7006 424.591 44.5844 424.507 44.496C424.422 44.4072 424.323 44.3423 424.216 44.3016C424.105 44.2605 423.986 44.2402 423.852 44.2402C423.683 44.2402 423.535 44.2725 423.407 44.3374C423.282 44.402 423.174 44.5062 423.084 44.6493C422.997 44.789 422.927 44.9768 422.881 45.2122C422.837 45.4439 422.814 45.727 422.814 46.0614V47.7445C422.814 48.014 422.828 48.2509 422.854 48.4555C422.886 48.6601 422.93 48.8359 422.988 48.9825C423.049 49.1257 423.119 49.2433 423.203 49.3356C423.288 49.424 423.384 49.489 423.494 49.53C423.605 49.5707 423.73 49.5911 423.861 49.5911C424.027 49.5911 424.169 49.5588 424.297 49.4939C424.425 49.4258 424.536 49.3202 424.623 49.177C424.716 49.0303 424.783 48.8391 424.829 48.6039C424.873 48.3685 424.893 48.0821 424.893 47.7445Z" fill="white"/>
<path d="M420.321 205.47C440.08 205.47 456.099 189.443 456.099 169.672C456.099 149.902 440.08 133.875 420.321 133.875C400.561 133.875 384.542 149.902 384.542 169.672C384.542 189.443 400.561 205.47 420.321 205.47Z" fill="#2D3239" fill-opacity="0.8"/>
<path d="M418.34 173.224L420.356 174.82L419.387 175.659L417.403 174.063L418.34 173.224ZM420.405 170.431V170.784C420.405 171.35 420.329 171.858 420.175 172.309C420.024 172.759 419.809 173.142 419.527 173.46C419.242 173.773 418.91 174.014 418.523 174.181C418.139 174.348 417.712 174.432 417.24 174.432C416.772 174.432 416.344 174.348 415.958 174.181C415.568 174.014 415.233 173.773 414.951 173.46C414.666 173.142 414.448 172.759 414.291 172.309C414.137 171.858 414.061 171.35 414.061 170.784V170.431C414.061 169.861 414.137 169.353 414.291 168.906C414.448 168.456 414.666 168.073 414.945 167.755C415.225 167.438 415.559 167.196 415.946 167.029C416.336 166.862 416.763 166.778 417.232 166.778C417.7 166.778 418.128 166.862 418.514 167.029C418.901 167.196 419.239 167.438 419.521 167.755C419.803 168.073 420.021 168.456 420.175 168.906C420.329 169.353 420.405 169.861 420.405 170.431ZM418.855 170.784V170.421C418.855 170.025 418.82 169.677 418.744 169.377C418.671 169.077 418.567 168.825 418.427 168.62C418.29 168.415 418.122 168.262 417.921 168.16C417.72 168.054 417.491 168.001 417.232 168.001C416.97 168.001 416.74 168.054 416.539 168.16C416.339 168.262 416.17 168.415 416.033 168.62C415.896 168.825 415.795 169.077 415.722 169.377C415.649 169.677 415.614 170.025 415.614 170.421V170.784C415.614 171.176 415.649 171.524 415.722 171.827C415.795 172.128 415.896 172.382 416.033 172.59C416.173 172.795 416.344 172.95 416.545 173.055C416.749 173.161 416.981 173.214 417.24 173.214C417.499 173.214 417.729 173.161 417.927 173.055C418.128 172.95 418.296 172.795 418.433 172.59C418.573 172.382 418.677 172.128 418.75 171.827C418.82 171.524 418.855 171.176 418.855 170.784ZM424.952 166.865V174.329H423.48V168.564L421.708 169.126V167.965L424.792 166.865H424.952Z" fill="white"/>
<path d="M95.6993 318.973C115.459 318.973 131.477 302.946 131.477 283.176C131.477 263.405 115.459 247.378 95.6993 247.378C75.9396 247.378 59.9211 263.405 59.9211 283.176C59.9211 302.946 75.9396 318.973 95.6993 318.973Z" fill="#2D3239" fill-opacity="0.8"/>
<path d="M93.7181 286.727L95.7328 288.324L94.7665 289.163L92.7827 287.566L93.7181 286.727ZM95.784 283.934V284.287C95.784 284.853 95.7072 285.362 95.5539 285.812C95.4038 286.262 95.1874 286.646 94.9046 286.963C94.6216 287.277 94.2874 287.517 93.9023 287.684C93.5171 287.851 93.0893 287.935 92.6189 287.935C92.152 287.935 91.7242 287.851 91.3355 287.684C90.9469 287.517 90.6113 287.277 90.3282 286.963C90.0452 286.646 89.8256 286.262 89.6688 285.812C89.5152 285.362 89.4387 284.853 89.4387 284.287V283.934C89.4387 283.365 89.5152 282.856 89.6688 282.41C89.8256 281.959 90.0438 281.576 90.3233 281.259C90.6028 280.941 90.9368 280.699 91.3254 280.532C91.714 280.365 92.1419 280.282 92.6087 280.282C93.0791 280.282 93.507 280.365 93.8921 280.532C94.2807 280.699 94.6164 280.941 94.8994 281.259C95.1824 281.576 95.4006 281.959 95.5539 282.41C95.7072 282.856 95.784 283.365 95.784 283.934ZM94.2347 284.287V283.924C94.2347 283.528 94.1972 283.181 94.1222 282.88C94.0506 282.58 93.945 282.328 93.8051 282.123C93.669 281.919 93.5 281.765 93.299 281.663C93.098 281.557 92.8679 281.504 92.6087 281.504C92.3496 281.504 92.1195 281.557 91.9185 281.663C91.7175 281.765 91.5485 281.919 91.4123 282.123C91.2759 282.328 91.1721 282.58 91.1002 282.88C91.0287 283.181 90.9929 283.528 90.9929 283.924V284.287C90.9929 284.679 91.0287 285.027 91.1002 285.331C91.1721 285.631 91.2759 285.885 91.4123 286.093C91.552 286.298 91.7224 286.453 91.9237 286.559C92.1282 286.664 92.36 286.717 92.6189 286.717C92.8781 286.717 93.1064 286.664 93.3042 286.559C93.5052 286.453 93.6739 286.298 93.8104 286.093C93.95 285.885 94.0559 285.631 94.1274 285.331C94.199 285.027 94.2347 284.679 94.2347 284.287ZM101.833 286.681V287.832H96.7401V286.85L99.1483 284.267C99.3903 283.997 99.5814 283.76 99.721 283.556C99.8609 283.348 99.9613 283.162 100.023 282.998C100.088 282.831 100.12 282.672 100.12 282.522C100.12 282.297 100.082 282.104 100.008 281.944C99.9325 281.78 99.8217 281.654 99.6751 281.566C99.5319 281.477 99.3545 281.433 99.1433 281.433C98.9182 281.433 98.7239 281.487 98.5604 281.596C98.4001 281.705 98.2774 281.857 98.1922 282.052C98.1104 282.246 98.0694 282.466 98.0694 282.711H96.5917C96.5917 282.268 96.6976 281.862 96.9088 281.494C97.1203 281.122 97.4184 280.827 97.8035 280.609C98.189 280.387 98.6456 280.276 99.1739 280.276C99.6954 280.276 100.135 280.362 100.493 280.532C100.855 280.699 101.127 280.941 101.311 281.259C101.499 281.572 101.593 281.947 101.593 282.384C101.593 282.63 101.553 282.87 101.475 283.106C101.396 283.337 101.284 283.569 101.137 283.801C100.994 284.03 100.82 284.261 100.616 284.497C100.411 284.732 100.185 284.976 99.9357 285.229L98.6421 286.681H101.833Z" fill="white"/>
<path d="M312.114 318.973C331.873 318.973 347.892 302.946 347.892 283.176C347.892 263.405 331.873 247.378 312.114 247.378C292.354 247.378 276.335 263.405 276.335 283.176C276.335 302.946 292.354 318.973 312.114 318.973Z" fill="#2D3239" fill-opacity="0.8"/>
<path d="M310.133 286.727L312.149 288.324L311.18 289.163L309.196 287.566L310.133 286.727ZM312.198 283.934V284.287C312.198 284.853 312.122 285.362 311.968 285.812C311.817 286.262 311.602 286.646 311.32 286.963C311.034 287.277 310.703 287.517 310.316 287.684C309.932 287.851 309.504 287.935 309.033 287.935C308.565 287.935 308.137 287.851 307.75 287.684C307.361 287.517 307.026 287.277 306.744 286.963C306.459 286.646 306.241 286.262 306.084 285.812C305.93 285.362 305.854 284.853 305.854 284.287V283.934C305.854 283.365 305.93 282.856 306.084 282.41C306.241 281.959 306.459 281.576 306.738 281.259C307.017 280.941 307.352 280.699 307.739 280.532C308.129 280.365 308.556 280.282 309.024 280.282C309.493 280.282 309.92 280.365 310.307 280.532C310.694 280.699 311.032 280.941 311.314 281.259C311.596 281.576 311.814 281.959 311.968 282.41C312.122 282.856 312.198 283.365 312.198 283.934ZM310.648 284.287V283.924C310.648 283.528 310.613 283.181 310.537 282.88C310.464 282.58 310.36 282.328 310.22 282.123C310.083 281.919 309.915 281.765 309.714 281.663C309.513 281.557 309.283 281.504 309.024 281.504C308.763 281.504 308.533 281.557 308.332 281.663C308.131 281.765 307.963 281.919 307.826 282.123C307.689 282.328 307.588 282.58 307.515 282.88C307.442 283.181 307.407 283.528 307.407 283.924V284.287C307.407 284.679 307.442 285.027 307.515 285.331C307.588 285.631 307.689 285.885 307.826 286.093C307.966 286.298 308.137 286.453 308.338 286.559C308.542 286.664 308.774 286.717 309.033 286.717C309.292 286.717 309.522 286.664 309.72 286.559C309.92 286.453 310.089 286.298 310.226 286.093C310.365 285.885 310.47 285.631 310.543 285.331C310.613 285.027 310.648 284.679 310.648 284.287ZM314.662 283.469H315.45C315.703 283.469 315.91 283.426 316.075 283.341C316.238 283.252 316.358 283.129 316.436 282.973C316.518 282.812 316.561 282.626 316.561 282.415C316.561 282.224 316.523 282.055 316.448 281.908C316.375 281.758 316.264 281.642 316.116 281.56C315.965 281.475 315.776 281.433 315.546 281.433C315.366 281.433 315.2 281.468 315.046 281.54C314.891 281.612 314.769 281.712 314.679 281.842C314.586 281.971 314.54 282.128 314.54 282.312H313.062C313.062 281.903 313.172 281.547 313.391 281.243C313.612 280.94 313.908 280.703 314.281 280.532C314.65 280.362 315.06 280.276 315.505 280.276C316.011 280.276 316.454 280.358 316.832 280.522C317.21 280.682 317.504 280.919 317.716 281.233C317.925 281.547 318.033 281.936 318.033 282.399C318.033 282.635 317.978 282.863 317.87 283.085C317.76 283.303 317.603 283.501 317.399 283.679C317.198 283.852 316.951 283.992 316.663 284.098C316.372 284.2 316.046 284.251 315.686 284.251H314.662V283.469ZM314.662 284.589V283.827H315.686C316.09 283.827 316.448 283.873 316.753 283.965C317.061 284.057 317.317 284.19 317.527 284.364C317.733 284.534 317.89 284.737 317.995 284.973C318.103 285.205 318.155 285.462 318.155 285.745C318.155 286.093 318.088 286.404 317.954 286.676C317.824 286.946 317.635 287.174 317.393 287.362C317.155 287.549 316.875 287.693 316.555 287.791C316.235 287.887 315.883 287.935 315.505 287.935C315.194 287.935 314.886 287.892 314.58 287.807C314.281 287.718 314.007 287.587 313.763 287.413C313.521 287.236 313.327 287.014 313.181 286.748C313.036 286.479 312.966 286.16 312.966 285.791H314.444C314.444 285.982 314.49 286.153 314.586 286.303C314.682 286.453 314.813 286.571 314.979 286.656C315.15 286.741 315.339 286.784 315.546 286.784C315.782 286.784 315.982 286.741 316.151 286.656C316.32 286.567 316.451 286.444 316.538 286.287C316.631 286.127 316.677 285.941 316.677 285.73C316.677 285.457 316.628 285.239 316.529 285.075C316.43 284.908 316.288 284.785 316.104 284.707C315.921 284.628 315.703 284.589 315.45 284.589H314.662Z" fill="white"/>
<path d="M528.528 318.973C548.288 318.973 564.306 302.946 564.306 283.176C564.306 263.405 548.288 247.378 528.528 247.378C508.768 247.378 492.75 263.405 492.75 283.176C492.75 302.946 508.768 318.973 528.528 318.973Z" fill="#2D3239" fill-opacity="0.8"/>
<path d="M526.547 286.728L528.563 288.324L527.594 289.163L525.61 287.567L526.547 286.728ZM528.612 283.934V284.287C528.612 284.854 528.537 285.362 528.382 285.812C528.231 286.262 528.016 286.646 527.734 286.963C527.449 287.277 527.117 287.517 526.73 287.684C526.346 287.851 525.919 287.935 525.447 287.935C524.979 287.935 524.551 287.851 524.165 287.684C523.775 287.517 523.44 287.277 523.158 286.963C522.873 286.646 522.655 286.262 522.498 285.812C522.344 285.362 522.268 284.854 522.268 284.287V283.934C522.268 283.365 522.344 282.857 522.498 282.41C522.655 281.96 522.873 281.576 523.152 281.259C523.432 280.942 523.766 280.699 524.153 280.532C524.543 280.365 524.97 280.282 525.439 280.282C525.907 280.282 526.335 280.365 526.721 280.532C527.108 280.699 527.446 280.942 527.728 281.259C528.01 281.576 528.228 281.96 528.382 282.41C528.537 282.857 528.612 283.365 528.612 283.934ZM527.062 284.287V283.924C527.062 283.529 527.027 283.181 526.951 282.88C526.878 282.58 526.774 282.328 526.634 282.123C526.497 281.919 526.329 281.765 526.128 281.663C525.927 281.557 525.698 281.504 525.439 281.504C525.177 281.504 524.947 281.557 524.746 281.663C524.546 281.765 524.377 281.919 524.24 282.123C524.104 282.328 524.002 282.58 523.929 282.88C523.856 283.181 523.821 283.529 523.821 283.924V284.287C523.821 284.68 523.856 285.027 523.929 285.331C524.002 285.631 524.104 285.885 524.24 286.093C524.38 286.298 524.551 286.453 524.752 286.559C524.956 286.664 525.189 286.717 525.447 286.717C525.706 286.717 525.936 286.664 526.134 286.559C526.335 286.453 526.503 286.298 526.64 286.093C526.78 285.885 526.884 285.631 526.957 285.331C527.027 285.027 527.062 284.68 527.062 284.287ZM534.785 285.05V286.206H529.421L529.348 285.311L532.452 280.384H533.624L532.356 282.507L530.811 285.05H534.785ZM533.941 280.384V287.833H532.466V280.384H533.941Z" fill="white"/>
<path d="M744.942 318.973C764.702 318.973 780.72 302.946 780.72 283.176C780.72 263.405 764.702 247.378 744.942 247.378C725.182 247.378 709.164 263.405 709.164 283.176C709.164 302.946 725.182 318.973 744.942 318.973Z" fill="#2D3239" fill-opacity="0.8"/>
<path d="M742.961 286.728L744.977 288.324L744.008 289.163L742.025 287.567L742.961 286.728ZM745.027 283.934V284.287C745.027 284.854 744.951 285.362 744.797 285.812C744.645 286.262 744.43 286.646 744.148 286.963C743.863 287.277 743.531 287.517 743.145 287.684C742.761 287.851 742.333 287.935 741.862 287.935C741.393 287.935 740.966 287.851 740.579 287.684C740.189 287.517 739.855 287.277 739.573 286.963C739.287 286.646 739.069 286.262 738.912 285.812C738.758 285.362 738.682 284.854 738.682 284.287V283.934C738.682 283.365 738.758 282.857 738.912 282.41C739.069 281.96 739.287 281.576 739.567 281.259C739.846 280.942 740.18 280.699 740.567 280.532C740.957 280.365 741.385 280.282 741.853 280.282C742.321 280.282 742.749 280.365 743.136 280.532C743.523 280.699 743.86 280.942 744.142 281.259C744.424 281.576 744.643 281.96 744.797 282.41C744.951 282.857 745.027 283.365 745.027 283.934ZM743.476 284.287V283.924C743.476 283.529 743.441 283.181 743.366 282.88C743.293 282.58 743.188 282.328 743.049 282.123C742.912 281.919 742.743 281.765 742.542 281.663C742.342 281.557 742.112 281.504 741.853 281.504C741.591 281.504 741.361 281.557 741.161 281.663C740.96 281.765 740.791 281.919 740.655 282.123C740.518 282.328 740.416 282.58 740.343 282.88C740.271 283.181 740.236 283.529 740.236 283.924V284.287C740.236 284.68 740.271 285.027 740.343 285.331C740.416 285.631 740.518 285.885 740.655 286.093C740.794 286.298 740.966 286.453 741.167 286.559C741.37 286.664 741.603 286.717 741.862 286.717C742.121 286.717 742.35 286.664 742.548 286.559C742.749 286.453 742.918 286.298 743.054 286.093C743.194 285.885 743.299 285.631 743.371 285.331C743.441 285.027 743.476 284.68 743.476 284.287ZM747.368 284.441L746.193 284.159L746.618 280.384H750.8V281.576H747.828L747.644 283.228C747.743 283.17 747.895 283.109 748.095 283.044C748.296 282.976 748.52 282.942 748.77 282.942C749.131 282.942 749.451 282.998 749.73 283.111C750.009 283.223 750.248 283.387 750.443 283.602C750.64 283.817 750.789 284.079 750.891 284.39C750.992 284.7 751.045 285.051 751.045 285.444C751.045 285.774 750.992 286.09 750.891 286.39C750.789 286.687 750.635 286.953 750.425 287.188C750.219 287.42 749.957 287.602 749.643 287.735C749.332 287.868 748.959 287.935 748.529 287.935C748.209 287.935 747.897 287.887 747.598 287.792C747.301 287.696 747.034 287.555 746.795 287.367C746.559 287.18 746.37 286.953 746.228 286.687C746.088 286.417 746.015 286.11 746.01 285.766H747.47C747.49 285.977 747.546 286.16 747.636 286.313C747.726 286.463 747.848 286.579 747.996 286.661C748.148 286.743 748.322 286.784 748.523 286.784C748.712 286.784 748.872 286.748 749.006 286.676C749.137 286.605 749.244 286.506 749.326 286.38C749.41 286.25 749.468 286.1 749.506 285.93C749.547 285.756 749.567 285.568 749.567 285.367C749.567 285.166 749.544 284.983 749.494 284.819C749.448 284.656 749.375 284.514 749.276 284.395C749.177 284.275 749.049 284.183 748.898 284.118C748.747 284.054 748.572 284.021 748.372 284.021C748.098 284.021 747.886 284.064 747.738 284.149C747.589 284.235 747.467 284.332 747.368 284.441Z" fill="white"/>
<path d="M853.149 225.842C872.909 225.842 888.927 209.815 888.927 190.045C888.927 170.275 872.909 154.248 853.149 154.248C833.39 154.248 817.371 170.275 817.371 190.045C817.371 209.815 833.39 225.842 853.149 225.842Z" fill="#2D3239" fill-opacity="0.8"/>
<path d="M851.168 193.597L853.184 195.193L852.216 196.032L850.232 194.436L851.168 193.597ZM853.234 190.803V191.156C853.234 191.723 853.158 192.231 853.004 192.681C852.853 193.131 852.637 193.515 852.355 193.832C852.07 194.146 851.739 194.386 851.352 194.553C850.968 194.72 850.54 194.804 850.069 194.804C849.601 194.804 849.173 194.72 848.786 194.553C848.396 194.386 848.062 194.146 847.78 193.832C847.495 193.515 847.276 193.131 847.119 192.681C846.965 192.231 846.89 191.723 846.89 191.156V190.803C846.89 190.234 846.965 189.726 847.119 189.279C847.276 188.829 847.495 188.445 847.774 188.128C848.053 187.811 848.388 187.569 848.774 187.401C849.164 187.234 849.592 187.151 850.06 187.151C850.528 187.151 850.956 187.234 851.343 187.401C851.73 187.569 852.067 187.811 852.349 188.128C852.631 188.445 852.85 188.829 853.004 189.279C853.158 189.726 853.234 190.234 853.234 190.803ZM851.683 191.156V190.793C851.683 190.398 851.648 190.05 851.573 189.75C851.5 189.449 851.395 189.197 851.256 188.993C851.119 188.788 850.95 188.634 850.75 188.532C850.549 188.426 850.319 188.374 850.06 188.374C849.798 188.374 849.569 188.426 849.368 188.532C849.167 188.634 848.998 188.788 848.862 188.993C848.725 189.197 848.623 189.449 848.55 189.75C848.478 190.05 848.443 190.398 848.443 190.793V191.156C848.443 191.549 848.478 191.896 848.55 192.2C848.623 192.5 848.725 192.754 848.862 192.962C849.001 193.167 849.173 193.322 849.374 193.428C849.577 193.534 849.81 193.587 850.069 193.587C850.328 193.587 850.558 193.534 850.755 193.428C850.956 193.322 851.125 193.167 851.261 192.962C851.401 192.754 851.506 192.5 851.579 192.2C851.648 191.896 851.683 191.549 851.683 191.156ZM857.989 187.176H858.205V188.353H858.117C857.728 188.353 857.382 188.411 857.079 188.527C856.777 188.643 856.518 188.808 856.308 189.023C856.099 189.235 855.939 189.491 855.825 189.791C855.718 190.091 855.662 190.427 855.662 190.798V192.036C855.662 192.302 855.689 192.538 855.738 192.743C855.793 192.944 855.872 193.112 855.971 193.249C856.073 193.382 856.192 193.483 856.329 193.551C856.462 193.616 856.617 193.648 856.788 193.648C856.948 193.648 857.094 193.614 857.222 193.545C857.355 193.477 857.469 193.382 857.559 193.259C857.655 193.133 857.728 192.986 857.774 192.819C857.827 192.649 857.85 192.463 857.85 192.261C857.85 192.06 857.827 191.874 857.774 191.704C857.728 191.533 857.655 191.387 857.559 191.264C857.463 191.138 857.35 191.041 857.213 190.972C857.076 190.904 856.922 190.87 856.75 190.87C856.521 190.87 856.314 190.924 856.14 191.034C855.965 191.139 855.828 191.276 855.729 191.443C855.63 191.61 855.578 191.786 855.569 191.97L855.124 191.683C855.136 191.421 855.191 191.172 855.29 190.936C855.392 190.701 855.532 190.493 855.709 190.312C855.889 190.128 856.105 189.985 856.358 189.883C856.611 189.777 856.896 189.724 857.213 189.724C857.559 189.724 857.864 189.791 858.126 189.924C858.394 190.057 858.615 190.239 858.792 190.471C858.97 190.703 859.101 190.971 859.191 191.274C859.278 191.578 859.325 191.902 859.325 192.246C859.325 192.608 859.264 192.944 859.144 193.254C859.028 193.564 858.859 193.835 858.638 194.067C858.42 194.299 858.158 194.48 857.85 194.61C857.544 194.739 857.201 194.804 856.817 194.804C856.422 194.804 856.064 194.732 855.738 194.589C855.418 194.442 855.142 194.238 854.912 193.975C854.679 193.713 854.499 193.401 854.374 193.039C854.252 192.678 854.191 192.282 854.191 191.852V191.279C854.191 190.679 854.278 190.13 854.449 189.632C854.627 189.13 854.883 188.697 855.212 188.332C855.543 187.964 855.942 187.679 856.41 187.478C856.875 187.277 857.402 187.176 857.989 187.176Z" fill="white"/>
<path d="M853.149 432.476C872.909 432.476 888.927 416.449 888.927 396.679C888.927 376.909 872.909 360.882 853.149 360.882C833.39 360.882 817.371 376.909 817.371 396.679C817.371 416.449 833.39 432.476 853.149 432.476Z" fill="#2D3239" fill-opacity="0.8"/>
<path d="M851.168 400.23L853.184 401.828L852.216 402.666L850.232 401.071L851.168 400.23ZM853.234 397.439V397.791C853.234 398.356 853.158 398.865 853.004 399.316C852.853 399.764 852.637 400.148 852.355 400.466C852.07 400.78 851.739 401.021 851.352 401.187C850.968 401.353 850.54 401.438 850.069 401.438C849.601 401.438 849.173 401.353 848.786 401.187C848.396 401.021 848.062 400.78 847.78 400.466C847.495 400.148 847.276 399.764 847.119 399.316C846.965 398.865 846.89 398.356 846.89 397.791V397.439C846.89 396.868 846.965 396.359 847.119 395.914C847.276 395.463 847.495 395.079 847.774 394.761C848.053 394.444 848.388 394.203 848.774 394.037C849.164 393.868 849.592 393.783 850.06 393.783C850.528 393.783 850.956 393.868 851.343 394.037C851.73 394.203 852.067 394.444 852.349 394.761C852.631 395.079 852.85 395.463 853.004 395.914C853.158 396.359 853.234 396.868 853.234 397.439ZM851.683 397.791V397.427C851.683 397.031 851.648 396.685 851.573 396.382C851.5 396.083 851.395 395.832 851.256 395.626C851.119 395.422 850.95 395.268 850.75 395.166C850.549 395.061 850.319 395.009 850.06 395.009C849.798 395.009 849.569 395.061 849.368 395.166C849.167 395.268 848.998 395.422 848.862 395.626C848.725 395.832 848.623 396.083 848.55 396.382C848.478 396.685 848.443 397.031 848.443 397.427V397.791C848.443 398.184 848.478 398.53 848.55 398.833C848.623 399.136 848.725 399.389 848.862 399.595C849.001 399.802 849.173 399.956 849.374 400.061C849.577 400.169 849.81 400.221 850.069 400.221C850.328 400.221 850.558 400.169 850.755 400.061C850.956 399.956 851.125 399.802 851.261 399.595C851.401 399.389 851.506 399.136 851.579 398.833C851.648 398.53 851.683 398.184 851.683 397.791ZM859.246 393.888V394.68L856.369 401.336H854.813L857.693 395.038H853.987V393.888H859.246Z" fill="white"/>
<path d="M507.756 218.312C508.076 218.284 508.315 218.002 508.285 217.682L507.829 212.463C507.8 212.143 507.518 211.906 507.198 211.934C506.878 211.962 506.642 212.244 506.671 212.564L507.075 217.203L502.439 217.609C502.119 217.637 501.883 217.919 501.909 218.24C501.938 218.56 502.221 218.797 502.541 218.769L507.756 218.312ZM480.594 195.73L507.331 218.179L508.079 217.286L481.341 194.838L480.594 195.73Z" fill="#575B61"/>
<path d="M501.662 200.564V195.402H503.189V200.564C503.189 201.062 503.082 201.49 502.863 201.848C502.645 202.203 502.346 202.476 501.968 202.667C501.592 202.858 501.171 202.953 500.699 202.953C500.214 202.953 499.783 202.871 499.408 202.708C499.033 202.544 498.736 202.293 498.524 201.956C498.308 201.615 498.201 201.183 498.201 200.661H499.739C499.739 200.934 499.777 201.151 499.853 201.311C499.931 201.471 500.042 201.585 500.185 201.654C500.327 201.722 500.499 201.756 500.699 201.756C500.894 201.756 501.063 201.71 501.205 201.618C501.351 201.526 501.461 201.391 501.54 201.214C501.621 201.037 501.662 200.82 501.662 200.564Z" fill="#575B61"/>
<path d="M462.065 247.279L463.819 241.385H465.526L462.935 248.834H461.809L462.065 247.279ZM460.45 241.385L462.199 247.279L462.463 248.834H461.329L458.752 241.385H460.45Z" fill="#575B61"/>
<path d="M456.049 224.355C455.729 224.384 455.491 224.666 455.52 224.986L455.977 230.205C456.003 230.525 456.285 230.762 456.605 230.734C456.925 230.706 457.163 230.423 457.134 230.103L456.73 225.464L461.367 225.058C461.687 225.031 461.922 224.748 461.893 224.428C461.867 224.108 461.585 223.871 461.265 223.899L456.049 224.355ZM455.724 225.381L482.464 247.83L483.212 246.938L456.474 224.49L455.724 225.381Z" fill="#575B61"/>
<path d="M832.378 328.906C832.698 328.877 832.933 328.595 832.907 328.275L832.45 323.056C832.421 322.736 832.139 322.498 831.819 322.527C831.499 322.556 831.263 322.838 831.29 323.158L831.697 327.797L827.06 328.202C826.74 328.231 826.505 328.513 826.531 328.833C826.56 329.154 826.842 329.389 827.162 329.363L832.378 328.906ZM805.212 306.322L831.953 328.772L832.7 327.879L805.963 305.431L805.212 306.322Z" fill="#575B61"/>
<path d="M828.881 309.84V312.794C828.765 312.934 828.587 313.085 828.343 313.248C828.102 313.408 827.79 313.548 827.409 313.662C827.028 313.778 826.566 313.836 826.022 313.836C825.542 313.836 825.106 313.758 824.71 313.601C824.314 313.44 823.974 313.208 823.686 312.899C823.404 312.594 823.186 312.218 823.032 311.776C822.877 311.328 822.802 310.818 822.802 310.245V309.779C822.802 309.206 822.875 308.697 823.023 308.251C823.171 307.803 823.384 307.428 823.66 307.119C823.936 306.814 824.265 306.578 824.649 306.418C825.03 306.258 825.455 306.179 825.92 306.179C826.569 306.179 827.101 306.284 827.517 306.496C827.933 306.703 828.25 306.994 828.468 307.367C828.689 307.733 828.826 308.155 828.875 308.633H827.389C827.351 308.382 827.278 308.161 827.174 307.975C827.069 307.786 826.915 307.64 826.717 307.535C826.525 307.428 826.272 307.375 825.961 307.375C825.705 307.375 825.478 307.428 825.277 307.535C825.079 307.637 824.911 307.789 824.777 307.989C824.64 308.19 824.535 308.441 824.463 308.737C824.393 309.034 824.355 309.378 824.355 309.771V310.245C824.355 310.635 824.393 310.978 824.469 311.278C824.544 311.575 824.655 311.825 824.8 312.032C824.951 312.233 825.135 312.384 825.353 312.486C825.571 312.588 825.824 312.64 826.115 312.64C826.356 312.64 826.557 312.62 826.717 312.579C826.883 312.538 827.014 312.489 827.113 312.431C827.214 312.369 827.293 312.311 827.348 312.256V310.935H825.946V309.84H828.881Z" fill="#575B61"/>
<path d="M780.668 334.948C780.348 334.977 780.112 335.259 780.141 335.58L780.598 340.798C780.624 341.118 780.906 341.354 781.226 341.327C781.546 341.298 781.785 341.016 781.756 340.696L781.351 336.057L785.985 335.652C786.308 335.623 786.544 335.341 786.515 335.021C786.488 334.701 786.206 334.465 785.886 334.491L780.668 334.948ZM780.345 335.975L807.086 358.423L807.833 357.532L781.093 335.082L780.345 335.975Z" fill="#575B61"/>
<path d="M786.105 357.873L787.859 351.979H789.566L786.974 359.427H785.849L786.105 357.873ZM784.49 351.979L786.238 357.873L786.503 359.427H785.369L782.792 351.979H784.49Z" fill="#575B61"/>
<path d="M357.345 247.333C357.316 247.653 357.555 247.936 357.875 247.964L363.09 248.42C363.41 248.448 363.692 248.211 363.721 247.891C363.748 247.571 363.512 247.289 363.192 247.261L358.555 246.855L358.96 242.216C358.989 241.896 358.753 241.613 358.43 241.585C358.11 241.557 357.828 241.794 357.802 242.115L357.345 247.333ZM384.289 224.489L357.552 246.938L358.299 247.83L385.037 225.381L384.289 224.489Z" fill="#575B61"/>
<path d="M384.353 241.8V242.997H380.47V241.8H384.353ZM380.924 238.766V246.215H379.391V238.766H380.924ZM385.45 238.766V246.215H383.92V238.766H385.45Z" fill="#575B61"/>
<path d="M337.859 199.84L339.613 193.947H341.321L338.729 201.395H337.603L337.859 199.84ZM336.245 193.947L337.993 199.84L338.258 201.395H337.123L334.546 193.947H336.245Z" fill="#575B61"/>
<path d="M360.376 195.334C360.402 195.014 360.167 194.732 359.847 194.704L354.631 194.247C354.311 194.219 354.029 194.456 354 194.776C353.974 195.096 354.21 195.379 354.53 195.407L359.166 195.813L358.759 200.451C358.733 200.772 358.968 201.054 359.288 201.082C359.608 201.11 359.891 200.873 359.92 200.553L360.376 195.334ZM359.422 194.838L332.682 217.286L333.432 218.178L360.17 195.729L359.422 194.838Z" fill="#575B61"/>
<path d="M802.973 258.393C802.943 258.713 803.182 258.995 803.502 259.023L808.717 259.48C809.037 259.508 809.32 259.271 809.349 258.951C809.375 258.63 809.139 258.348 808.819 258.32L804.183 257.914L804.587 253.275C804.616 252.955 804.38 252.673 804.06 252.645C803.74 252.617 803.458 252.854 803.429 253.174L802.973 258.393ZM829.917 235.549L803.179 257.997L803.927 258.889L830.664 236.441L829.917 235.549Z" fill="#575B61"/>
<path d="M826.54 255.137L828.291 249.243H830.001L827.406 256.692H826.284L826.54 255.137ZM824.922 249.243L826.67 255.137L826.938 256.692H825.801L823.226 249.243H824.922Z" fill="#575B61"/>
<path d="M806.003 206.394C806.033 206.074 805.794 205.791 805.474 205.763L800.259 205.307C799.939 205.279 799.657 205.516 799.627 205.836C799.601 206.156 799.837 206.438 800.157 206.466L804.793 206.872L804.389 211.511C804.36 211.831 804.596 212.114 804.916 212.142C805.236 212.17 805.518 211.933 805.547 211.613L806.003 206.394ZM805.049 205.897L778.312 228.346L779.059 229.238L805.797 206.789L805.049 205.897Z" fill="#575B61"/>
<path d="M784.374 206.752V214.201H782.841V206.752H784.374ZM787.338 209.934V211.131H783.955V209.934H787.338ZM787.696 206.752V207.954H783.955V206.752H787.696Z" fill="#575B61"/>
<path d="M360.472 144.898C360.763 144.765 360.891 144.419 360.757 144.127L358.582 139.363C358.448 139.071 358.102 138.942 357.811 139.076C357.517 139.209 357.389 139.555 357.523 139.847L359.457 144.082L355.225 146.018C354.934 146.152 354.806 146.497 354.94 146.79C355.074 147.082 355.417 147.211 355.711 147.077L360.472 144.898ZM145.739 190.515C146.151 190.925 146.151 190.925 146.152 190.924C146.152 190.924 146.152 190.924 146.153 190.923C146.154 190.922 146.156 190.92 146.159 190.917C146.164 190.912 146.172 190.904 146.183 190.893C146.205 190.871 146.238 190.838 146.282 190.795C146.371 190.707 146.503 190.577 146.679 190.407C147.03 190.066 147.554 189.564 148.244 188.921C149.623 187.636 151.664 185.788 154.305 183.545C159.588 179.057 167.272 172.986 176.868 166.659C196.066 153.999 222.888 140.331 253.439 136.226L253.284 135.072C222.495 139.209 195.506 152.974 176.228 165.687C166.585 172.045 158.864 178.145 153.552 182.657C150.896 184.913 148.842 186.773 147.451 188.069C146.755 188.717 146.225 189.225 145.868 189.571C145.69 189.744 145.555 189.877 145.464 189.967C145.419 190.011 145.385 190.045 145.361 190.069C145.35 190.08 145.341 190.089 145.335 190.095C145.332 190.098 145.33 190.1 145.329 190.102C145.328 190.102 145.327 190.103 145.327 190.104C145.326 190.104 145.326 190.104 145.739 190.515ZM253.439 136.226C284.038 132.114 310.694 134.289 329.7 137.492C339.203 139.093 346.792 140.951 352.002 142.408C354.605 143.136 356.615 143.764 357.971 144.209C358.651 144.432 359.166 144.609 359.509 144.73C359.684 144.79 359.812 144.837 359.899 144.868C359.943 144.884 359.975 144.895 359.995 144.903C360.007 144.907 360.013 144.91 360.018 144.912C360.021 144.913 360.024 144.914 360.024 144.914C360.024 144.914 360.027 144.914 360.027 144.914C360.027 144.914 360.027 144.914 360.228 144.369C360.432 143.824 360.432 143.823 360.432 143.823C360.432 143.823 360.432 143.823 360.429 143.823C360.429 143.822 360.426 143.821 360.423 143.82C360.417 143.818 360.408 143.815 360.397 143.81C360.373 143.802 360.338 143.789 360.295 143.773C360.205 143.741 360.071 143.693 359.896 143.631C359.544 143.508 359.021 143.328 358.334 143.103C356.961 142.653 354.937 142.02 352.313 141.287C347.069 139.82 339.442 137.953 329.895 136.344C310.802 133.126 284.024 130.941 253.284 135.072L253.439 136.226Z" fill="#575B61"/>
<path d="M147.791 226.715C147.471 226.728 147.199 226.479 147.186 226.158L146.962 220.924C146.948 220.603 147.197 220.331 147.518 220.318C147.839 220.304 148.111 220.553 148.124 220.874L148.323 225.527L152.973 225.328C153.294 225.314 153.565 225.563 153.579 225.885C153.593 226.206 153.344 226.477 153.023 226.491L147.791 226.715ZM359.818 169.777C359.637 170.329 359.635 170.329 359.635 170.329C359.635 170.329 359.635 170.329 359.635 170.329C359.632 170.328 359.629 170.327 359.626 170.326C359.62 170.324 359.608 170.32 359.594 170.315C359.565 170.306 359.518 170.292 359.46 170.273C359.344 170.235 359.166 170.179 358.931 170.107C358.465 169.963 357.77 169.753 356.862 169.494C355.05 168.975 352.395 168.255 349.023 167.455C342.278 165.856 332.679 163.935 321.256 162.655C298.407 160.093 268.307 160.098 239.223 170.326L238.837 169.228C268.147 158.921 298.442 158.926 321.387 161.498C332.862 162.784 342.51 164.714 349.291 166.323C352.68 167.127 355.356 167.851 357.182 168.375C358.096 168.637 358.8 168.848 359.274 168.995C359.512 169.068 359.693 169.125 359.815 169.164C359.873 169.183 359.92 169.198 359.952 169.208C359.966 169.213 359.978 169.217 359.986 169.219C359.992 169.221 359.995 169.222 359.995 169.223C359.998 169.223 359.998 169.223 359.998 169.223C359.998 169.223 359.998 169.224 359.818 169.777ZM239.223 170.326C210.093 180.569 187.328 194.627 171.847 206.122C164.107 211.87 158.19 216.976 154.209 220.643C152.219 222.477 150.713 223.95 149.706 224.964C149.202 225.471 148.823 225.863 148.571 226.128C148.445 226.26 148.35 226.36 148.288 226.427C148.256 226.461 148.233 226.486 148.218 226.503C148.21 226.511 148.204 226.517 148.2 226.521C148.198 226.523 148.197 226.525 148.196 226.525C148.196 226.526 148.196 226.526 148.195 226.527C148.195 226.527 148.195 226.527 147.767 226.133C147.338 225.739 147.339 225.739 147.339 225.739C147.339 225.738 147.339 225.738 147.34 225.737C147.341 225.736 147.343 225.734 147.345 225.732C147.349 225.727 147.356 225.72 147.364 225.711C147.381 225.693 147.405 225.667 147.438 225.632C147.503 225.562 147.6 225.459 147.729 225.324C147.987 225.054 148.371 224.656 148.88 224.143C149.899 223.118 151.417 221.633 153.421 219.787C157.428 216.095 163.377 210.962 171.154 205.188C186.706 193.639 209.573 179.518 238.837 169.228L239.223 170.326Z" fill="#575B61"/>
<path d="M251.652 183.351H250.031L250.041 182.154H251.652C252.054 182.154 252.393 182.064 252.67 181.883C252.946 181.699 253.154 181.431 253.293 181.08C253.437 180.729 253.508 180.304 253.508 179.806V179.443C253.508 179.061 253.467 178.725 253.386 178.435C253.307 178.145 253.19 177.901 253.033 177.704C252.876 177.506 252.683 177.357 252.455 177.259C252.227 177.156 251.964 177.105 251.667 177.105H250.001V175.903H251.667C252.165 175.903 252.62 175.988 253.033 176.158C253.448 176.326 253.808 176.566 254.112 176.88C254.415 177.194 254.648 177.569 254.812 178.005C254.979 178.438 255.063 178.921 255.063 179.453V179.806C255.063 180.335 254.979 180.817 254.812 181.254C254.648 181.69 254.415 182.066 254.112 182.379C253.812 182.69 253.452 182.93 253.033 183.101C252.617 183.268 252.157 183.351 251.652 183.351ZM250.901 175.903V183.351H249.367V175.903H250.901Z" fill="#575B61"/>
<path d="M108.878 393.12H106.965L106.955 392.066H108.561C108.844 392.066 109.075 392.029 109.256 391.959C109.437 391.883 109.571 391.775 109.66 391.636C109.752 391.493 109.798 391.318 109.798 391.115C109.798 390.882 109.753 390.696 109.665 390.55C109.58 390.407 109.445 390.303 109.261 390.239C109.08 390.175 108.847 390.143 108.561 390.143H107.497V396.388H105.963V388.941H108.561C108.993 388.941 109.38 388.981 109.721 389.063C110.066 389.144 110.357 389.27 110.596 389.435C110.834 389.604 111.016 389.814 111.143 390.07C111.269 390.323 111.332 390.623 111.332 390.969C111.332 391.278 111.262 391.56 111.122 391.819C110.986 392.078 110.77 392.29 110.473 392.453C110.18 392.616 109.796 392.71 109.322 392.724L108.878 393.12ZM108.811 396.388H106.546L107.144 395.192H108.811C109.08 395.192 109.3 395.148 109.471 395.064C109.641 394.974 109.767 394.854 109.849 394.706C109.931 394.555 109.972 394.383 109.972 394.188C109.972 393.97 109.934 393.781 109.859 393.62C109.788 393.46 109.672 393.338 109.511 393.251C109.351 393.164 109.14 393.12 108.878 393.12H107.4L107.41 392.066H109.251L109.604 392.48C110.057 392.474 110.422 392.552 110.698 392.721C110.977 392.884 111.18 393.097 111.306 393.359C111.436 393.623 111.5 393.903 111.5 394.203C111.5 394.68 111.397 395.084 111.189 395.41C110.981 395.736 110.676 395.978 110.274 396.144C109.874 396.307 109.387 396.388 108.811 396.388Z" fill="#575B61"/>
<path d="M325.29 393.411H323.379L323.371 392.357H324.973C325.258 392.357 325.488 392.32 325.671 392.25C325.852 392.174 325.986 392.066 326.073 391.927C326.166 391.784 326.212 391.609 326.212 391.406C326.212 391.173 326.169 390.987 326.079 390.841C325.994 390.698 325.86 390.594 325.674 390.53C325.494 390.466 325.261 390.434 324.973 390.434H323.912V396.679H322.379V389.232H324.973C325.407 389.232 325.794 389.272 326.137 389.354C326.48 389.435 326.771 389.561 327.009 389.726C327.248 389.895 327.431 390.105 327.556 390.361C327.684 390.614 327.745 390.914 327.745 391.26C327.745 391.569 327.676 391.851 327.536 392.11C327.399 392.369 327.184 392.581 326.887 392.744C326.594 392.907 326.21 393.001 325.735 393.015L325.29 393.411ZM325.226 396.679H322.96L323.56 395.483H325.226C325.494 395.483 325.715 395.439 325.884 395.355C326.055 395.265 326.18 395.145 326.262 394.997C326.346 394.846 326.387 394.674 326.387 394.479C326.387 394.261 326.349 394.072 326.274 393.912C326.201 393.751 326.087 393.629 325.924 393.542C325.764 393.455 325.555 393.411 325.29 393.411H323.813L323.824 392.357H325.666L326.018 392.771C326.471 392.765 326.835 392.843 327.111 393.012C327.391 393.175 327.594 393.388 327.719 393.65C327.85 393.914 327.914 394.194 327.914 394.494C327.914 394.971 327.809 395.375 327.603 395.701C327.396 396.027 327.091 396.269 326.687 396.435C326.288 396.598 325.802 396.679 325.226 396.679Z" fill="#575B61"/>
<path d="M541.705 393.411H539.794L539.785 392.357H541.388C541.673 392.357 541.902 392.32 542.086 392.25C542.266 392.174 542.4 392.066 542.487 391.927C542.58 391.784 542.627 391.609 542.627 391.406C542.627 391.173 542.583 390.987 542.493 390.841C542.409 390.698 542.275 390.594 542.089 390.53C541.908 390.466 541.676 390.434 541.388 390.434H540.326V396.679H538.793V389.232H541.388C541.821 389.232 542.208 389.272 542.551 389.354C542.894 389.435 543.185 389.561 543.424 389.726C543.662 389.895 543.846 390.105 543.971 390.361C544.099 390.614 544.16 390.914 544.16 391.26C544.16 391.569 544.09 391.851 543.95 392.11C543.814 392.369 543.598 392.581 543.302 392.744C543.008 392.907 542.624 393.001 542.15 393.015L541.705 393.411ZM541.641 396.679H539.375L539.974 395.483H541.641C541.908 395.483 542.129 395.439 542.298 395.355C542.47 395.265 542.595 395.145 542.676 394.997C542.761 394.846 542.801 394.674 542.801 394.479C542.801 394.261 542.763 394.072 542.688 393.912C542.615 393.751 542.502 393.629 542.339 393.542C542.179 393.455 541.969 393.411 541.705 393.411H540.227L540.239 392.357H542.08L542.432 392.771C542.886 392.765 543.249 392.843 543.526 393.012C543.805 393.175 544.008 393.388 544.134 393.65C544.264 393.914 544.328 394.194 544.328 394.494C544.328 394.971 544.224 395.375 544.017 395.701C543.811 396.027 543.505 396.269 543.101 396.435C542.702 396.598 542.217 396.679 541.641 396.679Z" fill="#575B61"/>
<path d="M238.38 129.701L240.133 123.808H241.841L239.249 131.256H238.124L238.38 129.701ZM236.764 123.808L238.513 129.701L238.778 131.256H237.643L235.066 123.808H236.764Z" fill="#575B61"/>
<path d="M692.851 226.569C693.171 226.583 693.442 226.333 693.456 226.012L693.678 220.778C693.692 220.457 693.442 220.186 693.122 220.172C692.799 220.159 692.529 220.408 692.514 220.729L692.319 225.381L687.668 225.184C687.348 225.171 687.075 225.42 687.063 225.741C687.048 226.062 687.299 226.334 687.618 226.347L692.851 226.569ZM480.824 169.675C481.004 170.228 481.004 170.228 481.007 170.228C481.007 170.228 481.007 170.228 481.007 170.227C481.01 170.227 481.013 170.226 481.016 170.225C481.021 170.222 481.033 170.219 481.048 170.214C481.077 170.204 481.123 170.19 481.181 170.171C481.298 170.134 481.475 170.078 481.711 170.006C482.176 169.862 482.871 169.653 483.779 169.393C485.591 168.874 488.247 168.155 491.618 167.356C498.364 165.757 507.963 163.839 519.386 162.559C542.234 160 572.334 160.005 601.419 170.224L601.803 169.126C572.494 158.827 542.199 158.832 519.255 161.402C507.779 162.688 498.131 164.616 491.351 166.223C487.962 167.027 485.286 167.751 483.459 168.274C482.546 168.536 481.842 168.747 481.368 168.893C481.129 168.967 480.949 169.023 480.827 169.062C480.768 169.082 480.722 169.096 480.69 169.106C480.675 169.112 480.664 169.115 480.655 169.118C480.652 169.119 480.646 169.12 480.646 169.121C480.643 169.121 480.643 169.121 480.643 169.122C480.643 169.122 480.643 169.122 480.824 169.675ZM601.419 170.224C630.548 180.46 653.312 194.506 668.793 205.993C676.533 211.736 682.453 216.838 686.432 220.502C688.424 222.334 689.928 223.807 690.935 224.82C691.441 225.326 691.819 225.718 692.072 225.982C692.197 226.115 692.29 226.215 692.354 226.282C692.386 226.316 692.409 226.341 692.424 226.357C692.433 226.366 692.438 226.372 692.441 226.376C692.444 226.378 692.444 226.379 692.444 226.38C692.447 226.381 692.447 226.381 692.447 226.381C692.447 226.381 692.447 226.381 692.875 225.988C693.302 225.594 693.302 225.593 693.302 225.593C693.302 225.593 693.302 225.592 693.302 225.592C693.299 225.59 693.299 225.589 693.296 225.586C693.291 225.581 693.285 225.575 693.276 225.566C693.262 225.548 693.235 225.521 693.203 225.486C693.139 225.417 693.04 225.314 692.912 225.179C692.654 224.909 692.27 224.511 691.761 223.999C690.743 222.974 689.224 221.49 687.22 219.646C683.215 215.957 677.263 210.828 669.488 205.058C653.935 193.518 631.069 179.408 601.803 169.126L601.419 170.224Z" fill="#575B61"/>
<path d="M594.691 178.08V179.277H590.73V178.08H594.691ZM591.23 171.828V179.277H589.697V171.828H591.23ZM594.174 174.862V176.028H590.73V174.862H594.174ZM594.686 171.828V173.03H590.73V171.828H594.686Z" fill="#575B61"/>
<path d="M479.776 142.808C479.488 142.669 479.363 142.321 479.503 142.031L481.763 137.305C481.9 137.015 482.249 136.892 482.537 137.031C482.828 137.17 482.95 137.517 482.81 137.807L480.803 142.008L485.003 144.017C485.291 144.156 485.417 144.503 485.277 144.793C485.137 145.083 484.791 145.206 484.5 145.067L479.776 142.808ZM693.701 192.127C693.282 192.53 693.282 192.53 693.282 192.53C693.282 192.53 693.282 192.529 693.279 192.528C693.279 192.527 693.276 192.525 693.273 192.523C693.27 192.517 693.262 192.509 693.25 192.498C693.23 192.475 693.197 192.442 693.154 192.398C693.067 192.309 692.936 192.177 692.764 192.003C692.418 191.656 691.903 191.145 691.225 190.49C689.87 189.18 687.86 187.297 685.259 185.007C680.056 180.427 672.481 174.222 662.995 167.727C644.024 154.732 617.444 140.598 586.965 135.966L587.14 134.816C617.854 139.483 644.6 153.717 663.653 166.766C673.182 173.292 680.794 179.528 686.027 184.133C688.642 186.436 690.664 188.331 692.034 189.652C692.718 190.313 693.238 190.829 693.59 191.182C693.765 191.358 693.896 191.493 693.986 191.584C694.029 191.63 694.064 191.665 694.088 191.688C694.099 191.7 694.108 191.709 694.114 191.715C694.117 191.718 694.117 191.72 694.12 191.722C694.12 191.723 694.12 191.723 694.12 191.724C694.122 191.724 694.123 191.725 693.701 192.127ZM586.965 135.966C556.438 131.328 529.744 133.047 510.679 135.925C501.147 137.364 493.526 139.093 488.293 140.461C485.675 141.145 483.654 141.739 482.29 142.161C481.606 142.372 481.088 142.54 480.742 142.655C480.568 142.713 480.437 142.757 480.349 142.787C480.306 142.802 480.274 142.813 480.253 142.82C480.242 142.824 480.233 142.827 480.23 142.829C480.227 142.83 480.224 142.83 480.224 142.831C480.221 142.831 480.221 142.831 480.221 142.831C480.221 142.831 480.221 142.831 480.029 142.282C479.835 141.733 479.835 141.733 479.835 141.733C479.835 141.733 479.837 141.733 479.837 141.733C479.837 141.732 479.84 141.731 479.843 141.73C479.849 141.728 479.858 141.725 479.869 141.721C479.893 141.713 479.928 141.701 479.974 141.685C480.064 141.655 480.198 141.609 480.376 141.55C480.728 141.433 481.254 141.262 481.946 141.049C483.325 140.622 485.364 140.023 488 139.335C493.267 137.958 500.929 136.22 510.505 134.774C529.656 131.882 556.473 130.156 587.14 134.816L586.965 135.966Z" fill="#575B61"/>
<path d="M592.379 131.156L594.133 125.263H595.84L593.249 132.711H592.123L592.379 131.156ZM590.764 125.263L592.513 131.156L592.777 132.711H591.643L589.066 125.263H590.764Z" fill="#575B61"/>
<path d="M480.12 46.4452C479.893 46.6725 479.896 47.0412 480.123 47.2682L483.825 50.9696C484.055 51.1969 484.422 51.1966 484.649 50.969C484.876 50.7414 484.876 50.373 484.649 50.146L481.356 46.8559L484.643 43.5605C484.87 43.3332 484.87 42.9644 484.643 42.7374C484.416 42.5101 484.047 42.5104 483.82 42.738L480.12 46.4452ZM480.533 47.4385L853.731 47.1475V45.9833L480.533 46.2744V47.4385Z" fill="#575B61"/>
<path d="M0.582886 467.4V47.4385" stroke="#575B61"/>
<path d="M95.9177 467.4V318.973" stroke="#575B61"/>
<path d="M312.114 467.691V318.973" stroke="#575B61"/>
<path d="M528.528 467.4V318.973" stroke="#575B61"/>
<path d="M744.942 467.691V318.973" stroke="#575B61"/>
<path d="M853.149 468.273V432.476" stroke="#575B61"/>
<path d="M853.367 154.252V45.9827" stroke="#575B61"/>
<path d="M758.119 393.411H756.208L756.199 392.357H757.802C758.087 392.357 758.317 392.32 758.5 392.25C758.68 392.174 758.814 392.066 758.901 391.927C758.995 391.784 759.041 391.609 759.041 391.406C759.041 391.173 758.997 390.987 758.907 390.841C758.823 390.698 758.689 390.594 758.503 390.53C758.323 390.466 758.09 390.434 757.802 390.434H756.74V396.679H755.207V389.232H757.802C758.235 389.232 758.622 389.272 758.965 389.354C759.309 389.435 759.6 389.561 759.838 389.726C760.077 389.895 760.26 390.105 760.385 390.361C760.513 390.614 760.574 390.914 760.574 391.26C760.574 391.569 760.504 391.851 760.365 392.11C760.228 392.369 760.013 392.581 759.716 392.744C759.422 392.907 759.038 393.001 758.564 393.015L758.119 393.411ZM758.055 396.679H755.789L756.388 395.483H758.055C758.323 395.483 758.544 395.439 758.712 395.355C758.884 395.265 759.009 395.145 759.091 394.997C759.175 394.846 759.216 394.674 759.216 394.479C759.216 394.261 759.178 394.072 759.102 393.912C759.029 393.751 758.916 393.629 758.753 393.542C758.593 393.455 758.384 393.411 758.119 393.411H756.641L756.653 392.357H758.494L758.846 392.771C759.3 392.765 759.664 392.843 759.94 393.012C760.219 393.175 760.423 393.388 760.548 393.65C760.679 393.914 760.743 394.194 760.743 394.494C760.743 394.971 760.638 395.375 760.432 395.701C760.225 396.027 759.92 396.269 759.515 396.435C759.117 396.598 758.631 396.679 758.055 396.679Z" fill="#575B61"/>
<path d="M866.326 451.909H864.415L864.406 450.855H866.009C866.294 450.855 866.524 450.817 866.707 450.748C866.887 450.672 867.021 450.564 867.109 450.424C867.202 450.282 867.248 450.107 867.248 449.904C867.248 449.671 867.205 449.484 867.114 449.339C867.03 449.196 866.896 449.092 866.71 449.027C866.53 448.963 866.297 448.931 866.009 448.931H864.947V455.177H863.414V447.729H866.009C866.442 447.729 866.829 447.77 867.173 447.852C867.516 447.933 867.807 448.058 868.045 448.224C868.284 448.393 868.467 448.603 868.592 448.859C868.72 449.112 868.781 449.412 868.781 449.758C868.781 450.066 868.711 450.349 868.572 450.608C868.435 450.867 868.22 451.079 867.923 451.242C867.629 451.405 867.245 451.498 866.771 451.513L866.326 451.909ZM866.262 455.177H863.996L864.595 453.981H866.262C866.53 453.981 866.751 453.937 866.919 453.853C867.091 453.763 867.216 453.643 867.298 453.495C867.382 453.344 867.423 453.172 867.423 452.977C867.423 452.759 867.385 452.569 867.309 452.409C867.236 452.249 867.123 452.127 866.96 452.04C866.8 451.952 866.591 451.909 866.326 451.909H864.848L864.86 450.855H866.701L867.053 451.268C867.507 451.263 867.871 451.341 868.147 451.51C868.426 451.673 868.63 451.885 868.755 452.147C868.886 452.412 868.95 452.692 868.95 452.991C868.95 453.469 868.845 453.873 868.639 454.199C868.432 454.525 868.127 454.767 867.722 454.933C867.324 455.096 866.838 455.177 866.262 455.177Z" fill="#575B61"/>
</g>
<defs>
<clipPath id="clip0_1_1905">
<rect width="888.927" height="468.565" fill="white"/>
</clipPath>
</defs>
</svg>
