<svg width="889" height="469" viewBox="0 0 889 469" fill="none" xmlns="http://www.w3.org/2000/svg">
<g clip-path="url(#clip0_44_1833)">
<path d="M439.11 132.249C439.337 132.476 439.703 132.476 439.93 132.249L443.633 128.544C443.86 128.317 443.86 127.949 443.633 127.721C443.406 127.494 443.037 127.494 442.81 127.721L439.52 131.014L436.23 127.721C436.003 127.494 435.634 127.494 435.407 127.721C435.18 127.949 435.18 128.317 435.407 128.544L439.11 132.249ZM438.938 96.9133V131.837H440.102V96.9133H438.938Z" fill="#575B61"/>
<path d="M446.827 115.397H448.357C448.325 115.898 448.188 116.343 447.941 116.732C447.699 117.121 447.362 117.424 446.926 117.643C446.492 117.861 445.969 117.97 445.361 117.97C444.884 117.97 444.453 117.888 444.075 117.724C443.697 117.557 443.374 117.318 443.103 117.008C442.839 116.698 442.635 116.322 442.496 115.883C442.356 115.443 442.286 114.95 442.286 114.404V113.887C442.286 113.342 442.359 112.849 442.501 112.409C442.647 111.966 442.856 111.589 443.124 111.278C443.397 110.968 443.723 110.729 444.101 110.562C444.479 110.395 444.904 110.312 445.369 110.312C445.989 110.312 446.513 110.424 446.94 110.649C447.368 110.874 447.702 111.185 447.938 111.58C448.176 111.976 448.319 112.426 448.366 112.931H446.833C446.815 112.631 446.757 112.377 446.652 112.169C446.55 111.957 446.396 111.798 446.187 111.693C445.983 111.584 445.71 111.529 445.369 111.529C445.113 111.529 444.89 111.577 444.7 111.672C444.508 111.768 444.348 111.913 444.22 112.107C444.09 112.302 443.994 112.547 443.927 112.844C443.866 113.137 443.837 113.482 443.837 113.877V114.404C443.837 114.79 443.866 115.129 443.924 115.422C443.982 115.712 444.069 115.958 444.189 116.159C444.311 116.357 444.468 116.507 444.66 116.609C444.855 116.708 445.087 116.758 445.361 116.758C445.681 116.758 445.945 116.706 446.152 116.604C446.361 116.502 446.518 116.35 446.629 116.149C446.739 115.947 446.806 115.697 446.827 115.397Z" fill="#575B61"/>
<path d="M401.243 96.5018C401.016 96.2745 400.65 96.2745 400.423 96.5018L396.72 100.206C396.493 100.433 396.493 100.802 396.72 101.029C396.947 101.256 397.316 101.256 397.543 101.029L400.833 97.7364L404.123 101.029C404.35 101.256 404.719 101.256 404.946 101.029C405.173 100.802 405.173 100.433 404.946 100.206L401.243 96.5018ZM400.251 96.9133V131.837H401.415V96.9133H400.251Z" fill="#575B61"/>
<path d="M395.394 114.599H393.483L393.474 113.545H395.077C395.362 113.545 395.591 113.509 395.775 113.437C395.955 113.362 396.089 113.255 396.176 113.115C396.269 112.972 396.316 112.798 396.316 112.593C396.316 112.361 396.272 112.174 396.182 112.03C396.098 111.887 395.964 111.783 395.778 111.718C395.597 111.653 395.365 111.621 395.077 111.621H394.015V117.868H392.482V110.419H395.077C395.51 110.419 395.897 110.46 396.24 110.542C396.583 110.624 396.874 110.748 397.113 110.915C397.351 111.082 397.535 111.294 397.66 111.55C397.788 111.802 397.849 112.102 397.849 112.45C397.849 112.757 397.779 113.04 397.639 113.299C397.503 113.558 397.287 113.77 396.991 113.933C396.697 114.097 396.313 114.188 395.839 114.205L395.394 114.599ZM395.33 117.868H393.064L393.663 116.671H395.33C395.597 116.671 395.818 116.628 395.987 116.543C396.159 116.454 396.284 116.334 396.365 116.185C396.45 116.034 396.49 115.862 396.49 115.668C396.49 115.449 396.452 115.26 396.377 115.1C396.304 114.94 396.191 114.817 396.028 114.732C395.868 114.643 395.658 114.599 395.394 114.599H393.916L393.928 113.545H395.769L396.121 113.959C396.575 113.952 396.938 114.032 397.215 114.199C397.494 114.363 397.697 114.576 397.822 114.839C397.953 115.102 398.017 115.383 398.017 115.683C398.017 116.161 397.913 116.563 397.706 116.891C397.5 117.215 397.194 117.458 396.79 117.622C396.391 117.786 395.906 117.868 395.33 117.868Z" fill="#575B61"/>
<path d="M863.42 100.338H861.509L861.5 99.2841H863.103C863.388 99.2841 863.618 99.2483 863.801 99.1767C863.981 99.1019 864.115 98.9942 864.202 98.8545C864.296 98.7113 864.342 98.5373 864.342 98.3327C864.342 98.1007 864.298 97.9133 864.208 97.7698C864.124 97.6266 863.99 97.5227 863.804 97.4578C863.624 97.3929 863.391 97.3606 863.103 97.3606H862.041V103.607H860.508V96.1584H863.103C863.536 96.1584 863.923 96.1994 864.266 96.2812C864.61 96.363 864.901 96.4875 865.139 96.6546C865.378 96.8219 865.561 97.0332 865.686 97.289C865.814 97.5414 865.875 97.8414 865.875 98.1895C865.875 98.4962 865.805 98.7794 865.666 99.0387C865.529 99.2977 865.314 99.5093 865.017 99.6729C864.723 99.8367 864.339 99.9269 863.865 99.9441L863.42 100.338ZM863.356 103.607H861.09L861.689 102.41H863.356C863.624 102.41 863.845 102.367 864.013 102.282C864.185 102.193 864.31 102.074 864.392 101.924C864.476 101.774 864.517 101.602 864.517 101.407C864.517 101.189 864.479 101 864.403 100.839C864.33 100.679 864.217 100.556 864.054 100.471C863.894 100.382 863.685 100.338 863.42 100.338H861.942L861.954 99.2841H863.795L864.147 99.6985C864.601 99.6918 864.965 99.7718 865.241 99.9389C865.52 100.103 865.724 100.316 865.849 100.579C865.98 100.841 866.044 101.122 866.044 101.423C866.044 101.9 865.939 102.303 865.732 102.63C865.526 102.954 865.221 103.198 864.816 103.361C864.418 103.525 863.932 103.607 863.356 103.607Z" fill="#575B61"/>
<path d="M0 467.885H853.733" stroke="#575B61"/>
<path d="M360.52 47.2675C360.75 47.0402 360.75 46.6718 360.52 46.4445L356.82 42.7402C356.593 42.5129 356.224 42.5129 355.997 42.7402C355.77 42.9675 355.77 43.336 355.997 43.5633L359.287 46.856L355.997 50.1487C355.77 50.376 355.77 50.7445 355.997 50.9718C356.224 51.1991 356.593 51.1991 356.82 50.9718L360.52 47.2675ZM0 47.4381H360.11V46.2739H0V47.4381Z" fill="#575B61"/>
<path d="M420.322 91.9658C445.704 91.9658 466.281 71.3786 466.281 45.9829C466.281 20.5872 445.704 0 420.322 0C394.939 0 374.363 20.5872 374.363 45.9829C374.363 71.3786 394.939 91.9658 420.322 91.9658Z" fill="#2D3239" fill-opacity="0.1"/>
<path d="M420.322 81.7797C440.082 81.7797 456.1 65.753 456.1 45.9829C456.1 26.2129 440.082 10.1861 420.322 10.1861C400.562 10.1861 384.543 26.2129 384.543 45.9829C384.543 65.753 400.562 81.7797 420.322 81.7797Z" fill="#575B61"/>
<path d="M418.341 49.5344L420.357 51.1307L419.388 51.9694L417.404 50.3734L418.341 49.5344ZM420.406 46.7411V47.0941C420.406 47.6604 420.33 48.1686 420.176 48.6188C420.025 49.069 419.81 49.4526 419.528 49.7698C419.243 50.0836 418.911 50.3239 418.524 50.491C418.14 50.6581 417.713 50.7419 417.241 50.7419C416.773 50.7419 416.345 50.6581 415.959 50.491C415.569 50.3239 415.234 50.0836 414.952 49.7698C414.667 49.4526 414.449 49.069 414.292 48.6188C414.138 48.1686 414.062 47.6604 414.062 47.0941V46.7411C414.062 46.1715 414.138 45.6634 414.292 45.2166C414.449 44.7664 414.667 44.3828 414.946 44.0656C415.226 43.7484 415.56 43.5063 415.947 43.3392C416.337 43.1722 416.764 43.0886 417.233 43.0886C417.701 43.0886 418.129 43.1722 418.515 43.3392C418.902 43.5063 419.24 43.7484 419.522 44.0656C419.804 44.3828 420.022 44.7664 420.176 45.2166C420.33 45.6634 420.406 46.1715 420.406 46.7411ZM418.856 47.0941V46.7309C418.856 46.3354 418.821 45.9876 418.745 45.6872C418.672 45.3872 418.568 45.1349 418.428 44.9303C418.291 44.7257 418.123 44.572 417.922 44.4699C417.721 44.3642 417.491 44.3112 417.233 44.3112C416.971 44.3112 416.741 44.3642 416.54 44.4699C416.34 44.572 416.171 44.7257 416.034 44.9303C415.897 45.1349 415.796 45.3872 415.723 45.6872C415.65 45.9876 415.615 46.3354 415.615 46.7309V47.0941C415.615 47.4864 415.65 47.8342 415.723 48.1377C415.796 48.4381 415.897 48.6921 416.034 48.8999C416.174 49.1048 416.345 49.2599 416.546 49.3656C416.75 49.4712 416.982 49.5242 417.241 49.5242C417.5 49.5242 417.73 49.4712 417.928 49.3656C418.129 49.2599 418.297 49.1048 418.434 48.8999C418.574 48.6921 418.678 48.4381 418.751 48.1377C418.821 47.8342 418.856 47.4864 418.856 47.0941ZM426.372 46.2603V47.5495C426.372 48.1089 426.314 48.5914 426.195 48.9971C426.075 49.3996 425.904 49.7305 425.677 49.9898C425.456 50.2454 425.191 50.4348 424.886 50.5576C424.577 50.6805 424.237 50.7419 423.862 50.7419C423.562 50.7419 423.283 50.7043 423.024 50.6292C422.765 50.5507 422.532 50.4296 422.323 50.266C422.119 50.1022 421.942 49.8958 421.791 49.647C421.645 49.3947 421.532 49.0943 421.453 48.7466C421.375 48.3988 421.337 47.9998 421.337 47.5495V46.2603C421.337 45.7009 421.398 45.2219 421.517 44.8229C421.639 44.4204 421.811 44.0912 422.032 43.8354C422.256 43.5796 422.524 43.3922 422.829 43.2728C423.137 43.15 423.478 43.0886 423.853 43.0886C424.153 43.0886 424.429 43.1276 424.685 43.2062C424.944 43.2813 425.179 43.3989 425.386 43.5592C425.595 43.7196 425.773 43.9259 425.918 44.1782C426.064 44.4271 426.177 44.7257 426.256 45.0735C426.334 45.418 426.372 45.8135 426.372 46.2603ZM424.894 47.744V46.0609C424.894 45.7914 424.88 45.556 424.851 45.3549C424.822 45.1535 424.781 44.9829 424.723 44.8433C424.665 44.7001 424.592 44.5839 424.508 44.4955C424.423 44.4067 424.324 44.3418 424.217 44.3011C424.106 44.26 423.987 44.2397 423.853 44.2397C423.684 44.2397 423.536 44.272 423.408 44.3369C423.283 44.4015 423.175 44.5057 423.085 44.6488C422.998 44.7885 422.928 44.9763 422.882 45.2117C422.838 45.4434 422.815 45.7265 422.815 46.0609V47.744C422.815 48.0135 422.829 48.2504 422.855 48.4549C422.887 48.6595 422.931 48.8353 422.989 48.982C423.05 49.1252 423.12 49.2428 423.204 49.335C423.289 49.4235 423.385 49.4884 423.495 49.5294C423.606 49.5702 423.731 49.5905 423.862 49.5905C424.028 49.5905 424.17 49.5582 424.298 49.4933C424.426 49.4252 424.537 49.3196 424.624 49.1764C424.717 49.0297 424.784 48.8385 424.83 48.6034C424.874 48.3679 424.894 48.0816 424.894 47.744Z" fill="white"/>
<path d="M454.1 169.671C454.1 188.337 438.976 203.468 420.322 203.468C401.667 203.468 386.543 188.337 386.543 169.671C386.543 151.004 401.667 135.874 420.322 135.874C438.976 135.874 454.1 151.004 454.1 169.671Z" fill="#13AB7E" fill-opacity="0.7" stroke="#13AB7E" stroke-width="4"/>
<path d="M418.341 173.223L420.357 174.819L419.388 175.658L417.404 174.062L418.341 173.223ZM420.406 170.429V170.782C420.406 171.349 420.33 171.857 420.176 172.307C420.025 172.757 419.81 173.141 419.528 173.458C419.243 173.772 418.911 174.012 418.524 174.179C418.14 174.346 417.713 174.43 417.241 174.43C416.773 174.43 416.345 174.346 415.959 174.179C415.569 174.012 415.234 173.772 414.952 173.458C414.667 173.141 414.449 172.757 414.292 172.307C414.138 171.857 414.062 171.349 414.062 170.782V170.429C414.062 169.86 414.138 169.352 414.292 168.905C414.449 168.455 414.667 168.071 414.946 167.754C415.226 167.437 415.56 167.194 415.947 167.027C416.337 166.86 416.764 166.777 417.233 166.777C417.701 166.777 418.129 166.86 418.515 167.027C418.902 167.194 419.24 167.437 419.522 167.754C419.804 168.071 420.022 168.455 420.176 168.905C420.33 169.352 420.406 169.86 420.406 170.429ZM418.856 170.782V170.419C418.856 170.024 418.821 169.676 418.745 169.375C418.672 169.075 418.568 168.823 418.428 168.618C418.291 168.414 418.123 168.26 417.922 168.158C417.721 168.052 417.491 167.999 417.233 167.999C416.971 167.999 416.741 168.052 416.54 168.158C416.34 168.26 416.171 168.414 416.034 168.618C415.897 168.823 415.796 169.075 415.723 169.375C415.65 169.676 415.615 170.024 415.615 170.419V170.782C415.615 171.175 415.65 171.522 415.723 171.826C415.796 172.126 415.897 172.38 416.034 172.588C416.174 172.793 416.345 172.948 416.546 173.054C416.75 173.159 416.982 173.212 417.241 173.212C417.5 173.212 417.73 173.159 417.928 173.054C418.129 172.948 418.297 172.793 418.434 172.588C418.574 172.38 418.678 172.126 418.751 171.826C418.821 171.522 418.856 171.175 418.856 170.782ZM424.953 166.864V174.328H423.481V168.562L421.709 169.125V167.964L424.793 166.864H424.953Z" fill="white"/>
<path d="M95.6994 318.388C115.138 318.388 130.896 302.622 130.896 283.173C130.896 263.724 115.138 247.958 95.6994 247.958C76.2609 247.958 60.5029 263.724 60.5029 283.173C60.5029 302.622 76.2609 318.388 95.6994 318.388Z" fill="#575B61"/>
<path d="M93.7184 286.725L95.733 288.321L94.7667 289.16L92.7829 287.564L93.7184 286.725ZM95.7842 283.931V284.284C95.7842 284.851 95.7074 285.359 95.5541 285.809C95.404 286.259 95.1876 286.643 94.9049 286.96C94.6219 287.274 94.2876 287.514 93.9025 287.681C93.5174 287.848 93.0895 287.932 92.6192 287.932C92.1523 287.932 91.7244 287.848 91.3358 287.681C90.9472 287.514 90.6115 287.274 90.3285 286.96C90.0455 286.643 89.8258 286.259 89.6691 285.809C89.5155 285.359 89.439 284.851 89.439 284.284V283.931C89.439 283.362 89.5155 282.854 89.6691 282.407C89.8258 281.957 90.044 281.573 90.3235 281.256C90.6031 280.939 90.937 280.697 91.3256 280.53C91.7142 280.362 92.1421 280.279 92.609 280.279C93.0793 280.279 93.5072 280.362 93.8923 280.53C94.281 280.697 94.6166 280.939 94.8997 281.256C95.1827 281.573 95.4008 281.957 95.5541 282.407C95.7074 282.854 95.7842 283.362 95.7842 283.931ZM94.235 284.284V283.921C94.235 283.526 94.1975 283.178 94.1224 282.878C94.0509 282.577 93.9453 282.325 93.8054 282.121C93.6692 281.916 93.5002 281.762 93.2992 281.66C93.0982 281.555 92.8682 281.502 92.609 281.502C92.3498 281.502 92.1197 281.555 91.9187 281.66C91.7177 281.762 91.5487 281.916 91.4126 282.121C91.2762 282.325 91.1723 282.577 91.1005 282.878C91.0289 283.178 90.9931 283.526 90.9931 283.921V284.284C90.9931 284.677 91.0289 285.024 91.1005 285.328C91.1723 285.628 91.2762 285.882 91.4126 286.09C91.5522 286.295 91.7227 286.45 91.924 286.556C92.1284 286.662 92.3603 286.715 92.6192 286.715C92.8783 286.715 93.1067 286.662 93.3045 286.556C93.5055 286.45 93.6742 286.295 93.8106 286.09C93.9502 285.882 94.0561 285.628 94.1277 285.328C94.1992 285.024 94.235 284.677 94.235 284.284ZM101.833 286.679V287.83H96.7404V286.847L99.1485 284.264C99.3906 283.995 99.5817 283.758 99.7213 283.553C99.8612 283.345 99.9616 283.159 100.023 282.995C100.088 282.828 100.12 282.67 100.12 282.52C100.12 282.294 100.083 282.102 100.008 281.942C99.9328 281.778 99.8219 281.651 99.6753 281.563C99.5322 281.474 99.3548 281.43 99.1436 281.43C98.9185 281.43 98.7242 281.484 98.5607 281.594C98.4004 281.703 98.2777 281.855 98.1924 282.049C98.1107 282.243 98.0697 282.463 98.0697 282.709H96.592C96.592 282.265 96.6979 281.86 96.9091 281.491C97.1205 281.119 97.4187 280.825 97.8038 280.606C98.1892 280.385 98.6459 280.274 99.1741 280.274C99.6957 280.274 100.136 280.359 100.493 280.53C100.855 280.697 101.127 280.939 101.312 281.256C101.499 281.57 101.593 281.945 101.593 282.381C101.593 282.627 101.554 282.867 101.475 283.103C101.397 283.335 101.284 283.567 101.138 283.798C100.994 284.027 100.821 284.259 100.616 284.494C100.412 284.73 100.185 284.974 99.936 285.226L98.6424 286.679H101.833Z" fill="white"/>
<path d="M312.115 318.97C331.874 318.97 347.893 302.943 347.893 283.173C347.893 263.403 331.874 247.376 312.115 247.376C292.355 247.376 276.336 263.403 276.336 283.173C276.336 302.943 292.355 318.97 312.115 318.97Z" fill="#2D3239" fill-opacity="0.8"/>
<path d="M310.133 286.725L312.149 288.321L311.181 289.16L309.197 287.564L310.133 286.725ZM312.199 283.931V284.284C312.199 284.851 312.123 285.359 311.969 285.809C311.818 286.259 311.602 286.643 311.32 286.96C311.035 287.274 310.703 287.514 310.317 287.681C309.933 287.848 309.505 287.932 309.034 287.932C308.566 287.932 308.138 287.848 307.751 287.681C307.361 287.514 307.027 287.274 306.745 286.96C306.46 286.643 306.241 286.259 306.084 285.809C305.93 285.359 305.854 284.851 305.854 284.284V283.931C305.854 283.362 305.93 282.854 306.084 282.407C306.241 281.957 306.46 281.573 306.739 281.256C307.018 280.939 307.353 280.697 307.739 280.53C308.129 280.362 308.557 280.279 309.025 280.279C309.493 280.279 309.921 280.362 310.308 280.53C310.695 280.697 311.032 280.939 311.314 281.256C311.596 281.573 311.815 281.957 311.969 282.407C312.123 282.854 312.199 283.362 312.199 283.931ZM310.648 284.284V283.921C310.648 283.526 310.613 283.178 310.538 282.878C310.465 282.577 310.36 282.325 310.221 282.121C310.084 281.916 309.915 281.762 309.714 281.66C309.514 281.555 309.284 281.502 309.025 281.502C308.763 281.502 308.534 281.555 308.333 281.66C308.132 281.762 307.963 281.916 307.827 282.121C307.69 282.325 307.588 282.577 307.515 282.878C307.443 283.178 307.408 283.526 307.408 283.921V284.284C307.408 284.677 307.443 285.024 307.515 285.328C307.588 285.628 307.69 285.882 307.827 286.09C307.966 286.295 308.138 286.45 308.339 286.556C308.542 286.662 308.775 286.715 309.034 286.715C309.293 286.715 309.523 286.662 309.72 286.556C309.921 286.45 310.09 286.295 310.226 286.09C310.366 285.882 310.471 285.628 310.543 285.328C310.613 285.024 310.648 284.677 310.648 284.284ZM314.662 283.466H315.451C315.704 283.466 315.91 283.423 316.076 283.338C316.239 283.249 316.358 283.127 316.437 282.97C316.518 282.809 316.562 282.623 316.562 282.412C316.562 282.221 316.524 282.052 316.448 281.906C316.376 281.756 316.265 281.639 316.117 281.558C315.965 281.472 315.776 281.43 315.547 281.43C315.366 281.43 315.2 281.466 315.046 281.537C314.892 281.609 314.77 281.71 314.68 281.839C314.587 281.969 314.54 282.126 314.54 282.31H313.063C313.063 281.901 313.173 281.544 313.391 281.24C313.612 280.937 313.909 280.7 314.281 280.53C314.651 280.359 315.061 280.274 315.506 280.274C316.012 280.274 316.454 280.355 316.832 280.519C317.21 280.68 317.504 280.917 317.717 281.23C317.926 281.544 318.034 281.933 318.034 282.397C318.034 282.632 317.978 282.861 317.871 283.082C317.76 283.301 317.603 283.498 317.4 283.676C317.199 283.85 316.952 283.99 316.664 284.095C316.373 284.198 316.047 284.249 315.686 284.249H314.662V283.466ZM314.662 284.586V283.824H315.686C316.091 283.824 316.448 283.87 316.754 283.962C317.062 284.054 317.318 284.187 317.528 284.361C317.734 284.532 317.891 284.735 317.996 284.97C318.103 285.202 318.156 285.459 318.156 285.742C318.156 286.09 318.089 286.401 317.955 286.673C317.824 286.943 317.635 287.171 317.394 287.359C317.155 287.547 316.876 287.69 316.556 287.789C316.236 287.884 315.884 287.932 315.506 287.932C315.195 287.932 314.886 287.889 314.581 287.804C314.281 287.715 314.008 287.584 313.764 287.41C313.522 287.233 313.327 287.011 313.182 286.745C313.036 286.476 312.967 286.157 312.967 285.788H314.444C314.444 285.98 314.491 286.15 314.587 286.3C314.683 286.45 314.814 286.568 314.979 286.653C315.151 286.738 315.34 286.781 315.547 286.781C315.782 286.781 315.983 286.738 316.152 286.653C316.32 286.564 316.451 286.442 316.539 286.285C316.632 286.125 316.678 285.939 316.678 285.727C316.678 285.454 316.629 285.236 316.53 285.072C316.431 284.905 316.288 284.782 316.105 284.704C315.922 284.625 315.704 284.586 315.451 284.586H314.662Z" fill="white"/>
<path d="M528.529 318.97C548.289 318.97 564.308 302.943 564.308 283.173C564.308 263.403 548.289 247.376 528.529 247.376C508.769 247.376 492.751 263.403 492.751 283.173C492.751 302.943 508.769 318.97 528.529 318.97Z" fill="#2D3239" fill-opacity="0.8"/>
<path d="M526.548 286.725L528.564 288.321L527.596 289.16L525.612 287.564L526.548 286.725ZM528.614 283.931V284.284C528.614 284.851 528.538 285.359 528.384 285.809C528.233 286.259 528.017 286.643 527.735 286.96C527.45 287.274 527.118 287.514 526.732 287.681C526.348 287.848 525.92 287.932 525.449 287.932C524.981 287.932 524.553 287.848 524.166 287.681C523.776 287.514 523.442 287.274 523.16 286.96C522.875 286.643 522.656 286.259 522.499 285.809C522.345 285.359 522.27 284.851 522.27 284.284V283.931C522.27 283.362 522.345 282.854 522.499 282.407C522.656 281.957 522.875 281.573 523.154 281.256C523.433 280.939 523.768 280.697 524.154 280.53C524.544 280.362 524.972 280.279 525.44 280.279C525.908 280.279 526.336 280.362 526.723 280.53C527.11 280.697 527.447 280.939 527.729 281.256C528.012 281.573 528.23 281.957 528.384 282.407C528.538 282.854 528.614 283.362 528.614 283.931ZM527.063 284.284V283.921C527.063 283.526 527.028 283.178 526.953 282.878C526.88 282.577 526.775 282.325 526.636 282.121C526.499 281.916 526.33 281.762 526.13 281.66C525.929 281.555 525.699 281.502 525.44 281.502C525.178 281.502 524.949 281.555 524.748 281.66C524.547 281.762 524.378 281.916 524.242 282.121C524.105 282.325 524.003 282.577 523.93 282.878C523.858 283.178 523.823 283.526 523.823 283.921V284.284C523.823 284.677 523.858 285.024 523.93 285.328C524.003 285.628 524.105 285.882 524.242 286.09C524.381 286.295 524.553 286.45 524.754 286.556C524.957 286.662 525.19 286.715 525.449 286.715C525.708 286.715 525.938 286.662 526.135 286.556C526.336 286.45 526.505 286.295 526.641 286.09C526.781 285.882 526.886 285.628 526.959 285.328C527.028 285.024 527.063 284.677 527.063 284.284ZM534.786 285.047V286.203H529.422L529.35 285.308L532.453 280.381H533.626L532.357 282.504L530.813 285.047H534.786ZM533.943 280.381V287.83H532.468V280.381H533.943Z" fill="white"/>
<path d="M744.944 318.97C764.704 318.97 780.723 302.943 780.723 283.173C780.723 263.403 764.704 247.376 744.944 247.376C725.184 247.376 709.166 263.403 709.166 283.173C709.166 302.943 725.184 318.97 744.944 318.97Z" fill="#2D3239" fill-opacity="0.8"/>
<path d="M742.963 286.725L744.979 288.321L744.011 289.16L742.027 287.564L742.963 286.725ZM745.029 283.931V284.284C745.029 284.851 744.953 285.359 744.799 285.809C744.648 286.259 744.432 286.643 744.15 286.96C743.865 287.274 743.534 287.514 743.147 287.681C742.763 287.848 742.335 287.932 741.864 287.932C741.396 287.932 740.968 287.848 740.581 287.681C740.191 287.514 739.857 287.274 739.575 286.96C739.29 286.643 739.071 286.259 738.914 285.809C738.76 285.359 738.685 284.851 738.685 284.284V283.931C738.685 283.362 738.76 282.854 738.914 282.407C739.071 281.957 739.29 281.573 739.569 281.256C739.848 280.939 740.183 280.697 740.569 280.53C740.959 280.362 741.387 280.279 741.855 280.279C742.323 280.279 742.751 280.362 743.138 280.53C743.525 280.697 743.862 280.939 744.144 281.256C744.427 281.573 744.645 281.957 744.799 282.407C744.953 282.854 745.029 283.362 745.029 283.931ZM743.478 284.284V283.921C743.478 283.526 743.443 283.178 743.368 282.878C743.295 282.577 743.19 282.325 743.051 282.121C742.914 281.916 742.745 281.762 742.545 281.66C742.344 281.555 742.114 281.502 741.855 281.502C741.593 281.502 741.364 281.555 741.163 281.66C740.962 281.762 740.793 281.916 740.657 282.121C740.52 282.325 740.418 282.577 740.345 282.878C740.273 283.178 740.238 283.526 740.238 283.921V284.284C740.238 284.677 740.273 285.024 740.345 285.328C740.418 285.628 740.52 285.882 740.657 286.09C740.796 286.295 740.968 286.45 741.169 286.556C741.372 286.662 741.605 286.715 741.864 286.715C742.123 286.715 742.353 286.662 742.55 286.556C742.751 286.45 742.92 286.295 743.057 286.09C743.196 285.882 743.301 285.628 743.374 285.328C743.443 285.024 743.478 284.677 743.478 284.284ZM747.37 284.438L746.195 284.157L746.62 280.381H750.803V281.573H747.83L747.647 283.226C747.746 283.167 747.897 283.106 748.097 283.041C748.298 282.973 748.522 282.939 748.772 282.939C749.133 282.939 749.453 282.995 749.732 283.108C750.011 283.22 750.25 283.384 750.445 283.599C750.643 283.814 750.791 284.077 750.893 284.387C750.995 284.697 751.047 285.048 751.047 285.441C751.047 285.772 750.995 286.087 750.893 286.387C750.791 286.684 750.637 286.95 750.427 287.185C750.221 287.417 749.959 287.6 749.645 287.733C749.334 287.866 748.961 287.932 748.531 287.932C748.211 287.932 747.9 287.884 747.6 287.789C747.303 287.693 747.036 287.552 746.797 287.364C746.562 287.177 746.373 286.95 746.23 286.684C746.09 286.414 746.018 286.107 746.012 285.763H747.472C747.492 285.974 747.548 286.157 747.638 286.31C747.728 286.46 747.85 286.576 747.999 286.658C748.15 286.74 748.324 286.781 748.525 286.781C748.714 286.781 748.874 286.745 749.008 286.673C749.139 286.602 749.246 286.503 749.328 286.377C749.412 286.247 749.47 286.097 749.508 285.927C749.549 285.753 749.569 285.565 749.569 285.364C749.569 285.163 749.546 284.98 749.497 284.816C749.45 284.653 749.377 284.511 749.278 284.392C749.18 284.272 749.052 284.18 748.9 284.116C748.749 284.051 748.575 284.018 748.374 284.018C748.1 284.018 747.888 284.061 747.74 284.146C747.591 284.232 747.469 284.329 747.37 284.438Z" fill="white"/>
<path d="M853.152 225.84C872.912 225.84 888.93 209.813 888.93 190.043C888.93 170.273 872.912 154.246 853.152 154.246C833.392 154.246 817.374 170.273 817.374 190.043C817.374 209.813 833.392 225.84 853.152 225.84Z" fill="#2D3239" fill-opacity="0.8"/>
<path d="M851.171 193.595L853.187 195.191L852.218 196.03L850.234 194.434L851.171 193.595ZM853.236 190.801V191.154C853.236 191.721 853.161 192.229 853.006 192.679C852.855 193.129 852.64 193.513 852.358 193.83C852.073 194.144 851.741 194.384 851.354 194.551C850.97 194.718 850.543 194.802 850.071 194.802C849.603 194.802 849.176 194.718 848.789 194.551C848.399 194.384 848.064 194.144 847.782 193.83C847.497 193.513 847.279 193.129 847.122 192.679C846.968 192.229 846.892 191.721 846.892 191.154V190.801C846.892 190.232 846.968 189.724 847.122 189.277C847.279 188.827 847.497 188.443 847.776 188.126C848.056 187.809 848.39 187.567 848.777 187.4C849.167 187.233 849.594 187.149 850.063 187.149C850.531 187.149 850.959 187.233 851.345 187.4C851.732 187.567 852.07 187.809 852.352 188.126C852.634 188.443 852.852 188.827 853.006 189.277C853.161 189.724 853.236 190.232 853.236 190.801ZM851.686 191.154V190.791C851.686 190.396 851.651 190.048 851.575 189.748C851.503 189.448 851.398 189.195 851.258 188.991C851.121 188.786 850.953 188.632 850.752 188.53C850.551 188.425 850.322 188.372 850.063 188.372C849.801 188.372 849.571 188.425 849.37 188.53C849.17 188.632 849.001 188.786 848.864 188.991C848.728 189.195 848.626 189.448 848.553 189.748C848.48 190.048 848.445 190.396 848.445 190.791V191.154C848.445 191.547 848.48 191.895 848.553 192.198C848.626 192.498 848.728 192.753 848.864 192.96C849.004 193.165 849.176 193.32 849.376 193.426C849.58 193.532 849.813 193.585 850.071 193.585C850.33 193.585 850.56 193.532 850.758 193.426C850.959 193.32 851.127 193.165 851.264 192.96C851.404 192.753 851.508 192.498 851.581 192.198C851.651 191.895 851.686 191.547 851.686 191.154ZM857.992 187.175H858.207V188.351H858.12C857.73 188.351 857.384 188.409 857.082 188.525C856.779 188.641 856.52 188.806 856.311 189.021C856.101 189.233 855.941 189.489 855.828 189.789C855.72 190.089 855.665 190.425 855.665 190.796V192.035C855.665 192.301 855.691 192.536 855.741 192.741C855.796 192.942 855.874 193.11 855.973 193.247C856.075 193.38 856.194 193.481 856.331 193.549C856.465 193.614 856.619 193.646 856.791 193.646C856.951 193.646 857.096 193.612 857.224 193.544C857.358 193.475 857.471 193.38 857.562 193.257C857.658 193.131 857.73 192.984 857.777 192.817C857.829 192.647 857.852 192.461 857.852 192.259C857.852 192.058 857.829 191.872 857.777 191.702C857.73 191.531 857.658 191.385 857.562 191.262C857.466 191.136 857.352 191.039 857.215 190.971C857.079 190.902 856.925 190.868 856.753 190.868C856.523 190.868 856.317 190.922 856.142 191.032C855.968 191.138 855.831 191.274 855.732 191.441C855.633 191.608 855.581 191.784 855.572 191.968L855.127 191.682C855.139 191.419 855.194 191.17 855.293 190.934C855.395 190.699 855.534 190.491 855.712 190.31C855.892 190.126 856.107 189.983 856.36 189.881C856.613 189.775 856.898 189.722 857.215 189.722C857.562 189.722 857.867 189.789 858.129 189.922C858.396 190.055 858.617 190.237 858.795 190.469C858.972 190.701 859.103 190.969 859.193 191.272C859.281 191.576 859.327 191.9 859.327 192.244C859.327 192.606 859.266 192.942 859.147 193.252C859.031 193.562 858.862 193.833 858.641 194.065C858.423 194.297 858.161 194.478 857.852 194.608C857.547 194.737 857.204 194.802 856.82 194.802C856.424 194.802 856.066 194.73 855.741 194.587C855.421 194.44 855.144 194.236 854.915 193.973C854.682 193.711 854.502 193.399 854.376 193.037C854.254 192.676 854.193 192.28 854.193 191.85V191.277C854.193 190.677 854.28 190.128 854.452 189.63C854.63 189.129 854.886 188.696 855.214 188.331C855.546 187.962 855.944 187.677 856.413 187.476C856.878 187.275 857.404 187.175 857.992 187.175Z" fill="white"/>
<path d="M853.152 432.472C872.912 432.472 888.93 416.445 888.93 396.675C888.93 376.905 872.912 360.879 853.152 360.879C833.392 360.879 817.374 376.905 817.374 396.675C817.374 416.445 833.392 432.472 853.152 432.472Z" fill="#2D3239" fill-opacity="0.8"/>
<path d="M851.171 400.226L853.187 401.824L852.218 402.662L850.234 401.067L851.171 400.226ZM853.236 397.435V397.787C853.236 398.352 853.161 398.861 853.006 399.312C852.855 399.76 852.64 400.144 852.358 400.462C852.073 400.776 851.741 401.017 851.354 401.183C850.97 401.349 850.543 401.434 850.071 401.434C849.603 401.434 849.176 401.349 848.789 401.183C848.399 401.017 848.064 400.776 847.782 400.462C847.497 400.144 847.279 399.76 847.122 399.312C846.968 398.861 846.892 398.352 846.892 397.787V397.435C846.892 396.864 846.968 396.355 847.122 395.91C847.279 395.459 847.497 395.075 847.776 394.757C848.056 394.44 848.39 394.199 848.777 394.033C849.167 393.864 849.594 393.78 850.063 393.78C850.531 393.78 850.959 393.864 851.345 394.033C851.732 394.199 852.07 394.44 852.352 394.757C852.634 395.075 852.852 395.459 853.006 395.91C853.161 396.355 853.236 396.864 853.236 397.435ZM851.686 397.787V397.423C851.686 397.027 851.651 396.681 851.575 396.378C851.503 396.079 851.398 395.828 851.258 395.622C851.121 395.418 850.953 395.264 850.752 395.162C850.551 395.057 850.322 395.005 850.063 395.005C849.801 395.005 849.571 395.057 849.37 395.162C849.17 395.264 849.001 395.418 848.864 395.622C848.728 395.828 848.626 396.079 848.553 396.378C848.48 396.681 848.445 397.027 848.445 397.423V397.787C848.445 398.18 848.48 398.526 848.553 398.829C848.626 399.132 848.728 399.385 848.864 399.591C849.004 399.798 849.176 399.952 849.376 400.057C849.58 400.165 849.813 400.217 850.071 400.217C850.33 400.217 850.56 400.165 850.758 400.057C850.959 399.952 851.127 399.798 851.264 399.591C851.404 399.385 851.508 399.132 851.581 398.829C851.651 398.526 851.686 398.18 851.686 397.787ZM859.249 393.884V394.676L856.372 401.332H854.816L857.695 395.034H853.99V393.884H859.249Z" fill="white"/>
<path d="M507.758 218.31C508.078 218.282 508.316 218 508.287 217.68L507.83 212.461C507.801 212.141 507.519 211.904 507.199 211.932C506.879 211.96 506.644 212.242 506.673 212.562L507.077 217.201L502.44 217.607C502.12 217.635 501.885 217.917 501.911 218.238C501.94 218.558 502.222 218.795 502.542 218.767L507.758 218.31ZM480.595 195.728L507.333 218.176L508.08 217.284L481.343 194.836L480.595 195.728Z" fill="#575B61"/>
<path d="M501.664 200.562V195.4H503.191V200.562C503.191 201.06 503.083 201.488 502.865 201.846C502.647 202.201 502.347 202.474 501.969 202.665C501.594 202.856 501.172 202.951 500.701 202.951C500.215 202.951 499.785 202.869 499.409 202.706C499.034 202.542 498.737 202.291 498.525 201.954C498.31 201.613 498.202 201.181 498.202 200.66H499.741C499.741 200.932 499.779 201.149 499.854 201.309C499.933 201.469 500.043 201.584 500.186 201.652C500.329 201.72 500.5 201.754 500.701 201.754C500.896 201.754 501.064 201.708 501.207 201.616C501.352 201.524 501.463 201.389 501.541 201.212C501.623 201.035 501.664 200.818 501.664 200.562Z" fill="#575B61"/>
<path d="M462.066 247.276L463.82 241.383H465.528L462.936 248.832H461.81L462.066 247.276ZM460.452 241.383L462.2 247.276L462.465 248.832H461.33L458.753 241.383H460.452Z" fill="#52565C"/>
<path d="M456.051 224.353C455.731 224.381 455.492 224.664 455.521 224.984L455.978 230.203C456.004 230.523 456.286 230.76 456.606 230.732C456.926 230.704 457.165 230.421 457.136 230.101L456.732 225.462L461.368 225.056C461.688 225.028 461.924 224.746 461.895 224.426C461.868 224.106 461.586 223.869 461.266 223.897L456.051 224.353ZM455.725 225.379L482.466 247.827L483.213 246.936L456.476 224.487L455.725 225.379Z" fill="#52565C"/>
<path d="M832.38 328.903C832.7 328.874 832.936 328.592 832.91 328.271L832.453 323.053C832.424 322.733 832.142 322.494 831.822 322.524C831.502 322.553 831.266 322.835 831.292 323.155L831.7 327.794L827.063 328.199C826.743 328.228 826.507 328.51 826.533 328.83C826.563 329.15 826.845 329.386 827.165 329.357L832.38 328.903ZM805.215 306.319L831.955 328.769L832.703 327.876L805.965 305.428L805.215 306.319Z" fill="#575B61"/>
<path d="M828.884 309.837V312.789C828.767 312.931 828.59 313.082 828.345 313.245C828.104 313.406 827.793 313.542 827.412 313.659C827.031 313.775 826.568 313.833 826.024 313.833C825.544 313.833 825.108 313.755 824.712 313.598C824.317 313.438 823.976 313.205 823.688 312.896C823.406 312.591 823.188 312.215 823.034 311.773C822.88 311.325 822.804 310.815 822.804 310.242V309.776C822.804 309.203 822.877 308.694 823.025 308.248C823.174 307.8 823.386 307.425 823.662 307.116C823.939 306.811 824.267 306.575 824.651 306.415C825.032 306.255 825.457 306.176 825.922 306.176C826.571 306.176 827.103 306.281 827.519 306.494C827.935 306.7 828.252 306.991 828.471 307.361C828.692 307.73 828.828 308.152 828.878 308.63H827.391C827.354 308.379 827.281 308.158 827.176 307.972C827.071 307.783 826.917 307.637 826.719 307.53C826.527 307.425 826.274 307.372 825.963 307.372C825.707 307.372 825.48 307.425 825.28 307.53C825.082 307.634 824.913 307.786 824.779 307.987C824.643 308.187 824.538 308.438 824.465 308.734C824.395 309.028 824.358 309.375 824.358 309.768V310.242C824.358 310.632 824.395 310.975 824.471 311.275C824.547 311.572 824.657 311.822 824.803 312.029C824.954 312.23 825.137 312.381 825.355 312.483C825.573 312.585 825.826 312.637 826.117 312.637C826.359 312.637 826.559 312.617 826.719 312.576C826.885 312.535 827.016 312.486 827.115 312.428C827.217 312.367 827.295 312.308 827.351 312.253V310.932H825.949V309.837H828.884Z" fill="#575B61"/>
<path d="M780.67 334.945C780.35 334.974 780.114 335.256 780.144 335.576L780.6 340.794C780.626 341.115 780.909 341.35 781.229 341.324C781.548 341.295 781.787 341.013 781.758 340.693L781.354 336.054L785.987 335.649C786.31 335.62 786.546 335.338 786.517 335.018C786.491 334.697 786.208 334.462 785.888 334.488L780.67 334.945ZM780.347 335.969L807.088 358.419L807.835 357.529L781.095 335.079L780.347 335.969Z" fill="#575B61"/>
<path d="M786.107 357.869L787.861 351.976H789.568L786.976 359.423H785.851L786.107 357.869ZM784.492 351.976L786.24 357.869L786.505 359.423H785.371L782.793 351.976H784.492Z" fill="#575B61"/>
<path d="M357.346 247.33C357.317 247.651 357.556 247.933 357.876 247.961L363.091 248.418C363.411 248.446 363.693 248.209 363.722 247.888C363.748 247.568 363.513 247.286 363.193 247.258L358.556 246.852L358.961 242.213C358.99 241.893 358.754 241.611 358.431 241.583C358.111 241.555 357.829 241.792 357.803 242.112L357.346 247.33ZM384.29 224.487L357.553 246.935L358.3 247.827L385.038 225.379L384.29 224.487Z" fill="#575B61"/>
<path d="M384.354 241.797V242.994H380.471V241.797H384.354ZM380.925 238.764V246.212H379.392V238.764H380.925ZM385.451 238.764V246.212H383.921V238.764H385.451Z" fill="#575B61"/>
<path d="M337.86 199.838L339.615 193.945H341.322L338.73 201.393H337.605L337.86 199.838ZM336.246 193.945L337.994 199.838L338.259 201.393H337.125L334.547 193.945H336.246Z" fill="#575B61"/>
<path d="M360.377 195.332C360.404 195.012 360.168 194.729 359.848 194.702L354.632 194.245C354.312 194.217 354.03 194.454 354.001 194.774C353.975 195.094 354.211 195.376 354.531 195.405L359.167 195.81L358.76 200.449C358.734 200.77 358.969 201.052 359.289 201.08C359.609 201.108 359.892 200.871 359.921 200.551L360.377 195.332ZM359.423 194.835L332.683 217.284L333.433 218.176L360.171 195.727L359.423 194.835Z" fill="#575B61"/>
<path d="M802.975 258.39C802.946 258.71 803.185 258.993 803.504 259.021L808.72 259.477C809.04 259.505 809.322 259.269 809.351 258.948C809.377 258.628 809.142 258.346 808.822 258.318L804.185 257.912L804.589 253.273C804.619 252.953 804.383 252.671 804.063 252.642C803.743 252.614 803.461 252.851 803.432 253.171L802.975 258.39ZM829.919 235.547L803.182 257.995L803.929 258.887L830.667 236.438L829.919 235.547Z" fill="#575B61"/>
<path d="M826.542 255.134L828.293 249.241H830.004L827.409 256.689H826.286L826.542 255.134ZM824.925 249.241L826.673 255.134L826.941 256.689H825.803L823.229 249.241H824.925Z" fill="#575B61"/>
<path d="M806.006 206.392C806.035 206.072 805.796 205.789 805.476 205.761L800.261 205.305C799.941 205.277 799.659 205.514 799.63 205.834C799.603 206.154 799.839 206.436 800.159 206.464L804.796 206.87L804.391 211.509C804.362 211.829 804.598 212.112 804.918 212.14C805.238 212.167 805.52 211.931 805.549 211.61L806.006 206.392ZM805.052 205.895L778.314 228.344L779.062 229.236L805.799 206.787L805.052 205.895Z" fill="#575B61"/>
<path d="M784.376 206.75V214.199H782.843V206.75H784.376ZM787.34 209.933V211.13H783.957V209.933H787.34ZM787.698 206.75V207.953H783.957V206.75H787.698Z" fill="#575B61"/>
<path d="M360.474 144.897C360.764 144.763 360.892 144.418 360.759 144.126L358.583 139.361C358.449 139.069 358.103 138.941 357.812 139.074C357.518 139.208 357.39 139.553 357.524 139.846L359.458 144.08L355.226 146.017C354.935 146.151 354.807 146.496 354.941 146.788C355.075 147.081 355.418 147.209 355.712 147.075L360.474 144.897ZM145.739 190.513C146.152 190.923 146.152 190.923 146.152 190.923L146.154 190.921C146.154 190.921 146.157 190.918 146.16 190.915C146.165 190.91 146.173 190.902 146.184 190.891C146.206 190.869 146.239 190.836 146.283 190.792C146.371 190.705 146.503 190.575 146.679 190.405C147.03 190.064 147.555 189.562 148.244 188.919C149.624 187.634 151.665 185.786 154.306 183.543C159.589 179.055 167.273 172.985 176.868 166.657C196.067 153.998 222.888 140.33 253.439 136.224L253.285 135.071C222.496 139.208 195.507 152.973 176.228 165.685C166.586 172.043 158.865 178.144 153.553 182.655C150.897 184.912 148.843 186.771 147.451 188.067C146.756 188.716 146.226 189.223 145.869 189.569C145.691 189.742 145.556 189.875 145.465 189.965C145.42 190.01 145.385 190.044 145.362 190.067C145.351 190.078 145.342 190.087 145.336 190.093C145.333 190.096 145.331 190.098 145.329 190.1L145.327 190.102C145.327 190.102 145.327 190.102 145.739 190.513ZM253.439 136.224C284.039 132.112 310.695 134.288 329.701 137.491C339.204 139.092 346.793 140.95 352.003 142.406C354.606 143.135 356.616 143.763 357.972 144.208C358.653 144.431 359.167 144.608 359.511 144.728C359.685 144.789 359.813 144.835 359.9 144.867C359.944 144.882 359.976 144.894 359.996 144.902C360.008 144.906 360.014 144.908 360.02 144.911C360.023 144.911 360.026 144.913 360.026 144.913L360.028 144.913C360.028 144.913 360.028 144.913 360.229 144.368C360.433 143.822 360.433 143.822 360.433 143.822C360.433 143.822 360.433 143.821 360.43 143.821C360.43 143.821 360.427 143.82 360.424 143.819C360.418 143.816 360.41 143.813 360.398 143.809C360.375 143.801 360.34 143.788 360.296 143.772C360.206 143.739 360.072 143.692 359.898 143.63C359.546 143.506 359.022 143.327 358.336 143.102C356.963 142.652 354.938 142.019 352.314 141.285C347.07 139.819 339.443 137.952 329.896 136.343C310.803 133.125 284.025 130.94 253.285 135.071L253.439 136.224Z" fill="#575B61"/>
<path d="M147.792 226.712C147.471 226.726 147.2 226.477 147.186 226.155L146.962 220.922C146.949 220.6 147.198 220.329 147.519 220.315C147.84 220.301 148.111 220.551 148.125 220.872L148.324 225.524L152.973 225.325C153.295 225.312 153.566 225.561 153.58 225.882C153.593 226.203 153.344 226.475 153.023 226.489L147.792 226.712ZM359.819 169.775C359.639 170.328 359.636 170.328 359.636 170.327C359.636 170.327 359.636 170.327 359.636 170.327C359.633 170.326 359.63 170.325 359.627 170.324C359.621 170.322 359.61 170.318 359.595 170.314C359.566 170.304 359.519 170.29 359.461 170.271C359.345 170.233 359.167 170.178 358.932 170.105C358.466 169.961 357.771 169.752 356.864 169.492C355.051 168.973 352.396 168.253 349.024 167.453C342.279 165.854 332.68 163.933 321.257 162.653C298.408 160.092 268.308 160.097 239.224 170.324L238.838 169.226C268.148 158.919 298.443 158.924 321.388 161.496C332.863 162.782 342.512 164.712 349.292 166.321C352.681 167.125 355.357 167.849 357.184 168.373C358.097 168.635 358.801 168.846 359.275 168.993C359.514 169.066 359.694 169.123 359.816 169.162C359.874 169.181 359.921 169.196 359.953 169.206C359.967 169.211 359.979 169.215 359.988 169.218C359.994 169.219 359.996 169.22 359.996 169.221C359.999 169.221 359.999 169.221 359.999 169.221C359.999 169.222 359.999 169.222 359.819 169.775ZM239.224 170.324C210.094 180.567 187.329 194.624 171.848 206.12C164.108 211.868 158.19 216.974 154.21 220.641C152.219 222.474 150.713 223.948 149.706 224.961C149.203 225.468 148.824 225.86 148.572 226.125C148.445 226.257 148.351 226.358 148.288 226.425C148.257 226.458 148.233 226.484 148.218 226.5C148.21 226.509 148.205 226.515 148.201 226.519C148.199 226.521 148.198 226.522 148.197 226.523C148.196 226.523 148.196 226.524 148.196 226.524C148.196 226.524 148.196 226.524 147.767 226.131C147.339 225.737 147.339 225.737 147.339 225.736C147.34 225.736 147.34 225.735 147.341 225.735C147.342 225.734 147.344 225.732 147.346 225.73C147.35 225.725 147.356 225.718 147.365 225.709C147.381 225.691 147.406 225.664 147.439 225.629C147.504 225.56 147.601 225.457 147.73 225.321C147.988 225.051 148.372 224.654 148.881 224.141C149.9 223.115 151.418 221.63 153.421 219.784C157.429 216.093 163.378 210.96 171.155 205.185C186.707 193.637 209.574 179.516 238.838 169.226L239.224 170.324Z" fill="#575B61"/>
<path d="M251.653 183.35H250.032L250.042 182.153H251.653C252.055 182.153 252.394 182.062 252.67 181.881C252.946 181.697 253.154 181.429 253.294 181.078C253.437 180.727 253.509 180.302 253.509 179.804V179.441C253.509 179.059 253.468 178.723 253.386 178.433C253.308 178.143 253.19 177.899 253.033 177.702C252.877 177.504 252.684 177.356 252.455 177.257C252.227 177.154 251.965 177.103 251.668 177.103H250.001V175.901H251.668C252.166 175.901 252.621 175.986 253.033 176.157C253.449 176.324 253.809 176.564 254.112 176.878C254.416 177.192 254.649 177.567 254.813 178.004C254.98 178.437 255.063 178.919 255.063 179.451V179.804C255.063 180.333 254.98 180.816 254.813 181.252C254.649 181.689 254.416 182.064 254.112 182.378C253.812 182.688 253.453 182.928 253.033 183.099C252.617 183.266 252.157 183.35 251.653 183.35ZM250.901 175.901V183.35H249.367V175.901H250.901Z" fill="#575B61"/>
<path d="M108.878 393.116H106.965L106.955 392.062H108.561C108.844 392.062 109.076 392.025 109.256 391.955C109.437 391.879 109.571 391.771 109.66 391.632C109.752 391.489 109.798 391.314 109.798 391.111C109.798 390.878 109.754 390.692 109.665 390.546C109.58 390.404 109.446 390.299 109.261 390.235C109.081 390.171 108.847 390.139 108.561 390.139H107.497V396.384H105.963V388.937H108.561C108.994 388.937 109.381 388.977 109.722 389.059C110.066 389.14 110.357 389.266 110.596 389.432C110.834 389.6 111.017 389.81 111.143 390.066C111.269 390.319 111.332 390.619 111.332 390.965C111.332 391.274 111.262 391.556 111.122 391.815C110.986 392.074 110.77 392.287 110.473 392.449C110.18 392.612 109.797 392.706 109.323 392.72L108.878 393.116ZM108.811 396.384H106.546L107.145 395.188H108.811C109.081 395.188 109.301 395.144 109.471 395.06C109.642 394.97 109.768 394.851 109.85 394.702C109.931 394.551 109.972 394.379 109.972 394.184C109.972 393.966 109.935 393.777 109.86 393.617C109.788 393.456 109.672 393.334 109.512 393.247C109.352 393.16 109.14 393.116 108.878 393.116H107.4L107.411 392.062H109.251L109.604 392.476C110.057 392.47 110.422 392.548 110.698 392.717C110.978 392.88 111.181 393.093 111.307 393.355C111.436 393.619 111.501 393.899 111.501 394.199C111.501 394.676 111.397 395.08 111.189 395.406C110.981 395.732 110.676 395.974 110.274 396.14C109.875 396.303 109.388 396.384 108.811 396.384Z" fill="#575B61"/>
<path d="M325.292 393.407H323.38L323.372 392.353H324.975C325.26 392.353 325.489 392.316 325.673 392.246C325.853 392.17 325.987 392.062 326.074 391.923C326.167 391.78 326.214 391.605 326.214 391.402C326.214 391.169 326.17 390.983 326.08 390.837C325.996 390.695 325.862 390.59 325.676 390.526C325.495 390.462 325.262 390.43 324.975 390.43H323.913V396.675H322.38V389.228H324.975C325.408 389.228 325.795 389.269 326.138 389.35C326.481 389.431 326.772 389.557 327.011 389.723C327.249 389.891 327.432 390.101 327.558 390.357C327.686 390.61 327.747 390.91 327.747 391.256C327.747 391.565 327.677 391.847 327.537 392.106C327.4 392.365 327.185 392.578 326.889 392.741C326.595 392.903 326.211 392.997 325.737 393.011L325.292 393.407ZM325.228 396.675H322.962L323.561 395.479H325.228C325.495 395.479 325.716 395.435 325.885 395.351C326.057 395.261 326.182 395.142 326.263 394.993C326.347 394.842 326.388 394.67 326.388 394.475C326.388 394.257 326.35 394.068 326.275 393.908C326.202 393.747 326.089 393.625 325.926 393.538C325.766 393.451 325.556 393.407 325.292 393.407H323.814L323.826 392.353H325.667L326.019 392.767C326.473 392.761 326.836 392.839 327.113 393.008C327.392 393.171 327.595 393.384 327.72 393.646C327.851 393.91 327.915 394.19 327.915 394.49C327.915 394.967 327.811 395.371 327.604 395.697C327.398 396.023 327.092 396.265 326.688 396.431C326.289 396.594 325.804 396.675 325.228 396.675Z" fill="#575B61"/>
<path d="M541.706 393.407H539.795L539.786 392.353H541.389C541.674 392.353 541.904 392.316 542.087 392.246C542.268 392.17 542.401 392.062 542.489 391.923C542.582 391.78 542.628 391.605 542.628 391.402C542.628 391.169 542.585 390.983 542.494 390.837C542.41 390.695 542.276 390.59 542.09 390.526C541.91 390.462 541.677 390.43 541.389 390.43H540.327V396.675H538.794V389.228H541.389C541.822 389.228 542.209 389.269 542.553 389.35C542.896 389.431 543.187 389.557 543.425 389.723C543.664 389.891 543.847 390.101 543.972 390.357C544.1 390.61 544.161 390.91 544.161 391.256C544.161 391.565 544.091 391.847 543.952 392.106C543.815 392.365 543.6 392.578 543.303 392.741C543.009 392.903 542.625 392.997 542.151 393.011L541.706 393.407ZM541.642 396.675H539.376L539.975 395.479H541.642C541.91 395.479 542.131 395.435 542.3 395.351C542.471 395.261 542.596 395.142 542.678 394.993C542.762 394.842 542.803 394.67 542.803 394.475C542.803 394.257 542.765 394.068 542.689 393.908C542.617 393.747 542.503 393.625 542.34 393.538C542.18 393.451 541.971 393.407 541.706 393.407H540.228L540.24 392.353H542.081L542.433 392.767C542.887 392.761 543.251 392.839 543.527 393.008C543.806 393.171 544.01 393.384 544.135 393.646C544.266 393.91 544.33 394.19 544.33 394.49C544.33 394.967 544.225 395.371 544.019 395.697C543.812 396.023 543.507 396.265 543.102 396.431C542.704 396.594 542.218 396.675 541.642 396.675Z" fill="#575B61"/>
<path d="M238.38 129.7L240.134 123.806H241.842L239.249 131.255H238.125L238.38 129.7ZM236.764 123.806L238.513 129.7L238.779 131.255H237.644L235.067 123.806H236.764Z" fill="#575B61"/>
<path d="M692.853 226.567C693.173 226.58 693.444 226.331 693.458 226.01L693.679 220.776C693.694 220.455 693.444 220.183 693.124 220.17C692.801 220.156 692.53 220.405 692.516 220.727L692.321 225.379L687.67 225.182C687.35 225.168 687.076 225.418 687.065 225.739C687.05 226.06 687.3 226.332 687.62 226.345L692.853 226.567ZM480.825 169.673C481.005 170.226 481.005 170.226 481.008 170.226V170.226C481.011 170.226 481.014 170.224 481.017 170.223C481.023 170.221 481.034 170.217 481.049 170.212C481.078 170.203 481.124 170.188 481.183 170.17C481.299 170.132 481.476 170.076 481.712 170.004C482.177 169.86 482.873 169.651 483.78 169.391C485.592 168.873 488.248 168.153 491.619 167.354C498.365 165.756 507.964 163.837 519.387 162.557C542.235 159.998 572.336 160.003 601.421 170.222L601.805 169.124C572.496 158.826 542.201 158.831 519.256 161.401C507.781 162.686 498.132 164.614 491.352 166.222C487.963 167.025 485.287 167.749 483.46 168.272C482.547 168.534 481.843 168.745 481.369 168.891C481.13 168.965 480.95 169.022 480.828 169.06C480.77 169.08 480.723 169.095 480.691 169.105C480.677 169.11 480.665 169.114 480.656 169.116C480.653 169.117 480.647 169.119 480.647 169.119C480.645 169.119 480.645 169.12 480.645 169.12C480.645 169.12 480.645 169.12 480.825 169.673ZM601.421 170.222C630.55 180.458 653.314 194.504 668.795 205.991C676.535 211.734 682.454 216.836 686.434 220.5C688.426 222.332 689.93 223.804 690.936 224.817C691.443 225.324 691.821 225.716 692.074 225.98C692.199 226.113 692.292 226.213 692.356 226.28C692.388 226.313 692.411 226.338 692.426 226.355C692.434 226.363 692.44 226.37 692.443 226.374C692.446 226.376 692.446 226.378 692.446 226.378C692.449 226.378 692.449 226.379 692.449 226.379C692.449 226.379 692.449 226.379 692.877 225.985C693.304 225.591 693.304 225.591 693.304 225.591V225.589C693.301 225.588 693.301 225.586 693.298 225.584C693.293 225.579 693.287 225.572 693.278 225.563C693.263 225.545 693.237 225.519 693.205 225.484C693.141 225.414 693.042 225.311 692.914 225.176C692.655 224.906 692.272 224.509 691.762 223.997C690.744 222.972 689.226 221.488 687.222 219.644C683.216 215.955 677.265 210.826 669.49 205.056C653.936 193.516 631.07 179.406 601.805 169.124L601.421 170.222Z" fill="#575B61"/>
<path d="M594.693 178.078V179.275H590.731V178.078H594.693ZM591.232 171.826V179.275H589.699V171.826H591.232ZM594.175 174.86V176.026H590.731V174.86H594.175ZM594.687 171.826V173.028H590.731V171.826H594.687Z" fill="#575B61"/>
<path d="M479.778 142.806C479.49 142.667 479.365 142.32 479.505 142.03L481.765 137.304C481.901 137.014 482.25 136.891 482.538 137.03C482.829 137.168 482.951 137.516 482.812 137.806L480.805 142.007L485.005 144.015C485.293 144.154 485.418 144.502 485.279 144.791C485.139 145.082 484.793 145.204 484.502 145.066L479.778 142.806ZM693.703 192.125C693.284 192.528 693.284 192.528 693.284 192.528C693.284 192.528 693.284 192.527 693.281 192.526C693.281 192.525 693.278 192.523 693.275 192.521C693.272 192.515 693.264 192.507 693.252 192.496C693.232 192.473 693.2 192.44 693.156 192.396C693.069 192.307 692.938 192.175 692.766 192.001C692.42 191.654 691.905 191.143 691.228 190.488C689.872 189.178 687.862 187.295 685.262 185.005C680.058 180.425 672.483 174.22 662.998 167.725C644.026 154.73 617.446 140.596 586.967 135.965L587.142 134.814C617.856 139.481 644.602 153.715 663.655 166.764C673.184 173.29 680.797 179.526 686.029 184.131C688.645 186.434 690.666 188.329 692.036 189.65C692.72 190.31 693.24 190.827 693.592 191.18C693.767 191.356 693.898 191.491 693.988 191.582C694.032 191.628 694.066 191.663 694.09 191.686C694.101 191.698 694.11 191.707 694.116 191.713C694.119 191.716 694.119 191.718 694.122 191.72C694.122 191.721 694.122 191.721 694.122 191.722C694.125 191.722 694.125 191.723 693.703 192.125ZM586.967 135.965C556.439 131.326 529.745 133.045 510.681 135.924C501.149 137.363 493.528 139.092 488.295 140.459C485.677 141.144 483.655 141.737 482.291 142.159C481.608 142.37 481.09 142.539 480.744 142.654C480.569 142.711 480.438 142.756 480.351 142.785C480.307 142.8 480.275 142.811 480.255 142.819C480.243 142.823 480.235 142.825 480.232 142.827C480.229 142.828 480.226 142.829 480.226 142.829C480.223 142.829 480.223 142.83 480.223 142.83C480.223 142.83 480.223 142.83 480.031 142.281C479.836 141.732 479.836 141.732 479.836 141.732C479.836 141.732 479.839 141.731 479.839 141.731C479.839 141.73 479.842 141.73 479.845 141.729C479.851 141.726 479.859 141.723 479.871 141.719C479.894 141.711 479.929 141.7 479.976 141.684C480.066 141.653 480.2 141.608 480.377 141.549C480.729 141.431 481.256 141.261 481.948 141.047C483.327 140.62 485.366 140.022 488.001 139.333C493.269 137.956 500.931 136.219 510.507 134.773C529.658 131.881 556.474 130.154 587.142 134.814L586.967 135.965Z" fill="#13AB7E"/>
<path d="M592.381 131.155L594.135 125.262H595.842L593.25 132.71H592.125L592.381 131.155ZM590.766 125.262L592.514 131.155L592.779 132.71H591.645L589.067 125.262H590.766Z" fill="#13AB7E"/>
<path d="M480.121 46.4448C479.894 46.6721 479.897 47.0408 480.124 47.2678L483.827 50.9692C484.056 51.1965 484.423 51.1962 484.65 50.9686C484.877 50.741 484.877 50.3726 484.65 50.1455L481.357 46.8554L484.644 43.5601C484.871 43.3328 484.871 42.9641 484.644 42.7371C484.417 42.5098 484.048 42.5101 483.821 42.7376L480.121 46.4448ZM480.534 47.4381L853.733 47.1471V45.9829L480.534 46.274V47.4381Z" fill="#575B61"/>
<g filter="url(#filter0_d_44_1833)">
<path d="M0.583008 467.396V47.438" stroke="#575B61" shape-rendering="crispEdges"/>
</g>
<path d="M95.918 467.396V318.97" stroke="#575B61"/>
<path d="M312.114 467.687V318.97" stroke="#575B61"/>
<path d="M528.529 467.396V318.97" stroke="#575B61"/>
<path d="M744.944 467.687V318.97" stroke="#575B61"/>
<path d="M853.152 468.269V432.472" stroke="#575B61"/>
<path d="M853.37 154.25V45.9823" stroke="#575B61"/>
<path d="M758.121 393.407H756.21L756.201 392.353H757.804C758.089 392.353 758.319 392.316 758.502 392.246C758.683 392.17 758.816 392.062 758.904 391.923C758.997 391.78 759.043 391.605 759.043 391.402C759.043 391.169 759 390.983 758.909 390.837C758.825 390.695 758.691 390.59 758.505 390.526C758.325 390.462 758.092 390.43 757.804 390.43H756.742V396.675H755.209V389.228H757.804C758.238 389.228 758.624 389.269 758.968 389.35C759.311 389.431 759.602 389.557 759.84 389.723C760.079 389.891 760.262 390.101 760.387 390.357C760.515 390.61 760.576 390.91 760.576 391.256C760.576 391.565 760.506 391.847 760.367 392.106C760.23 392.365 760.015 392.578 759.718 392.741C759.424 392.903 759.04 392.997 758.566 393.011L758.121 393.407ZM758.057 396.675H755.791L756.39 395.479H758.057C758.325 395.479 758.546 395.435 758.715 395.351C758.886 395.261 759.011 395.142 759.093 394.993C759.177 394.842 759.218 394.67 759.218 394.475C759.218 394.257 759.18 394.068 759.104 393.908C759.032 393.747 758.918 393.625 758.755 393.538C758.595 393.451 758.386 393.407 758.121 393.407H756.643L756.655 392.353H758.496L758.848 392.767C759.302 392.761 759.666 392.839 759.942 393.008C760.221 393.171 760.425 393.384 760.55 393.646C760.681 393.91 760.745 394.19 760.745 394.49C760.745 394.967 760.64 395.371 760.434 395.697C760.227 396.023 759.922 396.265 759.517 396.431C759.119 396.594 758.633 396.675 758.057 396.675Z" fill="#575B61"/>
<path d="M866.329 451.904H864.418L864.409 450.851H866.012C866.297 450.851 866.527 450.813 866.71 450.743C866.89 450.667 867.024 450.56 867.111 450.42C867.204 450.277 867.251 450.103 867.251 449.899C867.251 449.666 867.207 449.48 867.117 449.334C867.033 449.192 866.899 449.087 866.713 449.023C866.532 448.959 866.3 448.927 866.012 448.927H864.95V455.173H863.417V447.725H866.012C866.445 447.725 866.832 447.766 867.175 447.847C867.518 447.929 867.809 448.054 868.048 448.22C868.286 448.389 868.47 448.598 868.595 448.854C868.723 449.107 868.784 449.407 868.784 449.754C868.784 450.062 868.714 450.344 868.574 450.603C868.438 450.862 868.222 451.075 867.926 451.238C867.632 451.401 867.248 451.494 866.774 451.509L866.329 451.904ZM866.265 455.173H863.999L864.598 453.976H866.265C866.532 453.976 866.753 453.933 866.922 453.848C867.094 453.758 867.219 453.639 867.3 453.49C867.385 453.339 867.425 453.167 867.425 452.972C867.425 452.754 867.387 452.565 867.312 452.405C867.239 452.245 867.126 452.123 866.963 452.035C866.803 451.948 866.593 451.904 866.329 451.904H864.851L864.863 450.851H866.704L867.056 451.264C867.51 451.258 867.873 451.337 868.15 451.506C868.429 451.669 868.632 451.881 868.758 452.143C868.888 452.408 868.952 452.687 868.952 452.987C868.952 453.464 868.848 453.869 868.641 454.195C868.435 454.521 868.129 454.762 867.725 454.928C867.326 455.091 866.841 455.173 866.265 455.173Z" fill="#575B61"/>
</g>
<defs>
<filter id="filter0_d_44_1833" x="-3.91699" y="47.438" width="9" height="427.958" filterUnits="userSpaceOnUse" color-interpolation-filters="sRGB">
<feFlood flood-opacity="0" result="BackgroundImageFix"/>
<feColorMatrix in="SourceAlpha" type="matrix" values="0 0 0 0 0 0 0 0 0 0 0 0 0 0 0 0 0 0 127 0" result="hardAlpha"/>
<feOffset dy="4"/>
<feGaussianBlur stdDeviation="2"/>
<feComposite in2="hardAlpha" operator="out"/>
<feColorMatrix type="matrix" values="0 0 0 0 0 0 0 0 0 0 0 0 0 0 0 0 0 0 0.25 0"/>
<feBlend mode="normal" in2="BackgroundImageFix" result="effect1_dropShadow_44_1833"/>
<feBlend mode="normal" in="SourceGraphic" in2="effect1_dropShadow_44_1833" result="shape"/>
</filter>
<clipPath id="clip0_44_1833">
<rect width="888.93" height="468.56" fill="white"/>
</clipPath>
</defs>
</svg>
