<svg width="889" height="469" viewBox="0 0 889 469" fill="none" xmlns="http://www.w3.org/2000/svg">
<g clip-path="url(#clip0_42_1530)">
<path d="M439.11 132.166C439.337 132.393 439.703 132.393 439.93 132.166L443.633 128.464C443.86 128.237 443.86 127.869 443.633 127.642C443.406 127.415 443.037 127.415 442.81 127.642L439.52 130.933L436.23 127.642C436.003 127.415 435.634 127.415 435.407 127.642C435.18 127.869 435.18 128.237 435.407 128.464L439.11 132.166ZM438.938 96.853V131.755H440.102V96.853H438.938Z" fill="#575B61"/>
<path d="M446.827 115.325H448.357C448.325 115.826 448.188 116.271 447.941 116.66C447.7 117.048 447.362 117.352 446.926 117.57C446.492 117.788 445.969 117.897 445.361 117.897C444.884 117.897 444.453 117.815 444.075 117.651C443.697 117.484 443.374 117.246 443.104 116.936C442.839 116.625 442.635 116.25 442.496 115.811C442.356 115.371 442.286 114.879 442.286 114.333V113.817C442.286 113.272 442.359 112.779 442.502 112.339C442.647 111.896 442.857 111.52 443.124 111.209C443.398 110.899 443.723 110.661 444.101 110.494C444.48 110.327 444.904 110.243 445.37 110.243C445.989 110.243 446.513 110.356 446.94 110.581C447.368 110.806 447.703 111.116 447.938 111.511C448.177 111.907 448.319 112.356 448.366 112.861H446.833C446.815 112.561 446.757 112.307 446.652 112.099C446.551 111.888 446.397 111.729 446.187 111.624C445.983 111.514 445.71 111.46 445.37 111.46C445.114 111.46 444.89 111.508 444.701 111.603C444.509 111.699 444.349 111.843 444.221 112.038C444.09 112.232 443.994 112.477 443.927 112.774C443.866 113.067 443.837 113.411 443.837 113.807V114.333C443.837 114.718 443.866 115.058 443.924 115.351C443.982 115.64 444.069 115.886 444.189 116.087C444.311 116.285 444.468 116.434 444.66 116.537C444.855 116.636 445.088 116.685 445.361 116.685C445.681 116.685 445.946 116.634 446.152 116.532C446.362 116.43 446.519 116.278 446.629 116.077C446.74 115.875 446.807 115.625 446.827 115.325Z" fill="#575B61"/>
<path d="M401.243 96.4418C401.016 96.2147 400.65 96.2147 400.423 96.4418L396.72 100.144C396.493 100.371 396.493 100.739 396.72 100.966C396.947 101.193 397.316 101.193 397.543 100.966L400.833 97.6756L404.123 100.966C404.35 101.193 404.719 101.193 404.946 100.966C405.173 100.739 405.173 100.371 404.946 100.144L401.243 96.4418ZM400.251 96.8531V131.755H401.415V96.8531H400.251Z" fill="#575B61"/>
<path d="M395.394 114.528H393.483L393.474 113.474H395.077C395.362 113.474 395.591 113.439 395.775 113.367C395.955 113.292 396.089 113.185 396.176 113.045C396.269 112.902 396.316 112.728 396.316 112.524C396.316 112.292 396.272 112.104 396.182 111.961C396.098 111.818 395.964 111.714 395.778 111.649C395.597 111.584 395.365 111.552 395.077 111.552H394.015V117.795H392.482V110.351H395.077C395.51 110.351 395.897 110.392 396.24 110.473C396.583 110.555 396.874 110.68 397.113 110.846C397.351 111.014 397.535 111.225 397.66 111.481C397.788 111.733 397.849 112.033 397.849 112.38C397.849 112.687 397.779 112.97 397.639 113.229C397.503 113.488 397.287 113.699 396.991 113.863C396.697 114.027 396.313 114.117 395.839 114.134L395.394 114.528ZM395.33 117.795H393.064L393.663 116.598H395.33C395.597 116.598 395.818 116.556 395.987 116.47C396.159 116.382 396.284 116.262 396.365 116.113C396.45 115.963 396.49 115.79 396.49 115.596C396.49 115.378 396.452 115.189 396.377 115.029C396.304 114.868 396.191 114.746 396.028 114.661C395.868 114.572 395.658 114.528 395.394 114.528H393.916L393.928 113.474H395.769L396.121 113.888C396.575 113.882 396.938 113.962 397.215 114.129C397.494 114.292 397.697 114.505 397.822 114.768C397.953 115.03 398.017 115.312 398.017 115.611C398.017 116.089 397.913 116.491 397.706 116.818C397.5 117.142 397.194 117.386 396.79 117.549C396.391 117.713 395.906 117.795 395.33 117.795Z" fill="#575B61"/>
<path d="M863.42 100.276H861.509L861.5 99.2224H863.103C863.388 99.2224 863.618 99.1866 863.801 99.115C863.981 99.0403 864.115 98.9327 864.202 98.7931C864.295 98.65 864.342 98.476 864.342 98.2716C864.342 98.0398 864.298 97.8525 864.208 97.7091C864.124 97.566 863.99 97.4621 863.804 97.3973C863.623 97.3324 863.391 97.3001 863.103 97.3001H862.041V103.543H860.508V96.0986H863.103C863.536 96.0986 863.923 96.1396 864.266 96.2214C864.609 96.3031 864.9 96.4276 865.139 96.5945C865.377 96.7618 865.561 96.9729 865.686 97.2286C865.814 97.4807 865.875 97.7806 865.875 98.1285C865.875 98.435 865.805 98.718 865.665 98.9772C865.529 99.236 865.313 99.4475 865.017 99.6109C864.723 99.7747 864.339 99.8649 863.865 99.882L863.42 100.276ZM863.356 103.543H861.09L861.689 102.346H863.356C863.623 102.346 863.844 102.304 864.013 102.218C864.185 102.13 864.31 102.01 864.391 101.861C864.476 101.711 864.516 101.538 864.516 101.344C864.516 101.126 864.479 100.937 864.403 100.777C864.33 100.616 864.217 100.494 864.054 100.409C863.894 100.32 863.684 100.276 863.42 100.276H861.942L861.954 99.2224H863.795L864.147 99.6365C864.601 99.6298 864.964 99.7098 865.241 99.8768C865.52 100.041 865.723 100.253 865.849 100.516C865.979 100.778 866.044 101.06 866.044 101.36C866.044 101.837 865.939 102.239 865.732 102.566C865.526 102.89 865.22 103.134 864.816 103.297C864.418 103.461 863.932 103.543 863.356 103.543Z" fill="#13A87C"/>
<path d="M0 467.594H853.733" stroke="#575B61"/>
<path d="M0 467.688H96.2814" stroke="#575B61"/>
<path d="M96.2812 467.688H853.733" stroke="#575B61"/>
<path d="M360.52 47.2383C360.75 47.0111 360.75 46.6429 360.52 46.4158L356.82 42.7138C356.593 42.4867 356.224 42.4867 355.997 42.7138C355.77 42.941 355.77 43.3092 355.997 43.5363L359.287 46.827L355.997 50.1177C355.77 50.3449 355.77 50.7131 355.997 50.9402C356.224 51.1674 356.593 51.1674 356.82 50.9402L360.52 47.2383ZM0 47.4087H360.11V46.2453H0V47.4087Z" fill="#575B61"/>
<path d="M420.322 91.9087C445.704 91.9087 466.281 71.3343 466.281 45.9544C466.281 20.5745 445.704 0 420.322 0C394.939 0 374.363 20.5745 374.363 45.9544C374.363 71.3343 394.939 91.9087 420.322 91.9087Z" fill="#2D3239" fill-opacity="0.1"/>
<path d="M420.322 81.147C439.76 81.147 455.519 65.3906 455.519 45.9541C455.519 26.5176 439.76 10.7612 420.322 10.7612C400.884 10.7612 385.125 26.5176 385.125 45.9541C385.125 65.3906 400.884 81.147 420.322 81.147Z" fill="#13AB7E" fill-opacity="0.7" stroke="#13AB7E" stroke-width="4"/>
<path d="M418.341 49.5038L420.357 51.0991L419.388 51.9373L417.404 50.3423L418.341 49.5038ZM420.406 46.7122V47.065C420.406 47.631 420.331 48.1388 420.177 48.5888C420.025 49.0387 419.81 49.422 419.528 49.7391C419.243 50.0526 418.911 50.2928 418.524 50.4598C418.14 50.6267 417.713 50.7105 417.242 50.7105C416.773 50.7105 416.346 50.6267 415.959 50.4598C415.569 50.2928 415.235 50.0526 414.952 49.7391C414.667 49.422 414.449 49.0387 414.292 48.5888C414.138 48.1388 414.062 47.631 414.062 47.065V46.7122C414.062 46.143 414.138 45.6352 414.292 45.1887C414.449 44.7388 414.667 44.3554 414.947 44.0384C415.226 43.7214 415.56 43.4794 415.947 43.3124C416.337 43.1455 416.765 43.062 417.233 43.062C417.701 43.062 418.129 43.1455 418.516 43.3124C418.903 43.4794 419.24 43.7214 419.522 44.0384C419.804 44.3554 420.022 44.7388 420.177 45.1887C420.331 45.6352 420.406 46.143 420.406 46.7122ZM418.856 47.065V46.702C418.856 46.3067 418.821 45.9592 418.745 45.659C418.673 45.3591 418.568 45.107 418.428 44.9025C418.292 44.698 418.123 44.5445 417.922 44.4424C417.722 44.3368 417.492 44.2839 417.233 44.2839C416.971 44.2839 416.741 44.3368 416.541 44.4424C416.34 44.5445 416.171 44.698 416.034 44.9025C415.898 45.107 415.796 45.3591 415.723 45.659C415.65 45.9592 415.616 46.3067 415.616 46.702V47.065C415.616 47.4571 415.65 47.8046 415.723 48.108C415.796 48.4081 415.898 48.662 416.034 48.8697C416.174 49.0745 416.346 49.2295 416.546 49.3351C416.75 49.4407 416.983 49.4936 417.242 49.4936C417.5 49.4936 417.73 49.4407 417.928 49.3351C418.129 49.2295 418.297 49.0745 418.434 48.8697C418.574 48.662 418.679 48.4081 418.751 48.108C418.821 47.8046 418.856 47.4571 418.856 47.065ZM426.372 46.2317V47.5202C426.372 48.0792 426.314 48.5614 426.195 48.9669C426.076 49.3691 425.904 49.6998 425.677 49.959C425.456 50.2143 425.191 50.4037 424.886 50.5264C424.578 50.6491 424.237 50.7105 423.862 50.7105C423.562 50.7105 423.283 50.673 423.024 50.5979C422.765 50.5194 422.533 50.3984 422.323 50.235C422.12 50.0712 421.942 49.865 421.791 49.6163C421.646 49.3642 421.532 49.064 421.454 48.7164C421.375 48.3689 421.337 47.9701 421.337 47.5202V46.2317C421.337 45.6727 421.398 45.1939 421.518 44.7952C421.64 44.3929 421.811 44.064 422.032 43.8083C422.256 43.5527 422.524 43.3654 422.829 43.2461C423.138 43.1234 423.478 43.062 423.853 43.062C424.153 43.062 424.429 43.101 424.685 43.1795C424.944 43.2546 425.18 43.3721 425.386 43.5323C425.596 43.6926 425.773 43.8988 425.919 44.151C426.064 44.3996 426.177 44.698 426.256 45.0456C426.335 45.39 426.372 45.7852 426.372 46.2317ZM424.895 47.7145V46.0325C424.895 45.7631 424.88 45.5278 424.851 45.3269C424.822 45.1256 424.781 44.9552 424.723 44.8156C424.665 44.6725 424.592 44.5564 424.508 44.468C424.423 44.3793 424.325 44.3144 424.217 44.2737C424.106 44.2327 423.987 44.2123 423.853 44.2123C423.685 44.2123 423.536 44.2446 423.408 44.3095C423.283 44.374 423.176 44.4782 423.085 44.6213C422.998 44.7609 422.928 44.9485 422.882 45.1838C422.838 45.4153 422.815 45.6983 422.815 46.0325V47.7145C422.815 47.9838 422.829 48.2205 422.856 48.425C422.888 48.6295 422.931 48.8051 422.989 48.9517C423.05 49.0948 423.12 49.2123 423.205 49.3045C423.289 49.393 423.385 49.4578 423.496 49.4988C423.606 49.5395 423.731 49.5599 423.862 49.5599C424.028 49.5599 424.17 49.5276 424.298 49.4628C424.426 49.3947 424.537 49.2891 424.624 49.146C424.717 48.9994 424.784 48.8083 424.831 48.5733C424.874 48.338 424.895 48.0518 424.895 47.7145Z" fill="white"/>
<path d="M420.322 205.34C440.082 205.34 456.1 189.323 456.1 169.566C456.1 149.808 440.082 133.791 420.322 133.791C400.562 133.791 384.544 149.808 384.544 169.566C384.544 189.323 400.562 205.34 420.322 205.34Z" fill="#2D3239" fill-opacity="0.8"/>
<path d="M418.341 173.115L420.357 174.71L419.388 175.549L417.404 173.954L418.341 173.115ZM420.406 170.324V170.676C420.406 171.242 420.331 171.75 420.177 172.2C420.025 172.65 419.81 173.033 419.528 173.35C419.243 173.664 418.911 173.904 418.524 174.071C418.14 174.238 417.713 174.322 417.242 174.322C416.773 174.322 416.346 174.238 415.959 174.071C415.569 173.904 415.235 173.664 414.952 173.35C414.667 173.033 414.449 172.65 414.292 172.2C414.138 171.75 414.062 171.242 414.062 170.676V170.324C414.062 169.754 414.138 169.246 414.292 168.8C414.449 168.35 414.667 167.967 414.947 167.65C415.226 167.333 415.56 167.091 415.947 166.924C416.337 166.757 416.765 166.673 417.233 166.673C417.701 166.673 418.129 166.757 418.516 166.924C418.903 167.091 419.24 167.333 419.522 167.65C419.804 167.967 420.022 168.35 420.177 168.8C420.331 169.246 420.406 169.754 420.406 170.324ZM418.856 170.676V170.313C418.856 169.918 418.821 169.571 418.745 169.27C418.673 168.97 418.568 168.718 418.428 168.514C418.292 168.309 418.123 168.156 417.922 168.054C417.722 167.948 417.492 167.895 417.233 167.895C416.971 167.895 416.741 167.948 416.541 168.054C416.34 168.156 416.171 168.309 416.034 168.514C415.898 168.718 415.796 168.97 415.723 169.27C415.65 169.571 415.616 169.918 415.616 170.313V170.676C415.616 171.068 415.65 171.416 415.723 171.719C415.796 172.019 415.898 172.273 416.034 172.481C416.174 172.686 416.346 172.841 416.546 172.946C416.75 173.052 416.983 173.105 417.242 173.105C417.5 173.105 417.73 173.052 417.928 172.946C418.129 172.841 418.297 172.686 418.434 172.481C418.574 172.273 418.679 172.019 418.751 171.719C418.821 171.416 418.856 171.068 418.856 170.676ZM424.953 166.76V174.219H423.481V168.457L421.71 169.02V167.859L424.793 166.76H424.953Z" fill="white"/>
<path d="M95.6997 318.772C115.459 318.772 131.478 302.755 131.478 282.997C131.478 263.239 115.459 247.223 95.6997 247.223C75.9399 247.223 59.9214 263.239 59.9214 282.997C59.9214 302.755 75.9399 318.772 95.6997 318.772Z" fill="#2D3239" fill-opacity="0.8"/>
<path d="M93.7184 286.547L95.733 288.142L94.7667 288.98L92.7829 287.385L93.7184 286.547ZM95.7842 283.755V284.108C95.7842 284.674 95.7074 285.182 95.5541 285.632C95.404 286.082 95.1876 286.465 94.9049 286.782C94.6219 287.095 94.2876 287.336 93.9025 287.503C93.5174 287.67 93.0895 287.753 92.6192 287.753C92.1523 287.753 91.7244 287.67 91.3358 287.503C90.9472 287.336 90.6115 287.095 90.3285 286.782C90.0455 286.465 89.8258 286.082 89.6691 285.632C89.5155 285.182 89.439 284.674 89.439 284.108V283.755C89.439 283.186 89.5155 282.678 89.6691 282.232C89.8258 281.782 90.044 281.398 90.3235 281.081C90.6031 280.764 90.937 280.522 91.3256 280.355C91.7142 280.188 92.1421 280.105 92.609 280.105C93.0793 280.105 93.5072 280.188 93.8923 280.355C94.281 280.522 94.6166 280.764 94.8997 281.081C95.1827 281.398 95.4008 281.782 95.5541 282.232C95.7074 282.678 95.7842 283.186 95.7842 283.755ZM94.235 284.108V283.745C94.235 283.35 94.1975 283.002 94.1224 282.702C94.0509 282.402 93.9453 282.15 93.8054 281.945C93.6692 281.741 93.5002 281.587 93.2992 281.485C93.0982 281.38 92.8682 281.327 92.609 281.327C92.3498 281.327 92.1197 281.38 91.9187 281.485C91.7177 281.587 91.5487 281.741 91.4126 281.945C91.2762 282.15 91.1723 282.402 91.1005 282.702C91.0289 283.002 90.9931 283.35 90.9931 283.745V284.108C90.9931 284.5 91.0289 284.847 91.1005 285.151C91.1723 285.451 91.2762 285.705 91.4126 285.913C91.5522 286.117 91.7227 286.272 91.924 286.378C92.1284 286.483 92.3603 286.536 92.6192 286.536C92.8783 286.536 93.1067 286.483 93.3045 286.378C93.5055 286.272 93.6742 286.117 93.8106 285.913C93.9502 285.705 94.0561 285.451 94.1277 285.151C94.1992 284.847 94.235 284.5 94.235 284.108ZM101.833 286.501V287.651H96.7404V286.669L99.1485 284.087C99.3906 283.818 99.5817 283.581 99.7213 283.377C99.8612 283.169 99.9616 282.983 100.023 282.82C100.088 282.652 100.12 282.494 100.12 282.344C100.12 282.119 100.083 281.926 100.008 281.766C99.9328 281.603 99.8219 281.476 99.6753 281.388C99.5322 281.299 99.3548 281.255 99.1436 281.255C98.9185 281.255 98.7242 281.31 98.5607 281.419C98.4004 281.528 98.2777 281.68 98.1924 281.874C98.1107 282.068 98.0697 282.288 98.0697 282.533H96.592C96.592 282.09 96.6979 281.684 96.9091 281.317C97.1205 280.945 97.4187 280.65 97.8038 280.432C98.1892 280.21 98.6459 280.1 99.1741 280.1C99.6957 280.1 100.136 280.185 100.493 280.355C100.855 280.522 101.127 280.764 101.312 281.081C101.499 281.395 101.593 281.77 101.593 282.206C101.593 282.451 101.554 282.692 101.475 282.927C101.397 283.159 101.284 283.391 101.138 283.622C100.994 283.851 100.821 284.082 100.616 284.318C100.412 284.553 100.185 284.797 99.936 285.049L98.6424 286.501H101.833Z" fill="white"/>
<path d="M312.114 318.772C331.874 318.772 347.893 302.755 347.893 282.997C347.893 263.239 331.874 247.223 312.114 247.223C292.355 247.223 276.336 263.239 276.336 282.997C276.336 302.755 292.355 318.772 312.114 318.772Z" fill="#2D3239" fill-opacity="0.8"/>
<path d="M310.134 286.547L312.149 288.142L311.181 288.98L309.197 287.385L310.134 286.547ZM312.199 283.755V284.108C312.199 284.674 312.123 285.182 311.969 285.632C311.818 286.082 311.603 286.465 311.32 286.782C311.035 287.095 310.704 287.336 310.317 287.503C309.933 287.67 309.505 287.753 309.034 287.753C308.566 287.753 308.138 287.67 307.751 287.503C307.362 287.336 307.027 287.095 306.745 286.782C306.46 286.465 306.242 286.082 306.085 285.632C305.93 285.182 305.855 284.674 305.855 284.108V283.755C305.855 283.186 305.93 282.678 306.085 282.232C306.242 281.782 306.46 281.398 306.739 281.081C307.018 280.764 307.353 280.522 307.74 280.355C308.129 280.188 308.557 280.105 309.025 280.105C309.494 280.105 309.921 280.188 310.308 280.355C310.695 280.522 311.032 280.764 311.315 281.081C311.597 281.398 311.815 281.782 311.969 282.232C312.123 282.678 312.199 283.186 312.199 283.755ZM310.648 284.108V283.745C310.648 283.35 310.614 283.002 310.538 282.702C310.465 282.402 310.36 282.15 310.221 281.945C310.084 281.741 309.915 281.587 309.715 281.485C309.514 281.38 309.284 281.327 309.025 281.327C308.764 281.327 308.534 281.38 308.333 281.485C308.132 281.587 307.964 281.741 307.827 281.945C307.69 282.15 307.588 282.402 307.516 282.702C307.443 283.002 307.408 283.35 307.408 283.745V284.108C307.408 284.5 307.443 284.847 307.516 285.151C307.588 285.451 307.69 285.705 307.827 285.913C307.967 286.117 308.138 286.272 308.339 286.378C308.542 286.483 308.775 286.536 309.034 286.536C309.293 286.536 309.523 286.483 309.721 286.378C309.921 286.272 310.09 286.117 310.227 285.913C310.366 285.705 310.471 285.451 310.544 285.151C310.614 284.847 310.648 284.5 310.648 284.108ZM314.663 283.29H315.451C315.704 283.29 315.91 283.247 316.076 283.162C316.239 283.074 316.358 282.951 316.437 282.794C316.518 282.634 316.562 282.448 316.562 282.237C316.562 282.046 316.524 281.877 316.449 281.731C316.376 281.581 316.265 281.465 316.117 281.383C315.966 281.298 315.777 281.255 315.547 281.255C315.367 281.255 315.201 281.291 315.047 281.362C314.892 281.434 314.77 281.535 314.68 281.664C314.587 281.794 314.54 281.95 314.54 282.134H313.063C313.063 281.725 313.173 281.369 313.391 281.066C313.613 280.762 313.909 280.526 314.282 280.355C314.651 280.185 315.061 280.1 315.506 280.1C316.012 280.1 316.454 280.181 316.833 280.345C317.211 280.505 317.504 280.742 317.717 281.056C317.926 281.369 318.034 281.758 318.034 282.221C318.034 282.457 317.979 282.685 317.871 282.907C317.76 283.125 317.603 283.322 317.4 283.5C317.199 283.673 316.952 283.813 316.664 283.919C316.373 284.021 316.047 284.072 315.687 284.072H314.663V283.29ZM314.663 284.409V283.648H315.687C316.091 283.648 316.449 283.694 316.754 283.786C317.062 283.878 317.318 284.011 317.528 284.185C317.734 284.355 317.891 284.558 317.996 284.793C318.104 285.025 318.156 285.282 318.156 285.565C318.156 285.913 318.089 286.223 317.955 286.495C317.824 286.765 317.635 286.993 317.394 287.181C317.155 287.368 316.876 287.511 316.556 287.61C316.236 287.706 315.884 287.753 315.506 287.753C315.195 287.753 314.887 287.711 314.581 287.625C314.282 287.537 314.008 287.405 313.764 287.232C313.522 287.054 313.327 286.833 313.182 286.567C313.037 286.298 312.967 285.979 312.967 285.611H314.444C314.444 285.802 314.491 285.972 314.587 286.122C314.683 286.272 314.814 286.39 314.98 286.475C315.151 286.56 315.34 286.603 315.547 286.603C315.782 286.603 315.983 286.56 316.152 286.475C316.321 286.386 316.451 286.264 316.539 286.107C316.632 285.947 316.678 285.761 316.678 285.55C316.678 285.277 316.629 285.059 316.53 284.895C316.431 284.728 316.289 284.605 316.105 284.527C315.922 284.449 315.704 284.409 315.451 284.409H314.663Z" fill="white"/>
<path d="M528.529 318.772C548.289 318.772 564.308 302.755 564.308 282.997C564.308 263.239 548.289 247.223 528.529 247.223C508.77 247.223 492.751 263.239 492.751 282.997C492.751 302.755 508.77 318.772 528.529 318.772Z" fill="#2D3239" fill-opacity="0.8"/>
<path d="M526.548 286.547L528.564 288.142L527.596 288.98L525.612 287.385L526.548 286.547ZM528.614 283.755V284.108C528.614 284.674 528.538 285.182 528.384 285.632C528.233 286.082 528.017 286.465 527.735 286.782C527.45 287.096 527.118 287.336 526.732 287.503C526.348 287.67 525.92 287.753 525.449 287.753C524.981 287.753 524.553 287.67 524.166 287.503C523.776 287.336 523.442 287.096 523.16 286.782C522.875 286.465 522.656 286.082 522.499 285.632C522.345 285.182 522.27 284.674 522.27 284.108V283.755C522.27 283.186 522.345 282.678 522.499 282.232C522.656 281.782 522.875 281.398 523.154 281.081C523.433 280.764 523.768 280.522 524.154 280.355C524.544 280.188 524.972 280.105 525.44 280.105C525.908 280.105 526.336 280.188 526.723 280.355C527.11 280.522 527.447 280.764 527.729 281.081C528.012 281.398 528.23 281.782 528.384 282.232C528.538 282.678 528.614 283.186 528.614 283.755ZM527.063 284.108V283.745C527.063 283.35 527.028 283.002 526.953 282.702C526.88 282.402 526.775 282.15 526.636 281.945C526.499 281.741 526.33 281.587 526.13 281.485C525.929 281.38 525.699 281.327 525.44 281.327C525.178 281.327 524.949 281.38 524.748 281.485C524.547 281.587 524.378 281.741 524.242 281.945C524.105 282.15 524.003 282.402 523.93 282.702C523.858 283.002 523.823 283.35 523.823 283.745V284.108C523.823 284.5 523.858 284.848 523.93 285.151C524.003 285.451 524.105 285.705 524.242 285.913C524.381 286.117 524.553 286.272 524.754 286.378C524.957 286.484 525.19 286.537 525.449 286.537C525.708 286.537 525.938 286.484 526.135 286.378C526.336 286.272 526.505 286.117 526.641 285.913C526.781 285.705 526.886 285.451 526.959 285.151C527.028 284.848 527.063 284.5 527.063 284.108ZM534.786 284.87V286.025H529.422L529.35 285.131L532.453 280.207H533.626L532.357 282.329L530.813 284.87H534.786ZM533.943 280.207V287.651H532.468V280.207H533.943Z" fill="white"/>
<path d="M744.944 318.772C764.704 318.772 780.723 302.755 780.723 282.997C780.723 263.239 764.704 247.223 744.944 247.223C725.184 247.223 709.166 263.239 709.166 282.997C709.166 302.755 725.184 318.772 744.944 318.772Z" fill="#2D3239" fill-opacity="0.8"/>
<path d="M742.963 286.547L744.979 288.142L744.011 288.98L742.027 287.385L742.963 286.547ZM745.029 283.755V284.108C745.029 284.674 744.953 285.182 744.799 285.632C744.648 286.082 744.432 286.465 744.15 286.782C743.865 287.096 743.534 287.336 743.147 287.503C742.763 287.67 742.335 287.753 741.864 287.753C741.396 287.753 740.968 287.67 740.581 287.503C740.191 287.336 739.857 287.096 739.575 286.782C739.29 286.465 739.071 286.082 738.914 285.632C738.76 285.182 738.685 284.674 738.685 284.108V283.755C738.685 283.186 738.76 282.678 738.914 282.232C739.071 281.782 739.29 281.398 739.569 281.081C739.848 280.764 740.183 280.522 740.569 280.355C740.959 280.188 741.387 280.105 741.855 280.105C742.323 280.105 742.751 280.188 743.138 280.355C743.525 280.522 743.862 280.764 744.144 281.081C744.427 281.398 744.645 281.782 744.799 282.232C744.953 282.678 745.029 283.186 745.029 283.755ZM743.478 284.108V283.745C743.478 283.35 743.443 283.002 743.368 282.702C743.295 282.402 743.19 282.15 743.051 281.945C742.914 281.741 742.745 281.587 742.545 281.485C742.344 281.38 742.114 281.327 741.855 281.327C741.593 281.327 741.364 281.38 741.163 281.485C740.962 281.587 740.793 281.741 740.657 281.945C740.52 282.15 740.418 282.402 740.345 282.702C740.273 283.002 740.238 283.35 740.238 283.745V284.108C740.238 284.5 740.273 284.848 740.345 285.151C740.418 285.451 740.52 285.705 740.657 285.913C740.796 286.117 740.968 286.272 741.169 286.378C741.372 286.484 741.605 286.537 741.864 286.537C742.123 286.537 742.353 286.484 742.55 286.378C742.751 286.272 742.92 286.117 743.057 285.913C743.196 285.705 743.301 285.451 743.374 285.151C743.443 284.848 743.478 284.5 743.478 284.108ZM747.37 284.262L746.195 283.98L746.62 280.207H750.803V281.398H747.83L747.647 283.05C747.746 282.992 747.897 282.931 748.097 282.866C748.298 282.797 748.522 282.763 748.772 282.763C749.133 282.763 749.453 282.82 749.732 282.932C750.011 283.045 750.25 283.208 750.445 283.423C750.643 283.638 750.791 283.9 750.893 284.21C750.995 284.52 751.047 284.871 751.047 285.264C751.047 285.594 750.995 285.909 750.893 286.209C750.791 286.506 750.637 286.772 750.427 287.007C750.221 287.239 749.959 287.421 749.645 287.554C749.334 287.687 748.961 287.753 748.531 287.753C748.211 287.753 747.9 287.706 747.6 287.61C747.303 287.515 747.036 287.373 746.797 287.186C746.562 286.998 746.373 286.772 746.23 286.506C746.09 286.237 746.018 285.93 746.012 285.585H747.472C747.492 285.797 747.548 285.979 747.638 286.133C747.728 286.283 747.85 286.398 747.999 286.48C748.15 286.562 748.324 286.603 748.525 286.603C748.714 286.603 748.874 286.567 749.008 286.496C749.139 286.424 749.246 286.325 749.328 286.199C749.412 286.069 749.47 285.92 749.508 285.749C749.549 285.575 749.569 285.388 749.569 285.187C749.569 284.986 749.546 284.803 749.497 284.64C749.45 284.476 749.377 284.335 749.278 284.216C749.18 284.096 749.052 284.004 748.9 283.939C748.749 283.875 748.575 283.842 748.374 283.842C748.1 283.842 747.888 283.885 747.74 283.97C747.591 284.055 747.469 284.152 747.37 284.262Z" fill="white"/>
<path d="M853.152 225.7C872.912 225.7 888.93 209.683 888.93 189.925C888.93 170.168 872.912 154.151 853.152 154.151C833.392 154.151 817.374 170.168 817.374 189.925C817.374 209.683 833.392 225.7 853.152 225.7Z" fill="#2D3239" fill-opacity="0.8"/>
<path d="M851.171 193.474L853.187 195.07L852.218 195.908L850.234 194.313L851.171 193.474ZM853.236 190.683V191.036C853.236 191.602 853.161 192.11 853.006 192.559C852.855 193.009 852.64 193.393 852.358 193.71C852.073 194.023 851.741 194.264 851.354 194.43C850.97 194.597 850.543 194.681 850.071 194.681C849.603 194.681 849.176 194.597 848.789 194.43C848.399 194.264 848.064 194.023 847.782 193.71C847.497 193.393 847.279 193.009 847.122 192.559C846.968 192.11 846.892 191.602 846.892 191.036V190.683C846.892 190.114 846.968 189.606 847.122 189.159C847.279 188.709 847.497 188.326 847.776 188.009C848.056 187.692 848.39 187.45 848.777 187.283C849.167 187.116 849.594 187.033 850.063 187.033C850.531 187.033 850.959 187.116 851.345 187.283C851.732 187.45 852.07 187.692 852.352 188.009C852.634 188.326 852.852 188.709 853.006 189.159C853.161 189.606 853.236 190.114 853.236 190.683ZM851.686 191.036V190.673C851.686 190.277 851.651 189.93 851.575 189.63C851.503 189.33 851.398 189.078 851.258 188.873C851.121 188.669 850.953 188.515 850.752 188.413C850.551 188.308 850.322 188.255 850.063 188.255C849.801 188.255 849.571 188.308 849.37 188.413C849.17 188.515 849.001 188.669 848.864 188.873C848.728 189.078 848.626 189.33 848.553 189.63C848.48 189.93 848.445 190.277 848.445 190.673V191.036C848.445 191.428 848.48 191.775 848.553 192.079C848.626 192.379 848.728 192.633 848.864 192.84C849.004 193.045 849.176 193.2 849.376 193.306C849.58 193.411 849.813 193.464 850.071 193.464C850.33 193.464 850.56 193.411 850.758 193.306C850.959 193.2 851.127 193.045 851.264 192.84C851.404 192.633 851.508 192.379 851.581 192.079C851.651 191.775 851.686 191.428 851.686 191.036ZM857.992 187.058H858.207V188.234H858.12C857.73 188.234 857.384 188.292 857.082 188.408C856.779 188.524 856.52 188.689 856.311 188.904C856.101 189.115 855.941 189.371 855.828 189.671C855.72 189.971 855.665 190.307 855.665 190.678V191.915C855.665 192.181 855.691 192.416 855.741 192.621C855.796 192.822 855.874 192.99 855.973 193.127C856.075 193.26 856.194 193.36 856.331 193.429C856.465 193.493 856.619 193.526 856.791 193.526C856.951 193.526 857.096 193.492 857.224 193.423C857.358 193.355 857.471 193.26 857.562 193.137C857.658 193.011 857.73 192.864 857.777 192.697C857.829 192.527 857.852 192.341 857.852 192.14C857.852 191.939 857.829 191.753 857.777 191.583C857.73 191.412 857.658 191.266 857.562 191.143C857.466 191.017 857.352 190.92 857.215 190.852C857.079 190.784 856.925 190.749 856.753 190.749C856.523 190.749 856.317 190.804 856.142 190.913C855.968 191.019 855.831 191.155 855.732 191.322C855.633 191.489 855.581 191.665 855.572 191.849L855.127 191.562C855.139 191.3 855.194 191.051 855.293 190.816C855.395 190.581 855.534 190.373 855.712 190.192C855.892 190.008 856.107 189.865 856.36 189.763C856.613 189.657 856.898 189.604 857.215 189.604C857.562 189.604 857.867 189.671 858.129 189.804C858.396 189.937 858.617 190.119 858.795 190.351C858.972 190.583 859.103 190.85 859.193 191.153C859.281 191.457 859.327 191.781 859.327 192.125C859.327 192.486 859.266 192.822 859.147 193.132C859.031 193.442 858.862 193.713 858.641 193.945C858.423 194.177 858.161 194.357 857.852 194.487C857.547 194.616 857.204 194.681 856.82 194.681C856.424 194.681 856.066 194.609 855.741 194.466C855.421 194.32 855.144 194.115 854.915 193.853C854.682 193.591 854.502 193.278 854.376 192.917C854.254 192.556 854.193 192.161 854.193 191.731V191.158C854.193 190.559 854.28 190.01 854.452 189.512C854.63 189.011 854.886 188.578 855.214 188.214C855.546 187.846 855.944 187.561 856.413 187.36C856.878 187.159 857.404 187.058 857.992 187.058Z" fill="white"/>
<path d="M853.152 432.203C872.912 432.203 888.93 416.187 888.93 396.429C888.93 376.671 872.912 360.654 853.152 360.654C833.392 360.654 817.374 376.671 817.374 396.429C817.374 416.187 833.392 432.203 853.152 432.203Z" fill="#2D3239" fill-opacity="0.8"/>
<path d="M851.171 399.977L853.187 401.574L852.218 402.412L850.234 400.818L851.171 399.977ZM853.236 397.188V397.54C853.236 398.104 853.161 398.613 853.006 399.064C852.855 399.512 852.64 399.896 852.358 400.213C852.073 400.527 851.741 400.769 851.354 400.934C850.97 401.1 850.543 401.185 850.071 401.185C849.603 401.185 849.176 401.1 848.789 400.934C848.399 400.769 848.064 400.527 847.782 400.213C847.497 399.896 847.279 399.512 847.122 399.064C846.968 398.613 846.892 398.104 846.892 397.54V397.188C846.892 396.618 846.968 396.109 847.122 395.664C847.279 395.213 847.497 394.829 847.776 394.512C848.056 394.195 848.39 393.954 848.777 393.788C849.167 393.62 849.594 393.535 850.063 393.535C850.531 393.535 850.959 393.62 851.345 393.788C851.732 393.954 852.07 394.195 852.352 394.512C852.634 394.829 852.852 395.213 853.006 395.664C853.161 396.109 853.236 396.618 853.236 397.188ZM851.686 397.54V397.177C851.686 396.781 851.651 396.435 851.575 396.132C851.503 395.833 851.398 395.583 851.258 395.376C851.121 395.173 850.953 395.018 850.752 394.917C850.551 394.812 850.322 394.76 850.063 394.76C849.801 394.76 849.571 394.812 849.37 394.917C849.17 395.018 849.001 395.173 848.864 395.376C848.728 395.583 848.626 395.833 848.553 396.132C848.48 396.435 848.445 396.781 848.445 397.177V397.54C848.445 397.933 848.48 398.279 848.553 398.581C848.626 398.884 848.728 399.137 848.864 399.343C849.004 399.55 849.176 399.704 849.376 399.809C849.58 399.916 849.813 399.969 850.071 399.969C850.33 399.969 850.56 399.916 850.758 399.809C850.959 399.704 851.127 399.55 851.264 399.343C851.404 399.137 851.508 398.884 851.581 398.581C851.651 398.279 851.686 397.933 851.686 397.54ZM859.249 393.64V394.431L856.372 401.083H854.816L857.695 394.789H853.99V393.64H859.249Z" fill="white"/>
<path d="M507.758 218.175C508.078 218.147 508.316 217.865 508.287 217.544L507.83 212.329C507.801 212.009 507.519 211.772 507.199 211.8C506.879 211.828 506.644 212.11 506.673 212.43L507.077 217.066L502.44 217.472C502.12 217.5 501.885 217.782 501.911 218.102C501.94 218.422 502.222 218.659 502.542 218.631L507.758 218.175ZM480.595 195.606L507.333 218.041L508.08 217.149L481.343 194.715L480.595 195.606Z" fill="#575B61"/>
<path d="M501.664 200.438V195.279H503.191V200.438C503.191 200.935 503.083 201.363 502.865 201.721C502.647 202.075 502.347 202.348 501.969 202.539C501.594 202.73 501.172 202.825 500.701 202.825C500.215 202.825 499.785 202.743 499.409 202.58C499.034 202.416 498.737 202.166 498.525 201.828C498.31 201.487 498.202 201.056 498.202 200.535H499.741C499.741 200.807 499.779 201.024 499.854 201.184C499.933 201.344 500.043 201.458 500.186 201.527C500.329 201.595 500.5 201.629 500.701 201.629C500.896 201.629 501.064 201.583 501.207 201.491C501.352 201.399 501.463 201.264 501.541 201.087C501.623 200.91 501.664 200.693 501.664 200.438Z" fill="#575B61"/>
<path d="M462.066 247.123L463.82 241.233H465.528L462.936 248.677H461.81L462.066 247.123ZM460.452 241.233L462.2 247.123L462.465 248.677H461.33L458.753 241.233H460.452Z" fill="#575B61"/>
<path d="M456.051 224.214C455.731 224.242 455.492 224.524 455.521 224.844L455.978 230.06C456.004 230.379 456.286 230.616 456.606 230.588C456.926 230.56 457.165 230.278 457.136 229.958L456.732 225.322L461.368 224.916C461.688 224.888 461.924 224.606 461.895 224.286C461.868 223.966 461.586 223.729 461.266 223.758L456.051 224.214ZM455.725 225.239L482.466 247.673L483.213 246.782L456.476 224.348L455.725 225.239Z" fill="#575B61"/>
<path d="M832.38 328.699C832.7 328.67 832.935 328.388 832.909 328.068L832.453 322.853C832.424 322.533 832.141 322.294 831.821 322.323C831.501 322.352 831.266 322.635 831.292 322.954L831.699 327.591L827.063 327.995C826.743 328.024 826.507 328.306 826.533 328.626C826.562 328.946 826.844 329.182 827.164 329.155L832.38 328.699ZM805.215 306.129L831.955 328.565L832.703 327.672L805.965 305.239L805.215 306.129Z" fill="#575B61"/>
<path d="M828.884 309.645V312.597C828.767 312.737 828.59 312.888 828.345 313.051C828.104 313.211 827.793 313.351 827.412 313.464C827.031 313.58 826.568 313.639 826.024 313.639C825.544 313.639 825.108 313.56 824.712 313.403C824.317 313.243 823.976 313.01 823.688 312.702C823.406 312.397 823.188 312.021 823.034 311.579C822.88 311.131 822.804 310.622 822.804 310.049V309.584C822.804 309.011 822.877 308.502 823.025 308.057C823.174 307.609 823.386 307.234 823.662 306.926C823.939 306.62 824.267 306.385 824.651 306.225C825.032 306.065 825.457 305.986 825.922 305.986C826.571 305.986 827.103 306.091 827.519 306.303C827.935 306.51 828.252 306.801 828.471 307.173C828.692 307.539 828.828 307.961 828.878 308.438H827.391C827.354 308.188 827.281 307.967 827.176 307.781C827.071 307.592 826.917 307.446 826.719 307.342C826.527 307.234 826.274 307.182 825.963 307.182C825.707 307.182 825.48 307.234 825.28 307.342C825.082 307.443 824.913 307.595 824.779 307.795C824.643 307.996 824.538 308.246 824.465 308.543C824.395 308.84 824.358 309.183 824.358 309.575V310.049C824.358 310.439 824.395 310.782 824.471 311.082C824.547 311.379 824.657 311.629 824.803 311.835C824.954 312.036 825.137 312.187 825.355 312.289C825.573 312.391 825.826 312.443 826.117 312.443C826.359 312.443 826.559 312.423 826.719 312.382C826.885 312.341 827.016 312.292 827.115 312.234C827.217 312.173 827.295 312.115 827.351 312.059V310.739H825.949V309.645H828.884Z" fill="#575B61"/>
<path d="M780.673 334.737C780.353 334.766 780.115 335.048 780.144 335.368L780.6 340.583C780.627 340.903 780.909 341.139 781.229 341.112C781.549 341.083 781.787 340.801 781.758 340.481L781.354 335.845L785.99 335.441C786.31 335.412 786.546 335.13 786.517 334.81C786.491 334.49 786.209 334.254 785.889 334.28L780.673 334.737ZM780.347 335.761L807.088 358.197L807.836 357.307L781.098 334.871L780.347 335.761Z" fill="#575B61"/>
<path d="M786.107 357.647L787.861 351.757H789.568L786.977 359.2H785.851L786.107 357.647ZM784.492 351.757L786.241 357.647L786.505 359.2H785.371L782.794 351.757H784.492Z" fill="#575B61"/>
<path d="M357.346 247.177C357.317 247.497 357.556 247.779 357.876 247.807L363.091 248.264C363.411 248.292 363.693 248.055 363.723 247.735C363.749 247.415 363.513 247.133 363.193 247.105L358.556 246.699L358.961 242.063C358.99 241.743 358.754 241.461 358.431 241.433C358.111 241.405 357.829 241.642 357.803 241.962L357.346 247.177ZM384.291 224.348L357.553 246.782L358.3 247.673L385.038 225.239L384.291 224.348Z" fill="#575B61"/>
<path d="M384.354 241.647V242.843H380.471V241.647H384.354ZM380.925 238.615V246.059H379.392V238.615H380.925ZM385.451 238.615V246.059H383.921V238.615H385.451Z" fill="#575B61"/>
<path d="M337.86 199.714L339.614 193.824H341.322L338.73 201.268H337.604L337.86 199.714ZM336.246 193.824L337.994 199.714L338.259 201.268H337.124L334.547 193.824H336.246Z" fill="#575B61"/>
<path d="M360.377 195.211C360.404 194.891 360.168 194.609 359.848 194.581L354.632 194.124C354.312 194.096 354.03 194.333 354.001 194.653C353.975 194.973 354.211 195.255 354.531 195.283L359.167 195.689L358.76 200.325C358.734 200.645 358.969 200.927 359.289 200.955C359.609 200.983 359.892 200.746 359.921 200.426L360.377 195.211ZM359.423 194.714L332.683 217.149L333.433 218.04L360.171 195.606L359.423 194.714Z" fill="#575B61"/>
<path d="M802.975 258.23C802.946 258.55 803.184 258.832 803.504 258.861L808.72 259.317C809.04 259.345 809.322 259.108 809.351 258.788C809.377 258.468 809.142 258.186 808.822 258.158L804.185 257.752L804.589 253.116C804.618 252.796 804.383 252.514 804.063 252.486C803.743 252.458 803.461 252.695 803.432 253.015L802.975 258.23ZM829.919 235.401L803.181 257.835L803.929 258.726L830.667 236.292L829.919 235.401Z" fill="#575B61"/>
<path d="M826.542 254.976L828.293 249.086H830.003L827.409 256.53H826.286L826.542 254.976ZM824.925 249.086L826.673 254.976L826.94 256.53H825.803L823.229 249.086H824.925Z" fill="#575B61"/>
<path d="M806.006 206.263C806.035 205.943 805.796 205.661 805.476 205.633L800.261 205.177C799.941 205.149 799.659 205.386 799.63 205.706C799.603 206.026 799.839 206.308 800.159 206.336L804.796 206.742L804.391 211.377C804.362 211.698 804.598 211.98 804.918 212.008C805.238 212.036 805.523 211.799 805.549 211.479L806.006 206.263ZM805.052 205.767L778.314 228.202L779.062 229.093L805.799 206.658L805.052 205.767Z" fill="#575B61"/>
<path d="M784.376 206.622V214.066H782.843V206.622H784.376ZM787.34 209.802V210.998H783.957V209.802H787.34ZM787.698 206.622V207.824H783.957V206.622H787.698Z" fill="#575B61"/>
<path d="M360.473 144.807C360.764 144.673 360.892 144.328 360.758 144.036L358.583 139.275C358.449 138.983 358.103 138.854 357.812 138.988C357.518 139.122 357.39 139.466 357.524 139.759L359.458 143.991L355.226 145.926C354.935 146.06 354.807 146.405 354.941 146.697C355.075 146.989 355.418 147.118 355.712 146.984L360.473 144.807ZM145.739 190.394C146.152 190.804 146.152 190.804 146.152 190.804C146.152 190.804 146.153 190.803 146.153 190.802C146.155 190.801 146.157 190.799 146.159 190.797C146.165 190.791 146.173 190.783 146.184 190.772C146.206 190.75 146.239 190.718 146.283 190.674C146.371 190.587 146.503 190.457 146.679 190.287C147.03 189.946 147.554 189.444 148.244 188.802C149.624 187.517 151.664 185.671 154.306 183.429C159.589 178.944 167.272 172.877 176.868 166.554C196.066 153.902 222.888 140.243 253.439 136.14L253.285 134.987C222.496 139.122 195.507 152.878 176.228 165.582C166.586 171.936 158.864 178.033 153.553 182.542C150.897 184.797 148.843 186.655 147.451 187.95C146.755 188.598 146.225 189.106 145.869 189.451C145.691 189.625 145.556 189.757 145.465 189.847C145.419 189.892 145.385 189.926 145.362 189.949C145.35 189.96 145.341 189.969 145.336 189.975C145.333 189.978 145.33 189.98 145.329 189.982C145.328 189.983 145.328 189.983 145.327 189.984C145.327 189.984 145.326 189.984 145.739 190.394ZM253.439 136.14C284.039 132.03 310.695 134.204 329.701 137.405C339.204 139.005 346.793 140.862 352.003 142.318C354.606 143.046 356.616 143.673 357.972 144.118C358.652 144.341 359.167 144.518 359.51 144.638C359.685 144.699 359.813 144.745 359.9 144.777C359.944 144.792 359.976 144.804 359.996 144.812C360.008 144.816 360.014 144.818 360.019 144.82C360.022 144.821 360.025 144.822 360.025 144.823C360.025 144.823 360.028 144.823 360.028 144.823C360.028 144.823 360.028 144.823 360.229 144.278C360.433 143.733 360.433 143.733 360.433 143.732C360.433 143.732 360.433 143.732 360.43 143.732C360.43 143.731 360.427 143.73 360.424 143.729C360.418 143.727 360.409 143.724 360.398 143.72C360.374 143.711 360.339 143.699 360.296 143.682C360.206 143.65 360.072 143.602 359.897 143.541C359.545 143.417 359.022 143.238 358.335 143.013C356.962 142.563 354.938 141.93 352.314 141.198C347.07 139.732 339.443 137.866 329.896 136.258C310.803 133.042 284.024 130.858 253.285 134.987L253.439 136.14Z" fill="#575B61"/>
<path d="M147.792 226.571C147.471 226.585 147.2 226.336 147.186 226.015L146.962 220.785C146.949 220.464 147.198 220.192 147.519 220.179C147.84 220.165 148.111 220.414 148.125 220.735L148.324 225.385L152.973 225.186C153.294 225.172 153.566 225.421 153.579 225.742C153.593 226.063 153.344 226.334 153.023 226.348L147.792 226.571ZM359.819 169.67C359.638 170.222 359.636 170.222 359.636 170.222C359.636 170.222 359.636 170.222 359.636 170.221C359.633 170.221 359.63 170.22 359.627 170.219C359.621 170.216 359.609 170.213 359.595 170.208C359.566 170.199 359.519 170.184 359.461 170.165C359.345 170.128 359.167 170.072 358.932 170C358.466 169.856 357.771 169.647 356.863 169.387C355.051 168.868 352.396 168.149 349.024 167.35C342.279 165.751 332.68 163.832 321.257 162.552C298.408 159.992 268.308 159.998 239.224 170.218L238.838 169.121C268.148 158.82 298.443 158.825 321.388 161.396C332.863 162.682 342.511 164.61 349.292 166.218C352.681 167.022 355.357 167.745 357.183 168.268C358.097 168.53 358.801 168.742 359.275 168.888C359.513 168.961 359.694 169.018 359.816 169.057C359.874 169.076 359.921 169.091 359.953 169.101C359.967 169.106 359.979 169.11 359.987 169.113C359.993 169.114 359.996 169.115 359.996 169.116C359.999 169.116 359.999 169.116 359.999 169.117C359.999 169.117 359.999 169.117 359.819 169.67ZM239.224 170.218C210.093 180.455 187.329 194.504 171.848 205.992C164.108 211.736 158.19 216.839 154.209 220.504C152.219 222.336 150.713 223.809 149.706 224.822C149.203 225.329 148.824 225.72 148.571 225.985C148.445 226.117 148.351 226.218 148.288 226.284C148.257 226.318 148.233 226.343 148.218 226.36C148.21 226.368 148.205 226.374 148.201 226.378C148.199 226.38 148.198 226.382 148.197 226.383C148.196 226.383 148.196 226.383 148.196 226.384C148.196 226.384 148.196 226.384 147.767 225.99C147.339 225.597 147.339 225.597 147.339 225.596C147.339 225.596 147.34 225.595 147.34 225.595C147.342 225.594 147.343 225.592 147.346 225.59C147.35 225.585 147.356 225.578 147.364 225.569C147.381 225.551 147.406 225.524 147.438 225.49C147.504 225.42 147.601 225.317 147.73 225.182C147.987 224.912 148.372 224.514 148.881 224.002C149.9 222.977 151.418 221.493 153.421 219.648C157.428 215.959 163.378 210.829 171.154 205.058C186.707 193.517 209.574 179.405 238.838 169.121L239.224 170.218Z" fill="#575B61"/>
<path d="M251.653 183.236H250.032L250.042 182.039H251.653C252.055 182.039 252.394 181.949 252.67 181.768C252.946 181.584 253.154 181.316 253.294 180.965C253.437 180.614 253.509 180.19 253.509 179.692V179.329C253.509 178.948 253.468 178.612 253.386 178.322C253.308 178.033 253.19 177.789 253.033 177.591C252.877 177.394 252.684 177.245 252.455 177.146C252.227 177.044 251.965 176.993 251.668 176.993H250.001V175.792H251.668C252.166 175.792 252.621 175.877 253.033 176.047C253.449 176.214 253.809 176.455 254.112 176.768C254.416 177.082 254.649 177.457 254.813 177.893C254.98 178.326 255.063 178.808 255.063 179.34V179.692C255.063 180.221 254.98 180.703 254.813 181.139C254.649 181.576 254.416 181.951 254.112 182.264C253.812 182.574 253.453 182.815 253.033 182.985C252.617 183.152 252.157 183.236 251.653 183.236ZM250.901 175.792V183.236H249.367V175.792H250.901Z" fill="#575B61"/>
<path d="M108.878 392.872H106.965L106.955 391.819H108.561C108.844 391.819 109.076 391.781 109.256 391.711C109.437 391.636 109.571 391.528 109.66 391.389C109.752 391.246 109.798 391.072 109.798 390.868C109.798 390.635 109.754 390.449 109.665 390.304C109.58 390.161 109.446 390.056 109.261 389.992C109.081 389.929 108.847 389.897 108.561 389.897H107.497V396.138H105.963V388.695H108.561C108.994 388.695 109.381 388.736 109.722 388.817C110.066 388.899 110.357 389.024 110.596 389.19C110.834 389.358 111.017 389.568 111.143 389.824C111.269 390.077 111.332 390.376 111.332 390.723C111.332 391.031 111.262 391.313 111.122 391.572C110.986 391.831 110.77 392.043 110.473 392.206C110.18 392.369 109.797 392.462 109.323 392.476L108.878 392.872ZM108.811 396.138H106.546L107.145 394.943H108.811C109.081 394.943 109.301 394.899 109.471 394.815C109.642 394.725 109.768 394.605 109.85 394.457C109.931 394.306 109.972 394.134 109.972 393.939C109.972 393.721 109.935 393.532 109.86 393.372C109.788 393.212 109.672 393.09 109.512 393.003C109.352 392.916 109.14 392.872 108.878 392.872H107.4L107.411 391.819H109.251L109.604 392.232C110.057 392.226 110.422 392.305 110.698 392.473C110.978 392.636 111.181 392.849 111.307 393.11C111.436 393.375 111.501 393.654 111.501 393.954C111.501 394.431 111.397 394.835 111.189 395.161C110.981 395.487 110.676 395.728 110.274 395.894C109.875 396.057 109.388 396.138 108.811 396.138Z" fill="#575B61"/>
<path d="M325.291 393.163H323.38L323.372 392.11H324.974C325.259 392.11 325.489 392.072 325.672 392.002C325.853 391.927 325.987 391.819 326.074 391.68C326.167 391.537 326.213 391.363 326.213 391.159C326.213 390.926 326.17 390.74 326.08 390.595C325.995 390.452 325.861 390.347 325.675 390.284C325.495 390.22 325.262 390.188 324.974 390.188H323.913V396.429H322.38V388.986H324.974C325.408 388.986 325.795 389.027 326.138 389.108C326.481 389.19 326.772 389.315 327.01 389.481C327.249 389.649 327.432 389.859 327.557 390.115C327.685 390.368 327.746 390.667 327.746 391.014C327.746 391.322 327.677 391.604 327.537 391.863C327.4 392.122 327.185 392.334 326.888 392.497C326.594 392.66 326.211 392.753 325.736 392.767L325.291 393.163ZM325.227 396.429H322.961L323.561 395.234H325.227C325.495 395.234 325.716 395.19 325.885 395.106C326.056 395.016 326.181 394.896 326.263 394.748C326.347 394.597 326.388 394.425 326.388 394.23C326.388 394.012 326.35 393.823 326.275 393.663C326.202 393.503 326.088 393.381 325.925 393.294C325.765 393.207 325.556 393.163 325.291 393.163H323.814L323.825 392.11H325.667L326.019 392.523C326.472 392.517 326.836 392.596 327.112 392.764C327.392 392.927 327.595 393.14 327.72 393.401C327.851 393.666 327.915 393.945 327.915 394.245C327.915 394.722 327.81 395.126 327.604 395.452C327.397 395.778 327.092 396.019 326.688 396.185C326.289 396.348 325.803 396.429 325.227 396.429Z" fill="#575B61"/>
<path d="M541.706 393.163H539.795L539.786 392.11H541.389C541.674 392.11 541.904 392.072 542.087 392.002C542.268 391.927 542.401 391.819 542.489 391.68C542.582 391.537 542.628 391.363 542.628 391.159C542.628 390.926 542.585 390.74 542.494 390.595C542.41 390.452 542.276 390.347 542.09 390.284C541.91 390.22 541.677 390.188 541.389 390.188H540.327V396.429H538.794V388.986H541.389C541.822 388.986 542.209 389.027 542.553 389.108C542.896 389.19 543.187 389.315 543.425 389.481C543.664 389.649 543.847 389.859 543.972 390.115C544.1 390.368 544.161 390.667 544.161 391.014C544.161 391.322 544.091 391.604 543.952 391.863C543.815 392.122 543.6 392.334 543.303 392.497C543.009 392.66 542.625 392.753 542.151 392.767L541.706 393.163ZM541.642 396.429H539.376L539.975 395.234H541.642C541.91 395.234 542.131 395.19 542.3 395.106C542.471 395.016 542.596 394.896 542.678 394.748C542.762 394.597 542.803 394.425 542.803 394.23C542.803 394.012 542.765 393.823 542.689 393.663C542.617 393.503 542.503 393.381 542.34 393.294C542.18 393.207 541.971 393.163 541.706 393.163H540.228L540.24 392.11H542.081L542.433 392.523C542.887 392.517 543.251 392.596 543.527 392.764C543.806 392.927 544.01 393.14 544.135 393.401C544.266 393.666 544.33 393.945 544.33 394.245C544.33 394.722 544.225 395.126 544.019 395.452C543.812 395.778 543.507 396.019 543.102 396.185C542.704 396.348 542.218 396.429 541.642 396.429Z" fill="#575B61"/>
<path d="M238.38 129.619L240.134 123.729H241.842L239.249 131.174H238.125L238.38 129.619ZM236.764 123.729L238.513 129.619L238.779 131.174H237.644L235.067 123.729H236.764Z" fill="#575B61"/>
<path d="M692.854 226.426C693.173 226.44 693.444 226.191 693.459 225.87L693.68 220.639C693.694 220.318 693.444 220.047 693.124 220.033C692.801 220.02 692.531 220.269 692.516 220.59L692.321 225.239L687.67 225.043C687.35 225.029 687.077 225.278 687.065 225.599C687.05 225.92 687.301 226.191 687.621 226.205L692.854 226.426ZM480.825 169.568C481.005 170.121 481.005 170.121 481.008 170.121C481.008 170.12 481.008 170.12 481.008 170.12C481.011 170.119 481.014 170.119 481.017 170.117C481.023 170.115 481.035 170.111 481.049 170.107C481.078 170.097 481.125 170.083 481.183 170.064C481.299 170.026 481.477 169.971 481.712 169.899C482.178 169.755 482.873 169.546 483.78 169.286C485.593 168.768 488.248 168.049 491.62 167.251C498.365 165.653 507.964 163.735 519.387 162.457C542.236 159.899 572.336 159.904 601.421 170.117L601.805 169.019C572.496 158.727 542.201 158.732 519.256 161.301C507.781 162.585 498.132 164.512 491.352 166.119C487.963 166.922 485.287 167.645 483.461 168.168C482.547 168.429 481.843 168.641 481.369 168.787C481.131 168.86 480.95 168.917 480.828 168.956C480.77 168.975 480.723 168.99 480.691 169C480.677 169.005 480.665 169.009 480.656 169.011C480.654 169.013 480.648 169.014 480.648 169.014C480.645 169.015 480.645 169.015 480.645 169.015C480.645 169.015 480.645 169.015 480.825 169.568ZM601.421 170.117C630.55 180.346 653.314 194.384 668.795 205.863C676.535 211.603 682.455 216.702 686.434 220.363C688.426 222.194 689.93 223.666 690.937 224.678C691.443 225.184 691.821 225.576 692.074 225.84C692.199 225.972 692.292 226.072 692.356 226.14C692.388 226.173 692.411 226.198 692.426 226.215C692.435 226.223 692.44 226.229 692.443 226.233C692.446 226.235 692.446 226.237 692.446 226.238C692.449 226.238 692.449 226.238 692.449 226.238C692.449 226.239 692.449 226.239 692.877 225.845C693.304 225.451 693.304 225.451 693.304 225.451C693.304 225.451 693.304 225.45 693.304 225.449C693.301 225.448 693.301 225.447 693.299 225.444C693.293 225.439 693.287 225.433 693.278 225.424C693.264 225.405 693.237 225.379 693.205 225.344C693.141 225.275 693.043 225.172 692.915 225.037C692.656 224.767 692.272 224.37 691.763 223.858C690.745 222.834 689.226 221.35 687.222 219.507C683.217 215.821 677.265 210.695 669.49 204.929C653.937 193.396 631.071 179.295 601.805 169.019L601.421 170.117Z" fill="#575B61"/>
<path d="M594.693 177.967V179.164H590.731V177.967H594.693ZM591.232 171.72V179.164H589.699V171.72H591.232ZM594.175 174.752V175.917H590.731V174.752H594.175ZM594.687 171.72V172.921H590.731V171.72H594.687Z" fill="#575B61"/>
<path d="M479.778 142.718C479.49 142.579 479.368 142.232 479.504 141.942L481.765 137.218C481.901 136.929 482.25 136.806 482.538 136.945C482.829 137.083 482.951 137.43 482.815 137.72L480.805 141.919L485.005 143.926C485.296 144.065 485.418 144.412 485.278 144.702C485.139 144.992 484.793 145.114 484.502 144.976L479.778 142.718ZM693.703 192.006C693.284 192.409 693.284 192.409 693.284 192.408C693.284 192.408 693.284 192.408 693.284 192.407C693.281 192.406 693.278 192.404 693.278 192.401C693.272 192.396 693.264 192.388 693.252 192.376C693.232 192.354 693.2 192.321 693.156 192.276C693.069 192.188 692.938 192.055 692.766 191.882C692.42 191.535 691.905 191.024 691.228 190.37C689.872 189.061 687.862 187.179 685.262 184.89C680.058 180.313 672.483 174.112 662.998 167.621C644.026 154.634 617.446 140.509 586.967 135.881L587.142 134.73C617.859 139.395 644.602 153.62 663.655 166.661C673.184 173.183 680.799 179.415 686.029 184.017C688.647 186.318 690.666 188.212 692.036 189.533C692.72 190.192 693.24 190.709 693.592 191.061C693.767 191.237 693.898 191.372 693.988 191.463C694.032 191.509 694.066 191.544 694.09 191.567C694.101 191.579 694.11 191.588 694.116 191.594C694.119 191.597 694.119 191.599 694.122 191.601C694.122 191.602 694.122 191.602 694.125 191.603C694.125 191.603 694.125 191.604 693.703 192.006ZM586.967 135.881C556.439 131.245 529.745 132.963 510.681 135.839C501.152 137.278 493.531 139.005 488.295 140.372C485.677 141.056 483.655 141.65 482.291 142.071C481.608 142.282 481.09 142.45 480.744 142.565C480.569 142.623 480.438 142.667 480.351 142.697C480.307 142.712 480.275 142.723 480.255 142.73C480.243 142.734 480.235 142.737 480.232 142.739C480.229 142.74 480.226 142.74 480.226 142.74C480.226 142.741 480.223 142.741 480.223 142.741C480.223 142.741 480.223 142.741 480.031 142.193C479.836 141.644 479.836 141.644 479.836 141.644C479.836 141.644 479.839 141.643 479.839 141.643C479.842 141.643 479.842 141.642 479.845 141.641C479.851 141.638 479.859 141.636 479.871 141.631C479.894 141.623 479.929 141.612 479.976 141.596C480.066 141.565 480.2 141.52 480.377 141.461C480.732 141.344 481.256 141.173 481.948 140.96C483.327 140.533 485.366 139.935 488.001 139.247C493.272 137.871 500.931 136.134 510.507 134.689C529.658 131.799 556.474 130.073 587.142 134.73L586.967 135.881Z" fill="#575B61"/>
<path d="M592.381 131.073L594.135 125.184H595.842L593.25 132.628H592.125L592.381 131.073ZM590.766 125.184L592.514 131.073L592.779 132.628H591.645L589.067 125.184H590.766Z" fill="#575B61"/>
<path d="M480.121 46.4161C479.894 46.6433 479.897 47.0118 480.124 47.2387L483.827 50.9377C484.057 51.1649 484.423 51.1646 484.65 50.9371C484.877 50.7097 484.877 50.3415 484.65 50.1146L481.357 46.8265L484.644 43.5332C484.871 43.3061 484.871 42.9376 484.644 42.7107C484.417 42.4836 484.048 42.4838 483.821 42.7113L480.121 46.4161ZM480.534 47.4088L853.734 47.118V45.9546L480.534 46.2454V47.4088Z" fill="#13A87C"/>
<path d="M0.583008 467.106V47.4082" stroke="#575B61"/>
<path d="M95.9541 468.269V318.772" stroke="#575B61"/>
<path d="M312.115 467.397V318.772" stroke="#575B61"/>
<path d="M528.529 467.106V318.772" stroke="#575B61"/>
<path d="M744.944 467.397V318.772" stroke="#575B61"/>
<path d="M853.152 467.978V432.204" stroke="#575B61"/>
<path d="M853.37 154.154V45.9536" stroke="#13A87C"/>
<path d="M758.121 393.163H756.21L756.201 392.11H757.804C758.089 392.11 758.319 392.072 758.502 392.002C758.683 391.927 758.816 391.819 758.904 391.68C758.997 391.537 759.043 391.363 759.043 391.159C759.043 390.926 759 390.74 758.909 390.595C758.825 390.452 758.691 390.347 758.505 390.284C758.325 390.22 758.092 390.188 757.804 390.188H756.742V396.429H755.209V388.986H757.804C758.238 388.986 758.624 389.027 758.968 389.108C759.311 389.19 759.602 389.315 759.84 389.481C760.079 389.649 760.262 389.859 760.387 390.115C760.515 390.368 760.576 390.667 760.576 391.014C760.576 391.322 760.506 391.604 760.367 391.863C760.23 392.122 760.015 392.334 759.718 392.497C759.424 392.66 759.04 392.753 758.566 392.767L758.121 393.163ZM758.057 396.429H755.791L756.39 395.234H758.057C758.325 395.234 758.546 395.19 758.715 395.106C758.886 395.016 759.011 394.896 759.093 394.748C759.177 394.597 759.218 394.425 759.218 394.23C759.218 394.012 759.18 393.823 759.104 393.663C759.032 393.503 758.918 393.381 758.755 393.294C758.595 393.207 758.386 393.163 758.121 393.163H756.643L756.655 392.11H758.496L758.848 392.523C759.302 392.517 759.666 392.596 759.942 392.764C760.221 392.927 760.425 393.14 760.55 393.401C760.681 393.666 760.745 393.945 760.745 394.245C760.745 394.722 760.64 395.126 760.434 395.452C760.227 395.778 759.922 396.019 759.517 396.185C759.119 396.348 758.633 396.429 758.057 396.429Z" fill="#575B61"/>
<path d="M866.329 451.624H864.418L864.409 450.571H866.012C866.297 450.571 866.527 450.533 866.71 450.463C866.89 450.388 867.024 450.28 867.111 450.141C867.204 449.998 867.251 449.824 867.251 449.62C867.251 449.387 867.207 449.201 867.117 449.056C867.033 448.913 866.899 448.808 866.713 448.744C866.532 448.68 866.3 448.648 866.012 448.648H864.95V454.89H863.417V447.447H866.012C866.445 447.447 866.832 447.488 867.175 447.569C867.518 447.651 867.809 447.776 868.048 447.942C868.286 448.11 868.47 448.32 868.595 448.576C868.723 448.829 868.784 449.128 868.784 449.474C868.784 449.783 868.714 450.065 868.574 450.324C868.438 450.583 868.222 450.795 867.926 450.958C867.632 451.121 867.248 451.214 866.774 451.228L866.329 451.624ZM866.265 454.89H863.999L864.598 453.695H866.265C866.532 453.695 866.753 453.651 866.922 453.567C867.094 453.477 867.219 453.357 867.3 453.209C867.385 453.058 867.425 452.886 867.425 452.691C867.425 452.473 867.387 452.284 867.312 452.124C867.239 451.964 867.126 451.842 866.963 451.755C866.803 451.667 866.593 451.624 866.329 451.624H864.851L864.863 450.571H866.704L867.056 450.984C867.51 450.978 867.873 451.057 868.15 451.225C868.429 451.388 868.632 451.601 868.758 451.862C868.888 452.127 868.952 452.406 868.952 452.706C868.952 453.183 868.848 453.587 868.641 453.913C868.435 454.239 868.129 454.48 867.725 454.646C867.326 454.809 866.841 454.89 866.265 454.89Z" fill="#575B61"/>
</g>
<defs>
<clipPath id="clip0_42_1530">
<rect width="888.93" height="468.56" fill="white"/>
</clipPath>
</defs>
</svg>
